<?xml version="1.0" encoding="utf-8"?>
<!-- Generator: Adobe Illustrator 25.4.1, SVG Export Plug-In . SVG Version: 6.00 Build 0)  -->
<svg version="1.1" id="Calque_1" xmlns="http://www.w3.org/2000/svg" xmlns:xlink="http://www.w3.org/1999/xlink" x="0px" y="0px"
	 viewBox="0 0 144 144" style="enable-background:new 0 0 144 144;" xml:space="preserve">
<style type="text/css">
	.st0{fill:#323232;}
</style>
<g>
	<path class="st0" d="M0,141.5v2.11h70.79v-25.46H42.75v-2.53c0-12.65-0.03-16.36,0.03-29.01c0.01-1.71-0.38-2.35-2.24-2.31
		c-5.8,0.12-32.49,0.12-38.29,0C0.46,84.28,0,84.8,0,86.58C0.06,104.88,0,123.19,0,141.5"/>
	<path class="st0" d="M144,87.1c0.03-1.42-0.57-1.69-1.83-1.69c-16.1,0.03-45.77,0.03-61.87,0c-1.33,0-1.78,0.41-1.78,1.76
		c0.03,18.53,0.04,37.06-0.01,55.59c0,1.53,0.59,1.77,1.93,1.76c6.03-0.06,12.06-0.02,18.09-0.03c0.55,0,1.1-0.09,1.83-0.16v-20.64
		h41.74v-15.76h-41.7v-5.74h2.04c8.73,0,31.02-0.02,39.74,0.02c1.26,0,1.85-0.26,1.83-1.68C143.92,96.05,143.92,91.57,144,87.1"/>
</g>
</svg>
