<?xml version="1.0" encoding="utf-8"?>
<!-- Generator: Adobe Illustrator 26.0.2, SVG Export Plug-In . SVG Version: 6.00 Build 0)  -->
<svg version="1.1" id="Calque_1" xmlns="http://www.w3.org/2000/svg" xmlns:xlink="http://www.w3.org/1999/xlink" x="0px" y="0px"
	 viewBox="0 0 37.27 37.27" style="enable-background:new 0 0 37.27 37.27;" xml:space="preserve">
<style type="text/css">
	.st0{fill:#00534E;}
</style>
<g>
	<path class="st0" d="M19.46,17.42c0.22-0.24,0.4-0.49,0.62-0.7c0.69-0.65,1.5-0.98,2.45-0.97c0.52,0,1.03,0.04,1.54,0.19
		c1.15,0.33,1.81,1.12,2.13,2.24c0.24,0.84,0.28,1.7,0.28,2.57c0,1.83-0.01,3.66,0,5.48c0,0.17-0.05,0.22-0.22,0.22
		c-0.94-0.01-1.88-0.01-2.83,0c-0.17,0-0.2-0.05-0.2-0.2c0.01-1.74,0.01-3.48,0-5.22c0-0.44-0.03-0.87-0.15-1.3
		c-0.23-0.78-0.78-1.18-1.6-1.14c-1.12,0.06-1.7,0.61-1.84,1.75c-0.03,0.27-0.05,0.54-0.05,0.82c0,1.69,0,3.38,0.01,5.07
		c0,0.17-0.04,0.22-0.22,0.22c-0.95-0.01-1.9-0.01-2.85,0c-0.15,0-0.2-0.04-0.2-0.19c0.01-3.35,0.01-6.7,0-10.05
		c0-0.17,0.05-0.21,0.21-0.21c0.9,0.01,1.8,0.01,2.7,0c0.17,0,0.21,0.05,0.2,0.21C19.45,16.62,19.46,17.02,19.46,17.42"/>
	<path class="st0" d="M14.3,21.25c0,1.66,0,3.32,0,4.97c0,0.19-0.05,0.24-0.23,0.24c-0.94-0.01-1.88-0.01-2.82,0
		c-0.15,0-0.2-0.03-0.2-0.19c0-3.35,0-6.71,0-10.06c0-0.14,0.03-0.19,0.18-0.19c0.95,0.01,1.91,0.01,2.87,0
		c0.18,0,0.21,0.07,0.21,0.23C14.3,17.91,14.3,19.58,14.3,21.25"/>
	<path class="st0" d="M14.56,12.69c0,1.04-0.84,1.89-1.88,1.89c-1.02,0-1.88-0.85-1.88-1.87c0-1.04,0.85-1.89,1.88-1.89
		S14.56,11.66,14.56,12.69"/>
	<g>
		<path class="st0" d="M18.63,37.27C8.36,37.27,0,28.91,0,18.64C0,8.36,8.36,0,18.63,0c10.28,0,18.64,8.36,18.64,18.64
			C37.27,28.91,28.91,37.27,18.63,37.27z M18.63,0.8C8.8,0.8,0.8,8.8,0.8,18.64s8,17.84,17.83,17.84c9.84,0,17.84-8,17.84-17.84
			S28.47,0.8,18.63,0.8z"/>
	</g>
</g>
</svg>
