<?xml version="1.0" encoding="utf-8"?>
<!-- Generator: Adobe Illustrator 26.0.2, SVG Export Plug-In . SVG Version: 6.00 Build 0)  -->
<svg version="1.1" id="Calque_1" xmlns="http://www.w3.org/2000/svg" xmlns:xlink="http://www.w3.org/1999/xlink" x="0px" y="0px"
	 viewBox="0 0 37.27 37.27" style="enable-background:new 0 0 37.27 37.27;" xml:space="preserve">
<style type="text/css">
	.st0{fill:#00534E;}
</style>
<g>
	<path class="st0" d="M18.64,11.8c2.22,0,2.49,0.01,3.37,0.05c0.81,0.04,1.25,0.17,1.55,0.29c0.39,0.15,0.67,0.33,0.96,0.62
		s0.47,0.57,0.62,0.96c0.12,0.29,0.25,0.73,0.28,1.55c0.04,0.88,0.05,1.14,0.05,3.37s-0.01,2.49-0.05,3.37
		c-0.03,0.81-0.17,1.25-0.28,1.55c-0.15,0.39-0.33,0.67-0.62,0.96s-0.57,0.47-0.96,0.62c-0.29,0.11-0.73,0.25-1.55,0.29
		c-0.88,0.04-1.14,0.05-3.37,0.05s-2.49-0.01-3.37-0.05c-0.81-0.04-1.25-0.17-1.55-0.29c-0.39-0.15-0.67-0.33-0.96-0.62
		s-0.47-0.57-0.62-0.96c-0.12-0.29-0.25-0.73-0.29-1.55c-0.04-0.88-0.05-1.14-0.05-3.37s0.01-2.49,0.05-3.37
		c0.04-0.81,0.17-1.25,0.29-1.55c0.15-0.39,0.33-0.67,0.62-0.96s0.57-0.47,0.96-0.62c0.29-0.12,0.74-0.25,1.55-0.29
		C16.15,11.81,16.41,11.8,18.64,11.8 M18.64,10.3c-2.26,0-2.54,0.01-3.43,0.05s-1.49,0.18-2.02,0.39c-0.55,0.22-1.01,0.5-1.48,0.96
		c-0.46,0.46-0.75,0.93-0.96,1.47c-0.21,0.53-0.35,1.13-0.39,2.02s-0.05,1.17-0.05,3.44c0,2.26,0.01,2.55,0.05,3.43
		c0.04,0.89,0.18,1.49,0.39,2.02c0.21,0.55,0.5,1.01,0.96,1.47c0.47,0.47,0.93,0.75,1.48,0.96c0.53,0.2,1.14,0.35,2.02,0.39
		c0.89,0.04,1.17,0.05,3.43,0.05s2.55-0.01,3.44-0.05c0.88-0.04,1.49-0.18,2.02-0.39c0.55-0.21,1.01-0.5,1.48-0.96
		c0.46-0.46,0.75-0.93,0.96-1.47c0.21-0.53,0.35-1.14,0.39-2.02c0.04-0.89,0.05-1.17,0.05-3.43s-0.01-2.55-0.05-3.44
		c-0.04-0.89-0.18-1.49-0.39-2.02c-0.21-0.55-0.5-1.01-0.96-1.47c-0.47-0.47-0.93-0.75-1.48-0.96c-0.53-0.2-1.14-0.35-2.02-0.39
		C21.18,10.31,20.9,10.3,18.64,10.3"/>
	<path class="st0" d="M18.64,14.36c-2.36,0-4.28,1.92-4.28,4.28s1.91,4.28,4.28,4.28s4.28-1.91,4.28-4.28S21,14.36,18.64,14.36
		 M18.64,21.41c-1.53,0-2.78-1.24-2.78-2.78s1.24-2.78,2.78-2.78s2.78,1.24,2.78,2.78C21.41,20.17,20.17,21.41,18.64,21.41"/>
	<path class="st0" d="M24.08,14.19c0,0.55-0.45,1-1,1s-1-0.45-1-1s0.45-1,1-1C23.64,13.19,24.08,13.64,24.08,14.19"/>
	<path class="st0" d="M18.64,37.27C8.36,37.27,0,28.91,0,18.64C0,8.36,8.36,0,18.64,0s18.64,8.36,18.64,18.64
		C37.27,28.91,28.91,37.27,18.64,37.27z M18.64,0.8C8.8,0.8,0.8,8.8,0.8,18.64c0,9.83,8,17.83,17.84,17.83s17.84-8,17.84-17.83
		C36.47,8.8,28.47,0.8,18.64,0.8z"/>
</g>
</svg>
