<?xml version="1.0" encoding="utf-8"?>
<!-- Generator: Adobe Illustrator 26.0.2, SVG Export Plug-In . SVG Version: 6.00 Build 0)  -->
<svg version="1.1" id="Calque_1" xmlns="http://www.w3.org/2000/svg" xmlns:xlink="http://www.w3.org/1999/xlink" x="0px" y="0px"
	 viewBox="0 0 606.36 332.68" style="enable-background:new 0 0 606.36 332.68;" xml:space="preserve">
<style type="text/css">
	.st0{fill:#FFFFFF;}
	.st1{opacity:0.5;}
</style>
<g>
	<g>
		<path class="st0" d="M153.62,325.86c0,0.82-0.08,1.48-0.23,1.98c-0.15,0.51-0.42,0.94-0.82,1.3c-0.39,0.36-0.98,0.69-1.76,0.99
			l0.64,1.76c1.55-0.49,2.7-1.17,3.45-2.03c0.75-0.87,1.13-2.16,1.13-3.89v-15.1h-2.42V325.86z M503.66,310.86l-5.63,17.54h2.44
			l1.33-4.4h6.64l1.33,4.4h2.54l-5.6-17.54H503.66z M502.38,322.04l2.75-9.17l2.73,9.17H502.38z M130.92,315.19h-2.14v3.82h-3.69
			v1.93h3.69v3.79h2.14v-3.79h3.72v-1.93h-3.72V315.19z M217.33,331h2.11v-23.14h-2.11V331z M591.79,326.47v-6.01h5.91v-1.93h-5.91
			v-5.73h6.8l0.28-1.93h-9.5v17.54h9.7v-1.93H591.79z M570.17,312.93h4.99v15.48h2.42v-15.48h4.86l0.26-2.06h-12.53V312.93z
			 M192.98,312.23c-1.19-0.91-2.87-1.36-5.04-1.36h-4.61v17.54h2.42v-6.44h2.21c2.05,0,3.7-0.47,4.94-1.4
			c1.24-0.93,1.86-2.36,1.86-4.28C194.76,314.49,194.17,313.13,192.98,312.23 M191.08,319.24c-0.74,0.54-1.81,0.82-3.22,0.82h-2.11
			v-7.3h2.16c1.37,0,2.43,0.28,3.17,0.84c0.73,0.56,1.11,1.47,1.11,2.72C192.19,317.72,191.82,318.7,191.08,319.24 M36.65,328.41
			h2.42v-17.54h-2.42V328.41z M21.58,320.46h5.91v-1.93h-5.91v-5.73h6.8l0.28-1.93h-9.5v17.54h9.7v-1.93h-7.28V320.46z
			 M-0.04,312.93h4.99v15.48h2.42v-15.48h4.87l0.25-2.06H-0.04V312.93z M100.36,320.46h5.91v-1.93h-5.91v-5.73h6.8l0.28-1.93h-9.5
			v17.54h9.7v-1.93h-7.28V320.46z M86.72,320.44c0,0.92,0.04,1.93,0.13,3.03c0.08,1.1,0.15,1.88,0.2,2.31l-7.21-14.92h-3.16v17.54
			h2.27v-8.05c0-1.41-0.03-2.61-0.09-3.6c-0.06-0.99-0.14-2.07-0.24-3.24l7.13,14.89h3.23v-17.54h-2.27V320.44z M65.31,318.2h-7.38
			v-7.33h-2.42v17.54h2.42v-8.23h7.38v8.23h2.42v-17.54h-2.42V318.2z M48.61,310.86h-2.75l-6.67,8.17l6.92,9.37h2.98l-7.13-9.52
			L48.61,310.86z M168.11,310.86l-5.63,17.54h2.44l1.32-4.4h6.65l1.32,4.4h2.54l-5.6-17.54H168.11z M166.83,322.04l2.75-9.17
			l2.73,9.17H166.83z M408.79,311.62c-1.12-0.7-2.41-1.06-3.89-1.06c-1.46,0-2.75,0.36-3.87,1.09c-1.12,0.72-1.99,1.77-2.61,3.14
			c-0.62,1.38-0.93,3.01-0.93,4.89c0,1.92,0.31,3.56,0.93,4.91c0.62,1.36,1.48,2.39,2.6,3.08c1.11,0.69,2.41,1.04,3.88,1.04
			c1.48,0,2.77-0.35,3.89-1.07c1.11-0.71,1.97-1.75,2.59-3.11c0.62-1.36,0.93-2.98,0.93-4.89c0-1.93-0.31-3.58-0.93-4.94
			C410.77,313.35,409.9,312.32,408.79,311.62 M404.9,326.72c-1.51,0-2.69-0.57-3.55-1.7c-0.86-1.14-1.29-2.92-1.29-5.35
			c0-2.44,0.42-4.24,1.27-5.4c0.85-1.15,2.04-1.73,3.56-1.73c3.23,0,4.84,2.37,4.84,7.1C409.75,324.37,408.13,326.72,404.9,326.72
			 M257.61,312.23c-1.19-0.91-2.86-1.36-5.04-1.36h-4.61v17.54h2.42v-6.44h2.22c2.05,0,3.7-0.47,4.94-1.4
			c1.24-0.93,1.86-2.36,1.86-4.28C259.4,314.49,258.8,313.13,257.61,312.23 M255.72,319.24c-0.74,0.54-1.81,0.82-3.22,0.82h-2.12
			v-7.3h2.16c1.38,0,2.43,0.28,3.17,0.84c0.74,0.56,1.11,1.47,1.11,2.72C256.83,317.72,256.46,318.7,255.72,319.24 M386.1,319.55
			l-4.28-8.68h-2.67l5.65,10.82v6.72h2.44v-6.74l5.65-10.8h-2.52L386.1,319.55z M487.69,310.86l-3.51,12.75l-3.69-12.75h-3.26
			l-1.45,17.54h2.29l0.58-7.74c0.22-2.78,0.33-5.24,0.33-7.35l4,13.11h2.27l3.79-13.09c0.03,1.66,0.18,4.05,0.43,7.15l0.61,7.92
			h2.34l-1.45-17.54H487.69z M522.16,319.55l-4.27-8.68h-2.68l5.65,10.82v6.72h2.44v-6.74l5.65-10.8h-2.52L522.16,319.55z
			 M450.98,321.43h7.2v-1.99h-7.2V321.43z M369.72,310.86h-2.42v17.54h9.35l0.28-2.12h-7.21V310.86z M430.16,320.44
			c0,0.92,0.04,1.93,0.13,3.03c0.08,1.1,0.15,1.88,0.2,2.31l-7.2-14.92h-3.16v17.54h2.27v-8.05c0-1.41-0.03-2.61-0.09-3.6
			c-0.06-0.99-0.14-2.07-0.24-3.24l7.12,14.89h3.24v-17.54h-2.27V320.44z M268.33,310.86l-5.63,17.54h2.45l1.32-4.4h6.64l1.32,4.4
			h2.54l-5.6-17.54H268.33z M267.06,322.04l2.75-9.17l2.72,9.17H267.06z M544.86,311.62c-1.11-0.7-2.4-1.06-3.88-1.06
			c-1.46,0-2.75,0.36-3.87,1.09c-1.12,0.72-1.99,1.77-2.61,3.14c-0.62,1.38-0.93,3.01-0.93,4.89c0,1.92,0.31,3.56,0.93,4.91
			c0.62,1.36,1.48,2.39,2.6,3.08c1.11,0.69,2.4,1.04,3.88,1.04c1.48,0,2.77-0.35,3.88-1.07c1.11-0.71,1.98-1.75,2.6-3.11
			c0.62-1.36,0.93-2.98,0.93-4.89c0-1.93-0.31-3.58-0.93-4.94C546.83,313.35,545.97,312.32,544.86,311.62 M540.97,326.72
			c-1.51,0-2.69-0.57-3.55-1.7c-0.86-1.14-1.28-2.92-1.28-5.35c0-2.44,0.42-4.24,1.27-5.4c0.85-1.15,2.03-1.73,3.56-1.73
			c3.23,0,4.84,2.37,4.84,7.1C545.81,324.37,544.2,326.72,540.97,326.72 M553.15,312.93h4.99v15.48h2.42v-15.48h4.86l0.26-2.06
			h-12.52V312.93z M302.82,328.41h2.42v-17.54h-2.42V328.41z M293.89,318.81c0.63-0.76,0.95-1.76,0.95-2.98
			c0-1.65-0.57-2.89-1.69-3.71c-1.13-0.84-2.79-1.25-4.98-1.25h-4.61v17.54h2.42v-7.43h2.72l4.2,7.43h2.88l-4.74-7.87
			C292.31,320.15,293.26,319.57,293.89,318.81 M288.42,319.11h-2.44v-6.37h2.17c1.44,0,2.49,0.24,3.14,0.73
			c0.65,0.48,0.98,1.27,0.98,2.36c0,1.15-0.32,1.99-0.97,2.51C290.65,318.86,289.69,319.11,288.42,319.11 M322.07,319.29
			c-0.73-0.39-1.65-0.75-2.75-1.1c-1.05-0.32-1.85-0.63-2.41-0.92c-0.55-0.29-0.93-0.6-1.13-0.95c-0.2-0.35-0.31-0.78-0.31-1.29
			c0-0.82,0.3-1.43,0.89-1.86s1.35-0.64,2.26-0.64c0.73,0,1.42,0.12,2.05,0.37c0.64,0.25,1.29,0.63,1.95,1.16l1.33-1.48
			c-0.78-0.69-1.59-1.21-2.42-1.54c-0.83-0.33-1.83-0.5-3-0.5c-1.07,0-2.03,0.2-2.86,0.59c-0.84,0.39-1.49,0.93-1.96,1.63
			c-0.47,0.69-0.7,1.48-0.7,2.37c0,1.31,0.42,2.34,1.25,3.11c0.83,0.77,2.14,1.42,3.95,1.96c1.02,0.31,1.79,0.61,2.33,0.92
			c0.54,0.31,0.91,0.65,1.13,1.03c0.22,0.38,0.33,0.86,0.33,1.44c0,1.02-0.36,1.8-1.07,2.33c-0.71,0.54-1.61,0.81-2.7,0.81
			c-0.9,0-1.72-0.15-2.44-0.45c-0.73-0.29-1.45-0.73-2.16-1.31l-1.32,1.48c1.54,1.51,3.53,2.26,5.95,2.26
			c1.29,0,2.41-0.22,3.35-0.66c0.94-0.44,1.67-1.05,2.16-1.83c0.5-0.78,0.75-1.68,0.75-2.7c0-1.05-0.23-1.92-0.68-2.61
			C323.39,320.22,322.8,319.68,322.07,319.29 M341.55,321.43h7.2v-1.99h-7.2V321.43z M104.85,307.19l-0.94-1.88l-4.43,2.67
			l0.59,1.22L104.85,307.19z"/>
		<g class="st1">
			<g>
				<path class="st0" d="M364.9,111.86H242.51V74.23h107.66c6.12-10.07,6.84-10.96,11.45-19.59H242.46V20.15h110.53
					c6.73-11.51,6.91-11.51,11.45-19.93H218.91V131.8h134.54C360.61,119.14,359.71,120.38,364.9,111.86 M0.06,127.08v4.68h159.66
					v-56.5H96.45v-5.61c0-28.09-0.06-36.3,0.07-64.39c0.02-3.79-0.86-5.21-5.06-5.12C78.37,0.42,18.15,0.4,5.06,0.15
					c-4.05-0.07-5.1,1.09-5.09,5.02C0.11,45.8,0.06,86.44,0.06,127.08 M605.88,131.75c-0.15-1-0.3-1.75-0.45-2.38
					c-4.22-17.07-8.8-39.39-12.5-56.57c-1.15-5.33-1.78-5.89-0.96-11.09c1.93-12.17,5.21-24.13,7.9-36.18
					c1.83-8.18,3.73-17.04,5.55-25.32l-70.38-0.01c-0.58,0-2.23,0.01-2.65,0.01c-0.08,0-0.43,2.53-0.48,3.05
					c-1.43,12.85-2.54,25.73-3.88,38.6c-0.11,1.12-1.22,2.15-1.86,3.22c-0.7-1.04-1.9-2.03-2.01-3.13
					c-0.59-5.63-0.78-11.3-1.35-16.94c-0.82-8.18-1.89-16.58-2.82-24.79h-73.25c0.27,1.38,0.5,2.51,0.71,3.46
					c3.87,17.3,7.82,34.57,11.61,51.88c0.86,3.92,2.25,8.15,1.54,11.88c-2.76,14.4-6.3,28.65-9.51,42.97
					c-1.55,6.9-3.88,17.62-4.67,21.33h1.95c22.87,0.04,45.73,0.16,68.6,0c0.56,0,2.73,0,2.73,0c0.17-1.58,0.28-2.54,0.34-3.09
					c0.65-5.29,1.21-10.6,1.8-15.89c0.88-7.98,1.73-15.96,2.67-23.93c0.11-0.96,1.5-1.78,2.54-2.95
					c1.88,15.99,3.88,31.05,5.62,45.81L605.88,131.75z M309.79,149.26l-23.57,22.02c0,25.48,0,50.95-0.01,76.43
					c0,1.91,0,3.83-0.21,5.72c-0.57,5.26-4.04,8.5-9.38,8.91c-5.59,0.42-9.56-2.17-10.86-7.41c-0.56-2.25-0.76-4.63-0.76-6.95
					c-0.05-31.78-0.03-63.57-0.03-95.35v-3.36h-0.1l-23.46,21.92c0,4.63,0,9.27,0,13.91c0.01,23.1-0.08,46.2,0.09,69.3
					c0.1,13.36,8.27,23.61,20.94,26.81c8.74,2.2,17.55,2.29,26.25-0.02c9.5-2.52,16.46-8.12,19.34-17.56
					c1.23-4.01,1.83-8.35,1.85-12.54c0.14-33.17,0.08-66.35,0.07-99.52C309.93,150.83,309.84,150.09,309.79,149.26 M371.85,103.11
					c0.1,13.36,8.27,23.62,20.94,26.81c8.73,2.21,17.54,2.28,26.24-0.02c9.5-2.51,16.46-8.12,19.34-17.56
					c1.22-4.01,1.91-8.35,1.93-12.54c0.14-33.17,0-64.4,0-97.57c0-0.74,0-1.25,0-2.31l-23.72,22.02c0,25.48,0,49.01-0.01,74.48
					c0,1.91,0,3.83-0.21,5.72c-0.57,5.25-4.04,8.5-9.37,8.91c-5.6,0.43-9.57-2.16-10.86-7.41c-0.55-2.25-0.76-4.63-0.76-6.96
					c-0.05-31.78-0.03-61.62-0.03-93.4v-3.36h-0.1l-23.46,21.92v11.96C371.77,56.91,371.68,80.01,371.85,103.11 M203.16,0.08
					l-23.67,22.03v109.65h23.67V0.08z M516.88,149.87c-35.64,0.14-43.73,0.13-79.37-0.04c-4.28-0.02-5.29,1.28-5.27,5.31
					c0.13,40.41,0.06,80.82,0.06,121.22c0,1.52,0,3.04,0,4.82c39.18,0.01,50.26,0.03,89.58,0.04c0-10.91-0.15-21.41,0.09-31.9
					c0.08-3.68-0.84-4.86-4.78-4.82c-19.41,0.21-16.65,0.08-36.06,0.07c-1.54,0-3.08,0-4.57,0c0-4,0-7.44,0-11.32
					c21.31,0,20.07,0.02,40.97,0.02c0-11.87,0-23.29,0.01-35.14c-21.35,0-20.11-0.02-41.08-0.02c0-3.79,0-7.14,0-10.86
					c1.84,0,3.4,0,4.96,0c19.41,0,16.65-0.05,36.05,0.09c3.34,0.02,4.59-0.78,4.5-4.28c-0.23-9.39-0.27-18.78,0.02-28.17
					C522.12,150.92,520.88,149.85,516.88,149.87 M585.39,202.13c-4.97-1.02-9.96-1.93-14.95-2.89c-3.4-0.65-4.52-1.91-4.55-5.37
					c-0.04-5.26-0.01-10.51-0.01-15.76c0-0.26-0.1-0.59,0.03-0.78c0.6-0.9,1.26-1.77,1.9-2.65c0.55,0.88,1.52,1.72,1.59,2.63
					c0.21,3.05,0.1,6.13,0.1,9.19c0,3.03,0,6.06,0,9.07h33.97c0-7.24,0.14-14.24-0.03-21.24c-0.27-10.77-5.76-18.25-15.83-22.2
					c-11.41-4.48-23.23-4.52-34.95-1.44c-13.19,3.46-20.92,12.06-21.87,25.39c-0.7,9.74-0.52,19.63,0.37,29.37
					c1.11,12.15,7.85,18.9,19.94,21.56c4.26,0.94,8.58,1.61,12.89,2.29c4.34,0.68,5.74,2.13,5.75,6.36c0.02,6.04,0,12.08,0,18.12
					c0,0.44,0.14,0.96-0.05,1.3c-0.46,0.82-1.08,1.55-1.63,2.32c-0.67-0.69-1.53-1.29-1.95-2.1c-0.33-0.64-0.14-1.55-0.14-2.33
					c-0.01-5.78,0-11.56-0.01-17.34c0-0.84-0.09-1.68-0.14-2.6h-34.16c0,9.45-0.48,18.66,0.13,27.8c0.63,9.43,5.93,16.2,15.09,19.55
					c11.72,4.29,23.77,4.57,35.77,1.52c13.26-3.37,21.16-12.02,22.27-25.39c0.87-10.61,0.99-21.37,0.29-31.99
					C604.35,211.53,597.71,204.67,585.39,202.13 M381.16,152.27c-1.12,14.17-2.16,28.35-3.35,42.51c-1.3,15.59-2.7,31.17-4.17,46.74
					c-0.1,1.02-1.16,1.95-1.77,2.92c-0.43-0.96-1.15-1.89-1.25-2.88c-2.45-23.6-4.84-47.21-7.24-70.82
					c-0.7-6.85-1.41-13.71-2.12-20.62h-44.11c3.63,23.3,7.21,46.34,10.81,69.37c3.02,19.32,6.15,38.61,8.99,57.95
					c0.44,2.98,1.33,3.86,4.4,3.84c19.98-0.13,39.96-0.06,59.94-0.07c1.17,0,2.34-0.11,3.68-0.18
					c6.73-43.7,13.42-87.18,20.15-130.88h-43.53C381.4,151.02,381.21,151.64,381.16,152.27 M180.7,149.69
					c-8.52,43.86-17.01,87.58-25.51,131.35h24.26c1.3-8.39,2.65-16.57,3.77-24.78c0.28-2.02,0.99-2.53,2.96-2.49
					c7.67,0.14,15.34,0.12,23.01,0.17c0.84,0.01,1.68,0.1,2.58,0.15c1.13,7.63,2.28,14.96,3.3,22.32c0.41,2.27,0.49,3.83,0.76,4.62
					l20.71-19.97c-7.08-37.27-14.01-74.22-21.11-111.36H180.7z M208.49,233.92h-21.65c0.76-4.92,1.47-9.75,2.24-14.57
					c2.45-15.35,4.93-30.68,7.4-46.03c0.07-0.43,0.05-0.89,0.23-1.27c0.24-0.49,0.63-0.91,0.95-1.37c0.36,0.48,0.95,0.92,1.05,1.45
					c0.88,4.58,1.75,9.16,2.47,13.77c2.47,15.61,4.87,31.22,7.3,46.83C208.53,233.07,208.49,233.41,208.49,233.92"/>
			</g>
		</g>
		<g class="st1">
			<g>
				<path class="st0" d="M147.76,153.62c0.06-3.16-1.29-3.76-4.13-3.75c-36.34,0.07-103.29,0.07-139.63-0.01
					c-3.01-0.01-4.02,0.91-4.01,3.9C0.06,194.88,0.08,236-0.04,277.13c-0.01,3.4,1.33,3.94,4.35,3.91
					c13.61-0.13,27.22-0.05,40.83-0.07c1.24,0,2.48-0.21,4.14-0.36v-45.8h94.19v-34.98H49.35v-12.74h4.6
					c19.69,0,69.99-0.04,89.69,0.04c2.84,0.01,4.18-0.57,4.12-3.74C147.58,173.47,147.59,163.54,147.76,153.62"/>
			</g>
		</g>
		<g class="st1">
			<g>
				<path class="st0" d="M147.76,153.62c0.06-3.16-1.29-3.76-4.13-3.75c-36.34,0.07-103.29,0.07-139.63-0.01
					c-3.01-0.01-4.02,0.91-4.01,3.9C0.06,194.88,0.08,236-0.04,277.13c-0.01,3.4,1.33,3.94,4.35,3.91
					c13.61-0.13,27.22-0.05,40.83-0.07c1.24,0,2.48-0.21,4.14-0.36v-45.8h94.19v-34.98H49.35v-12.74h4.6
					c19.69,0,69.99-0.04,89.69,0.04c2.84,0.01,4.18-0.57,4.12-3.74C147.58,173.47,147.59,163.54,147.76,153.62"/>
			</g>
		</g>
	</g>
</g>
</svg>
