<?xml version="1.0" encoding="utf-8"?>
<!-- Generator: Adobe Illustrator 26.0.2, SVG Export Plug-In . SVG Version: 6.00 Build 0)  -->
<svg version="1.1" id="Calque_1" xmlns="http://www.w3.org/2000/svg" xmlns:xlink="http://www.w3.org/1999/xlink" x="0px" y="0px"
	 viewBox="0 0 137.8 65.44" style="enable-background:new 0 0 137.8 65.44;" xml:space="preserve">
<style type="text/css">
	.st0{fill:#02534E;}
</style>
<g>
	<path class="st0" d="M83,25.88H55.16v-8.7h24.48c1.39-2.33,1.56-2.53,2.6-4.53h-27.1V4.68h25.14c1.53-2.66,1.57-2.66,2.6-4.61
		h-33.1V30.5h30.6C82.02,27.57,81.82,27.86,83,25.88 M0.02,29.4v1.08h36.31V17.42H21.94v-1.3c0-6.5-0.01-8.4,0.02-14.89
		c0-0.88-0.19-1.2-1.15-1.18c-2.98,0.06-16.67,0.06-19.65,0C0.24,0.03,0,0.3,0,1.21C0.03,10.61,0.02,20.01,0.02,29.4 M137.8,30.49
		c-0.03-0.23-0.07-0.41-0.1-0.55c-0.96-3.95-2-9.11-2.84-13.08c-0.26-1.23-0.41-1.36-0.22-2.56c0.44-2.81,1.18-5.58,1.8-8.37
		c0.42-1.89,0.85-3.94,1.26-5.85l-16.01,0c-0.13,0-0.51,0-0.6,0c-0.02,0-0.1,0.59-0.11,0.71c-0.32,2.97-0.58,5.95-0.88,8.93
		c-0.03,0.26-0.28,0.5-0.42,0.75c-0.16-0.24-0.43-0.47-0.46-0.72c-0.14-1.3-0.18-2.61-0.31-3.92c-0.18-1.89-0.43-3.83-0.64-5.73
		h-16.66c0.06,0.32,0.11,0.58,0.16,0.8c0.88,4,1.78,7.99,2.64,12c0.2,0.9,0.51,1.88,0.35,2.75c-0.63,3.33-1.43,6.63-2.16,9.94
		c-0.35,1.6-0.88,4.07-1.06,4.93h0.44c5.2,0.01,10.4,0.04,15.6,0c0.13,0,0.62,0,0.62,0c0.04-0.37,0.06-0.59,0.08-0.72
		c0.15-1.22,0.28-2.45,0.41-3.68c0.2-1.85,0.39-3.69,0.61-5.53c0.03-0.22,0.34-0.41,0.58-0.68c0.43,3.7,0.88,7.18,1.28,10.6
		L137.8,30.49z M70.46,34.53l-5.36,5.09c0,5.89,0,11.78,0,17.67c0,0.44,0,0.89-0.05,1.32c-0.13,1.22-0.92,1.97-2.13,2.06
		c-1.27,0.1-2.17-0.5-2.47-1.71c-0.13-0.52-0.17-1.07-0.17-1.61c-0.01-7.35-0.01-14.7-0.01-22.05v-0.78h-0.02l-5.34,5.07
		c0,1.07,0,2.14,0,3.22c0,5.34-0.02,10.68,0.02,16.03c0.02,3.09,1.88,5.46,4.76,6.2c1.99,0.51,3.99,0.53,5.97,0
		c2.16-0.58,3.74-1.88,4.4-4.06c0.28-0.93,0.42-1.93,0.42-2.9c0.03-7.67,0.02-15.34,0.02-23.01C70.5,34.9,70.48,34.73,70.46,34.53
		 M84.58,23.86c0.02,3.09,1.88,5.46,4.76,6.2c1.99,0.51,3.99,0.53,5.97-0.01c2.16-0.58,3.74-1.88,4.4-4.06
		c0.28-0.93,0.43-1.93,0.44-2.9c0.03-7.67,0-14.89,0-22.56c0-0.17,0-0.29,0-0.53l-5.4,5.09c0,5.89,0,11.33,0,17.23
		c0,0.44,0,0.89-0.05,1.32c-0.13,1.21-0.92,1.97-2.13,2.06c-1.27,0.1-2.18-0.5-2.47-1.71c-0.13-0.52-0.17-1.07-0.17-1.61
		c-0.01-7.35-0.01-14.25-0.01-21.6V0h-0.02l-5.34,5.07v2.77C84.56,13.18,84.54,18.52,84.58,23.86 M46.21,0.04l-5.38,5.09v25.36h5.38
		V0.04z M117.56,34.68c-8.11,0.03-9.95,0.03-18.05-0.01c-0.97-0.01-1.2,0.3-1.2,1.23c0.03,9.35,0.01,18.69,0.01,28.03
		c0,0.35,0,0.7,0,1.11c8.91,0,11.43,0.01,20.37,0.01c0-2.52-0.03-4.95,0.02-7.38c0.02-0.85-0.19-1.12-1.09-1.12
		c-4.41,0.05-3.79,0.02-8.2,0.02c-0.35,0-0.7,0-1.04,0c0-0.92,0-1.72,0-2.62c4.85,0,4.57,0,9.32,0.01c0-2.74,0-5.39,0-8.13
		c-4.86,0-4.58,0-9.34-0.01c0-0.88,0-1.65,0-2.51c0.42,0,0.77,0,1.13,0c4.41,0,3.79-0.01,8.2,0.02c0.76,0,1.04-0.18,1.02-0.99
		c-0.05-2.17-0.06-4.34,0-6.51C118.75,34.92,118.47,34.67,117.56,34.68 M133.14,46.76c-1.13-0.24-2.27-0.45-3.4-0.67
		c-0.77-0.15-1.03-0.44-1.03-1.24c-0.01-1.22,0-2.43,0-3.65c0-0.06-0.02-0.14,0.01-0.18c0.14-0.21,0.29-0.41,0.43-0.61
		c0.13,0.2,0.35,0.4,0.36,0.61c0.05,0.71,0.02,1.42,0.02,2.13c0,0.7,0,1.4,0,2.1h7.73c0-1.67,0.03-3.29-0.01-4.91
		c-0.06-2.49-1.31-4.22-3.6-5.13c-2.59-1.03-5.28-1.04-7.95-0.33c-3,0.8-4.76,2.79-4.98,5.87c-0.16,2.25-0.12,4.54,0.08,6.79
		c0.25,2.81,1.79,4.37,4.54,4.98c0.97,0.22,1.95,0.37,2.93,0.53c0.99,0.16,1.31,0.49,1.31,1.47c0.01,1.4,0,2.79,0,4.19
		c0,0.1,0.03,0.22-0.01,0.3c-0.11,0.19-0.25,0.36-0.37,0.54c-0.15-0.16-0.35-0.3-0.44-0.49c-0.08-0.15-0.03-0.36-0.03-0.54
		c0-1.34,0-2.67,0-4.01c0-0.19-0.02-0.39-0.03-0.6h-7.77c0,2.18-0.11,4.31,0.03,6.43c0.14,2.18,1.35,3.74,3.43,4.52
		c2.67,0.99,5.4,1.06,8.14,0.35c3.02-0.78,4.81-2.78,5.06-5.87c0.2-2.45,0.23-4.94,0.07-7.4C137.46,48.93,135.94,47.35,133.14,46.76
		 M86.7,35.23c-0.25,3.28-0.49,6.56-0.76,9.83c-0.3,3.6-0.61,7.21-0.95,10.81c-0.02,0.24-0.26,0.45-0.4,0.68
		c-0.1-0.22-0.26-0.44-0.28-0.67c-0.56-5.46-1.1-10.92-1.65-16.38c-0.16-1.59-0.32-3.17-0.48-4.77H72.14
		c0.83,5.39,1.64,10.72,2.46,16.04c0.69,4.47,1.4,8.93,2.04,13.4c0.1,0.69,0.3,0.89,1,0.89c4.54-0.03,9.09-0.01,13.63-0.02
		c0.27,0,0.53-0.03,0.84-0.04c1.53-10.1,3.05-20.16,4.58-30.27h-9.9C86.75,34.94,86.71,35.09,86.7,35.23 M41.1,34.63
		c-1.94,10.14-3.87,20.25-5.8,30.38h5.52c0.29-1.94,0.6-3.83,0.86-5.73c0.06-0.47,0.22-0.58,0.67-0.58
		c1.74,0.03,3.49,0.03,5.23,0.04c0.19,0,0.38,0.02,0.59,0.03c0.26,1.76,0.52,3.46,0.75,5.16c0.09,0.53,0.11,0.89,0.17,1.07
		l4.71-4.62c-1.61-8.62-3.19-17.16-4.8-25.75H41.1z M47.43,54.11H42.5c0.17-1.14,0.33-2.26,0.51-3.37c0.56-3.55,1.12-7.1,1.68-10.64
		c0.02-0.1,0.01-0.21,0.05-0.29c0.05-0.12,0.14-0.21,0.22-0.32c0.08,0.11,0.22,0.21,0.24,0.33c0.2,1.06,0.4,2.12,0.56,3.18
		c0.56,3.61,1.11,7.22,1.66,10.83C47.44,53.91,47.43,54,47.43,54.11"/>
	<path class="st0" d="M33.61,35.54c0.01-0.73-0.29-0.87-0.94-0.87c-8.26,0.01-23.49,0.02-31.76,0c-0.68,0-0.91,0.21-0.91,0.9
		c0.02,9.51,0.02,19.02,0,28.53c0,0.79,0.3,0.91,0.99,0.9c3.09-0.03,6.19-0.01,9.29-0.02c0.28,0,0.56-0.05,0.94-0.08V54.32h21.42
		v-8.09h-21.4v-2.95h1.05c4.48,0,15.92-0.01,20.4,0.01c0.65,0,0.95-0.13,0.94-0.86C33.57,40.13,33.57,37.84,33.61,35.54"/>
	<path class="st0" d="M33.61,35.54c0.01-0.73-0.29-0.87-0.94-0.87c-8.26,0.01-23.49,0.02-31.76,0c-0.68,0-0.91,0.21-0.91,0.9
		c0.02,9.51,0.02,19.02,0,28.53c0,0.79,0.3,0.91,0.99,0.9c3.09-0.03,6.19-0.01,9.29-0.02c0.28,0,0.56-0.05,0.94-0.08V54.32h21.42
		v-8.09h-21.4v-2.95h1.05c4.48,0,15.92-0.01,20.4,0.01c0.65,0,0.95-0.13,0.94-0.86C33.57,40.13,33.57,37.84,33.61,35.54"/>
</g>
</svg>
