<?xml version="1.0" encoding="utf-8"?>
<!-- Generator: Adobe Illustrator 26.0.2, SVG Export Plug-In . SVG Version: 6.00 Build 0)  -->
<svg version="1.1" id="Calque_1" xmlns="http://www.w3.org/2000/svg" xmlns:xlink="http://www.w3.org/1999/xlink" x="0px" y="0px"
	 viewBox="0 0 23.6 13.84" style="enable-background:new 0 0 23.6 13.84;" xml:space="preserve">
<style type="text/css">
	.st0{clip-path:url(#SVGID_00000000927958038271739200000013861018687070435481_);fill:#02534E;}
</style>
<g>
	<defs>
		<rect id="SVGID_1_" width="23.6" height="13.84"/>
	</defs>
	<clipPath id="SVGID_00000005959461632500141970000001186391524948958622_">
		<use xlink:href="#SVGID_1_"  style="overflow:visible;"/>
	</clipPath>
	<path style="clip-path:url(#SVGID_00000005959461632500141970000001186391524948958622_);fill:#02534E;" d="M16.19,11.07
		c-0.15,0-0.27,0.12-0.27,0.27v2.2c0,0.15,0.12,0.27,0.27,0.27h2.23c0.15,0,0.27-0.12,0.27-0.27v-2.2c0-0.15-0.12-0.27-0.27-0.27
		H16.19z"/>
	<path style="clip-path:url(#SVGID_00000005959461632500141970000001186391524948958622_);fill:#02534E;" d="M0.27,0
		C0.12,0,0,0.12,0,0.27v2.2c0,0.15,0.12,0.27,0.27,0.27H2.5c0.15,0,0.27-0.12,0.27-0.27v-2.2C2.77,0.12,2.65,0,2.5,0H0.27z"/>
	<path style="clip-path:url(#SVGID_00000005959461632500141970000001186391524948958622_);fill:#02534E;" d="M21.1,11.07
		c-0.15,0-0.27,0.12-0.27,0.27v2.2c0,0.15,0.12,0.27,0.27,0.27h2.23c0.15,0,0.27-0.12,0.27-0.27v-2.2c0-0.15-0.12-0.27-0.27-0.27
		H21.1z"/>
	<path style="clip-path:url(#SVGID_00000005959461632500141970000001186391524948958622_);fill:#02534E;" d="M20.13,3.68v-3.4
		c0-0.15-0.12-0.27-0.27-0.27H5.2C5.05,0,4.93,0.12,4.93,0.27v13.29c0,0.15,0.12,0.27,0.27,0.27h4.8V8.99h9.73V5.27H9.99V3.95h9.86
		C20.01,3.95,20.13,3.83,20.13,3.68"/>
</g>
</svg>
