<?xml version="1.0" encoding="utf-8"?>
<!-- Generator: Adobe Illustrator 26.0.2, SVG Export Plug-In . SVG Version: 6.00 Build 0)  -->
<svg version="1.1" id="Calque_1" xmlns="http://www.w3.org/2000/svg" xmlns:xlink="http://www.w3.org/1999/xlink" x="0px" y="0px"
	 viewBox="0 0 253.33 120.55" style="enable-background:new 0 0 253.33 120.55;" xml:space="preserve">
<style type="text/css">
	.st0{fill:#FFFFFF;}
</style>
<g>
	<path class="st0" d="M152.74,47.6h-51V31.65h44.87c2.55-4.27,2.85-4.65,4.77-8.3h-49.66V8.73h46.06c2.8-4.88,2.88-4.88,4.77-8.44
		H91.9v55.76h56.07C150.95,50.68,150.58,51.21,152.74,47.6 M0.69,54.05v1.98h66.54V32.08H40.86v-2.38c0-11.9-0.03-15.39,0.03-27.29
		c0.01-1.61-0.36-2.21-2.11-2.17c-5.46,0.12-30.55,0.11-36.01,0C1.08,0.23,0.64,0.72,0.65,2.38C0.71,19.6,0.69,36.82,0.69,54.05
		 M253.17,56.03c-0.06-0.43-0.12-0.74-0.19-1.01c-1.76-7.23-3.67-16.69-5.21-23.97c-0.48-2.26-0.74-2.5-0.4-4.7
		c0.81-5.16,2.17-10.22,3.29-15.33c0.76-3.47,1.56-7.22,2.31-10.73l-29.33,0c-0.24,0-0.93,0-1.1,0c-0.03,0-0.18,1.07-0.2,1.29
		c-0.6,5.45-1.06,10.91-1.62,16.36c-0.05,0.48-0.51,0.91-0.78,1.37c-0.29-0.44-0.79-0.86-0.84-1.33c-0.25-2.39-0.33-4.79-0.56-7.18
		c-0.34-3.47-0.79-7.03-1.18-10.51h-30.53c0.11,0.58,0.21,1.07,0.3,1.47c1.61,7.33,3.26,14.65,4.84,21.99
		c0.36,1.66,0.94,3.45,0.64,5.04c-1.15,6.1-2.63,12.14-3.97,18.21c-0.65,2.92-1.62,7.46-1.94,9.04h0.81
		c9.53,0.02,19.06,0.07,28.59,0c0.23,0,1.14,0,1.14,0c0.07-0.67,0.11-1.08,0.14-1.31c0.27-2.24,0.51-4.49,0.75-6.74
		c0.37-3.38,0.72-6.76,1.11-10.14c0.05-0.41,0.62-0.76,1.06-1.25c0.79,6.78,1.62,13.16,2.34,19.42L253.17,56.03z M129.77,63.45
		l-9.82,9.33c0,10.8,0,21.59,0,32.39c0,0.81,0,1.62-0.09,2.43c-0.24,2.23-1.68,3.6-3.91,3.78c-2.33,0.18-3.99-0.92-4.53-3.14
		c-0.23-0.95-0.32-1.96-0.32-2.95c-0.02-13.47-0.01-26.94-0.01-40.41v-1.42h-0.04l-9.78,9.29c0,1.96,0,3.93,0,5.89
		c0,9.79-0.04,19.58,0.04,29.37c0.04,5.66,3.45,10.01,8.73,11.36c3.64,0.93,7.31,0.97,10.94-0.01c3.96-1.07,6.86-3.44,8.06-7.44
		c0.51-1.7,0.76-3.54,0.77-5.32c0.06-14.06,0.03-28.12,0.03-42.17C129.83,64.11,129.8,63.8,129.77,63.45 M155.64,43.89
		c0.04,5.66,3.45,10.01,8.72,11.36c3.64,0.93,7.31,0.97,10.94-0.01c3.96-1.07,6.86-3.44,8.06-7.44c0.51-1.7,0.79-3.54,0.8-5.31
		c0.06-14.06,0-27.29,0-41.35c0-0.31,0-0.53,0-0.98l-9.89,9.33c0,10.8,0,20.77,0,31.57c0,0.81,0,1.62-0.09,2.43
		c-0.24,2.22-1.68,3.6-3.91,3.77c-2.33,0.18-3.99-0.92-4.52-3.14c-0.23-0.95-0.32-1.96-0.32-2.95c-0.02-13.47-0.01-26.11-0.01-39.58
		V0.16h-0.04l-9.78,9.29v5.07C155.6,24.31,155.56,34.1,155.64,43.89 M85.33,0.23l-9.86,9.33v46.47h9.86V0.23z M216.08,63.7
		c-14.85,0.06-18.23,0.06-33.08-0.02c-1.79-0.01-2.2,0.54-2.2,2.25c0.05,17.12,0.03,34.25,0.02,51.37c0,0.64,0,1.29,0,2.04
		c16.33,0,20.95,0.01,37.33,0.01c0-4.62-0.06-9.07,0.04-13.52c0.03-1.56-0.35-2.06-1.99-2.04c-8.09,0.09-6.94,0.03-15.03,0.03
		c-0.64,0-1.29,0-1.91,0c0-1.69,0-3.15,0-4.8c8.88,0,8.37,0.01,17.08,0.01c0-5.03,0-9.87,0-14.89c-8.9,0-8.38-0.01-17.12-0.01
		c0-1.61,0-3.03,0-4.6c0.77,0,1.42,0,2.07,0c8.09,0,6.94-0.02,15.03,0.04c1.39,0.01,1.91-0.33,1.88-1.81
		c-0.1-3.98-0.11-7.96,0.01-11.94C218.26,64.15,217.75,63.7,216.08,63.7 M244.63,85.85c-2.07-0.43-4.15-0.82-6.23-1.22
		c-1.42-0.28-1.88-0.81-1.9-2.28c-0.02-2.23,0-4.45-0.01-6.68c0-0.11-0.04-0.25,0.01-0.33c0.25-0.38,0.52-0.75,0.79-1.12
		c0.23,0.37,0.63,0.73,0.66,1.11c0.09,1.29,0.04,2.6,0.04,3.9c0,1.28,0,2.57,0,3.84h14.16c0-3.07,0.06-6.03-0.01-9
		c-0.11-4.56-2.4-7.74-6.6-9.41c-4.75-1.9-9.68-1.92-14.57-0.61c-5.5,1.47-8.72,5.11-9.12,10.76c-0.29,4.13-0.22,8.32,0.15,12.44
		c0.46,5.15,3.27,8.01,8.31,9.14c1.77,0.4,3.57,0.68,5.37,0.97c1.81,0.29,2.39,0.9,2.4,2.7c0.01,2.56,0,5.12,0,7.68
		c0,0.19,0.06,0.4-0.02,0.55c-0.19,0.35-0.45,0.66-0.68,0.98c-0.28-0.29-0.64-0.55-0.81-0.89c-0.14-0.27-0.06-0.65-0.06-0.99
		c0-2.45,0-4.9,0-7.35c0-0.35-0.04-0.71-0.06-1.1h-14.24c0,4-0.2,7.91,0.05,11.78c0.26,4,2.47,6.86,6.29,8.28
		c4.88,1.82,9.9,1.94,14.91,0.64c5.53-1.43,8.82-5.09,9.28-10.76c0.36-4.5,0.41-9.06,0.12-13.56
		C252.54,89.83,249.77,86.93,244.63,85.85 M159.52,64.72c-0.47,6.01-0.9,12.01-1.4,18.01c-0.54,6.61-1.13,13.21-1.74,19.81
		c-0.04,0.43-0.48,0.83-0.74,1.24c-0.18-0.41-0.48-0.8-0.52-1.22c-1.02-10-2.02-20.01-3.02-30.01c-0.29-2.9-0.59-5.81-0.88-8.74
		h-18.39c1.51,9.87,3,19.64,4.5,29.4c1.26,8.18,2.56,16.36,3.75,24.56c0.18,1.26,0.56,1.64,1.83,1.63
		c8.33-0.06,16.65-0.03,24.98-0.03c0.49,0,0.98-0.05,1.54-0.07c2.8-18.52,5.59-36.94,8.4-55.46h-18.14
		C159.62,64.19,159.54,64.45,159.52,64.72 M75.97,63.63c-3.55,18.59-7.09,37.11-10.63,55.67h10.11c0.54-3.55,1.11-7.02,1.57-10.5
		c0.11-0.86,0.41-1.07,1.23-1.06c3.2,0.06,6.39,0.05,9.59,0.07c0.35,0,0.7,0.04,1.08,0.06c0.47,3.23,0.95,6.34,1.37,9.46
		c0.17,0.96,0.21,1.62,0.32,1.96l8.63-8.46c-2.95-15.79-5.84-31.45-8.8-47.19H75.97z M87.55,99.32h-9.02
		c0.32-2.09,0.61-4.13,0.93-6.18c1.02-6.5,2.06-13,3.08-19.5c0.03-0.18,0.02-0.38,0.09-0.54c0.1-0.21,0.26-0.39,0.4-0.58
		c0.15,0.21,0.4,0.39,0.44,0.62c0.37,1.94,0.73,3.88,1.03,5.83c1.03,6.61,2.03,13.23,3.04,19.85
		C87.57,98.96,87.55,99.11,87.55,99.32"/>
	<path class="st0" d="M62.25,65.29c0.02-1.34-0.54-1.59-1.72-1.59c-15.14,0.03-43.05,0.03-58.19,0c-1.25,0-1.67,0.39-1.67,1.65
		c0.03,17.43,0.04,34.85-0.01,52.28c0,1.44,0.55,1.67,1.81,1.66c5.67-0.06,11.34-0.02,17.02-0.03c0.51,0,1.03-0.09,1.72-0.15V99.7
		h39.26V84.88H21.23v-5.4h1.92c8.21,0,29.17-0.02,37.38,0.02c1.18,0,1.74-0.24,1.72-1.58C62.17,73.71,62.17,69.5,62.25,65.29"/>
	<path class="st0" d="M62.25,65.29c0.02-1.34-0.54-1.59-1.72-1.59c-15.14,0.03-43.05,0.03-58.19,0c-1.25,0-1.67,0.39-1.67,1.65
		c0.03,17.43,0.04,34.85-0.01,52.28c0,1.44,0.55,1.67,1.81,1.66c5.67-0.06,11.34-0.02,17.02-0.03c0.51,0,1.03-0.09,1.72-0.15V99.7
		h39.26V84.88H21.23v-5.4h1.92c8.21,0,29.17-0.02,37.38,0.02c1.18,0,1.74-0.24,1.72-1.58C62.17,73.71,62.17,69.5,62.25,65.29"/>
</g>
</svg>
