<?xml version="1.0" encoding="utf-8"?>
<!-- Generator: Adobe Illustrator 26.0.2, SVG Export Plug-In . SVG Version: 6.00 Build 0)  -->
<svg version="1.1" id="Calque_1" xmlns="http://www.w3.org/2000/svg" xmlns:xlink="http://www.w3.org/1999/xlink" x="0px" y="0px"
	 viewBox="0 0 205.86 46.44" style="enable-background:new 0 0 205.86 46.44;" xml:space="preserve">
<style type="text/css">
	.st0{fill:#FFFFFF;}
</style>
<g>
	<g>
		<path class="st0" d="M101.78,46.44l-3.07-8.08l0.43-0.16c1.36-0.51,2.38-1.12,3.03-1.81c0.64-0.69,1.07-1.47,1.26-2.34
			c0.21-0.91,0.31-2.1,0.31-3.52V1.17h11.21v29.7c0,3.1-0.61,5.71-1.81,7.76c-1.2,2.04-2.74,3.65-4.58,4.78
			c-1.81,1.11-3.95,2.09-6.37,2.89L101.78,46.44z M99.89,38.88l2.44,6.42c2.19-0.76,4.12-1.65,5.77-2.67
			c1.71-1.06,3.15-2.56,4.27-4.47c1.12-1.9,1.69-4.36,1.69-7.29V2.08h-9.39v28.45c0,1.5-0.11,2.75-0.34,3.73
			c-0.23,1.02-0.73,1.95-1.49,2.76C102.16,37.73,101.17,38.36,99.89,38.88z M190.75,37.88c-3.11,0-5.9-0.5-8.27-1.48
			c-2.38-0.98-4.41-2.29-6.04-3.9l-0.31-0.31l5.64-6.2l0.33,0.29c2.54,2.18,5.31,3.29,8.25,3.29c1.32,0,2.32-0.26,2.97-0.78
			c0.62-0.5,0.93-1.13,0.93-1.92c0-0.6-0.13-1.11-0.4-1.5c-0.27-0.4-0.78-0.79-1.5-1.15c-0.77-0.39-1.93-0.81-3.43-1.27
			c-4.1-1.29-7.01-2.87-8.66-4.71c-1.67-1.86-2.52-4.21-2.52-6.98c0-2.26,0.62-4.25,1.84-5.92c1.21-1.66,2.9-2.96,5.01-3.85
			c2.1-0.89,4.49-1.34,7.1-1.34c5.4,0,9.83,1.64,13.17,4.88l0.31,0.3l-5.11,6.01l-0.34-0.28c-2.24-1.79-4.65-2.7-7.17-2.7
			c-1.13,0-1.99,0.19-2.54,0.57c-0.51,0.35-0.75,0.83-0.75,1.48c0,0.49,0.13,0.87,0.41,1.17c0.3,0.33,0.84,0.65,1.59,0.96
			c0.8,0.33,2.13,0.79,3.94,1.39c3.72,1.18,6.45,2.71,8.12,4.53c1.69,1.84,2.54,4.39,2.54,7.56c0,2.32-0.62,4.4-1.86,6.18
			c-1.23,1.78-3,3.19-5.27,4.18C196.49,37.37,193.8,37.88,190.75,37.88z M177.39,32.15c1.5,1.38,3.32,2.53,5.44,3.4
			c2.27,0.94,4.93,1.42,7.93,1.42c2.92,0,5.48-0.48,7.62-1.41c2.11-0.93,3.75-2.23,4.88-3.87c1.12-1.63,1.69-3.54,1.69-5.67
			c0-2.94-0.78-5.27-2.31-6.94c-1.56-1.7-4.16-3.14-7.73-4.27c-1.87-0.61-3.18-1.07-4.01-1.41c-0.89-0.36-1.51-0.75-1.91-1.19
			c-0.43-0.47-0.64-1.07-0.64-1.78c0-0.95,0.39-1.7,1.15-2.22c0.72-0.49,1.72-0.73,3.06-0.73c2.59,0,5.08,0.88,7.39,2.63l3.99-4.69
			c-3.13-2.87-7.24-4.33-12.23-4.33c-2.49,0-4.76,0.43-6.75,1.26c-1.96,0.83-3.52,2.02-4.63,3.55c-1.1,1.51-1.66,3.32-1.66,5.38
			c0,2.54,0.77,4.68,2.28,6.37c1.54,1.71,4.31,3.21,8.25,4.45c1.55,0.47,2.75,0.92,3.57,1.33c0.88,0.44,1.48,0.91,1.85,1.45
			c0.37,0.54,0.55,1.22,0.55,2.01c0,1.07-0.43,1.96-1.27,2.63c-0.81,0.65-2,0.97-3.53,0.97c-3.03,0-5.89-1.08-8.51-3.23
			L177.39,32.15z M81.55,37.88c-5.31,0-9.47-1.69-12.37-5.03c-2.88-3.32-4.34-7.99-4.34-13.87c0-3.82,0.65-7.17,1.94-9.96
			c1.3-2.82,3.23-5.02,5.73-6.55c2.49-1.52,5.54-2.29,9.04-2.29c5.31,0,9.47,1.68,12.37,4.98c2.88,3.29,4.34,7.94,4.34,13.82
			c0,3.82-0.65,7.18-1.94,9.99c-1.3,2.84-3.22,5.06-5.72,6.6C88.1,37.1,85.06,37.88,81.55,37.88z M81.55,1.08
			c-3.33,0-6.21,0.73-8.56,2.16c-2.34,1.43-4.15,3.5-5.37,6.15c-1.23,2.68-1.86,5.9-1.86,9.58c0,5.66,1.38,10.13,4.11,13.28
			c2.71,3.13,6.64,4.72,11.68,4.72c3.33,0,6.21-0.73,8.56-2.18c2.34-1.45,4.15-3.53,5.38-6.2c1.23-2.69,1.86-5.93,1.86-9.61
			c0-5.66-1.38-10.11-4.11-13.23C90.52,2.65,86.59,1.08,81.55,1.08z M167.01,36.88H155.8V9.78h-8.45V1.17h28.67l-1.17,8.61h-7.84
			V36.88z M156.71,35.97h9.39V8.87h7.96l0.93-6.79h-26.73v6.79h8.45V35.97z M144.26,36.88h-23.51V1.17h23.83l-1.18,8.06h-11.44v5.59
			h10.1v7.86h-10.1v6.09h12.3V36.88z M121.66,35.97h21.69v-6.29h-12.3v-7.91h10.1v-6.04h-10.1V8.32h11.56l0.92-6.24h-21.87V35.97z
			 M64.35,36.88H51.88l-6.45-12.4h-1.17v12.4H33.05V1.17h13.2c5.11,0,8.98,0.93,11.52,2.76c2.58,1.87,3.89,4.81,3.89,8.74
			c0,2.25-0.51,4.15-1.53,5.65c-0.94,1.4-2.44,2.72-4.45,3.95L64.35,36.88z M52.43,35.97h10.33l-8.33-14.01l0.4-0.23
			c2.1-1.22,3.63-2.54,4.55-3.91c0.91-1.35,1.37-3.08,1.37-5.15c0-3.63-1.18-6.32-3.51-8.01c-2.38-1.72-6.07-2.59-10.98-2.59h-12.3
			v33.89h9.39v-12.4h2.63L52.43,35.97z M11.21,36.88H0V1.17h13c4.84,0,8.68,1.03,11.4,3.07c2.76,2.06,4.16,5.12,4.16,9.09
			c0,4.09-1.33,7.27-3.94,9.45c-2.59,2.16-6.11,3.26-10.47,3.26h-2.95V36.88z M0.91,35.97h9.39V25.12h3.85
			c4.14,0,7.46-1.02,9.88-3.04c2.4-2,3.61-4.94,3.61-8.75c0-3.66-1.28-6.48-3.79-8.36C21.3,3.05,17.65,2.08,13,2.08H0.91V35.97z
			 M81.55,30.58c-2.14,0-3.71-0.95-4.66-2.82c-0.91-1.8-1.35-4.67-1.35-8.78s0.44-6.97,1.35-8.73c0.95-1.84,2.51-2.77,4.65-2.77
			c2.14,0,3.71,0.93,4.65,2.77c0.91,1.77,1.35,4.62,1.35,8.73c0,4.14-0.43,7.02-1.32,8.8C85.31,29.63,83.73,30.58,81.55,30.58z
			 M81.55,8.38c-1.8,0-3.06,0.75-3.85,2.28c-0.83,1.61-1.25,4.41-1.25,8.32c0,3.91,0.42,6.73,1.25,8.37
			c0.79,1.56,2.05,2.33,3.84,2.33c1.83,0,3.1-0.75,3.87-2.3c0.81-1.63,1.23-4.45,1.23-8.4c0-3.91-0.42-6.71-1.25-8.32
			C84.61,9.12,83.35,8.38,81.55,8.38z M13.15,18.78H10.3V8.32h2.55c3.4,0,5.2,1.73,5.2,5C18.06,17.83,15.39,18.78,13.15,18.78z
			 M11.21,17.87h1.95c2.73,0,4-1.44,4-4.55c0-2.79-1.36-4.1-4.3-4.1h-1.65V17.87z M46.5,17.58h-3.15V8.22H46
			c4.26,0,5.15,2.42,5.15,4.45c0,1.61-0.4,2.85-1.18,3.66C49.2,17.16,48.03,17.58,46.5,17.58z M44.26,16.67h2.25
			c1.27,0,2.21-0.32,2.82-0.96c0.61-0.64,0.92-1.66,0.92-3.04c0-2.42-1.35-3.55-4.25-3.55h-1.75V16.67z"/>
	</g>
</g>
</svg>
