<svg enable-background="new 0 0 37.27 37.27" viewBox="0 0 37.27 37.27" xmlns="http://www.w3.org/2000/svg"><g fill="#fff"><path d="m18.64 11.8c2.22 0 2.49.01 3.37.05.81.04 1.25.17 1.55.29.39.15.67.33.96.62s.47.57.62.96c.12.29.25.73.28 1.55.04.88.05 1.14.05 3.37s-.01 2.49-.05 3.37c-.03.81-.17 1.25-.28 1.55-.15.39-.33.67-.62.96s-.57.47-.96.62c-.29.11-.73.25-1.55.29-.88.04-1.14.05-3.37.05s-2.49-.01-3.37-.05c-.81-.04-1.25-.17-1.55-.29-.39-.15-.67-.33-.96-.62s-.47-.57-.62-.96c-.12-.29-.25-.73-.29-1.55-.04-.88-.05-1.14-.05-3.37s.01-2.49.05-3.37c.04-.81.17-1.25.29-1.55.15-.39.33-.67.62-.96s.57-.47.96-.62c.29-.12.74-.25 1.55-.29.88-.04 1.14-.05 3.37-.05m0-1.5c-2.26 0-2.54.01-3.43.05s-1.49.18-2.02.39c-.55.22-1.01.5-1.48.96-.46.46-.75.93-.96 1.47-.21.53-.35 1.13-.39 2.02s-.05 1.17-.05 3.44c0 2.26.01 2.55.05 3.43.04.89.18 1.49.39 2.02.21.55.5 1.01.96 1.47.47.47.93.75 1.48.96.53.2 1.14.35 2.02.39.89.04 1.17.05 3.43.05s2.55-.01 3.44-.05c.88-.04 1.49-.18 2.02-.39.55-.21 1.01-.5 1.48-.96.46-.46.75-.93.96-1.47.21-.53.35-1.14.39-2.02.04-.89.05-1.17.05-3.43s-.01-2.55-.05-3.44-.18-1.49-.39-2.02c-.21-.55-.5-1.01-.96-1.47-.47-.47-.93-.75-1.48-.96-.53-.2-1.14-.35-2.02-.39-.9-.04-1.18-.05-3.44-.05"/><path d="m18.64 14.36c-2.36 0-4.28 1.92-4.28 4.28s1.91 4.28 4.28 4.28 4.28-1.91 4.28-4.28-1.92-4.28-4.28-4.28m0 7.05c-1.53 0-2.78-1.24-2.78-2.78s1.24-2.78 2.78-2.78 2.78 1.24 2.78 2.78c-.01 1.54-1.25 2.78-2.78 2.78"/><path d="m24.08 14.19c0 .55-.45 1-1 1s-1-.45-1-1 .45-1 1-1c.56 0 1 .45 1 1"/><path d="m18.64 37.27c-10.28 0-18.64-8.36-18.64-18.63 0-10.28 8.36-18.64 18.64-18.64s18.64 8.36 18.64 18.64c-.01 10.27-8.37 18.63-18.64 18.63zm0-36.47c-9.84 0-17.84 8-17.84 17.84 0 9.83 8 17.83 17.84 17.83s17.84-8 17.84-17.83c-.01-9.84-8.01-17.84-17.84-17.84z"/></g></svg>