<?xml version="1.0" encoding="utf-8"?>
<!-- Generator: Adobe Illustrator 26.1.0, SVG Export Plug-In . SVG Version: 6.00 Build 0)  -->
<svg version="1.1" id="Calque_1" xmlns="http://www.w3.org/2000/svg" xmlns:xlink="http://www.w3.org/1999/xlink" x="0px" y="0px"
	 viewBox="0 0 472.6 227.6" style="enable-background:new 0 0 472.6 227.6;" xml:space="preserve">
<style type="text/css">
	.st0{fill:none;stroke:#FFFFFF;stroke-width:2;stroke-miterlimit:10;}
</style>
<g>
	<path class="st0" d="M284.4,90.7h-95V61h83.6c4.8-8,5.3-8.7,8.9-15.5h-92.5V18.3h85.8c5.2-9.1,5.4-9.1,8.9-15.7H171v103.9h104.5
		C281,96.5,280.3,97.4,284.4,90.7z M1.1,102.7v3.7h124V61.8H75.9v-4.4c0-22.2,0-28.7,0.1-50.8c0-3-0.7-4.1-3.9-4
		C61.9,2.7,15.1,2.7,5,2.5c-3.1-0.1-4,0.9-4,4C1.1,38.5,1.1,70.6,1.1,102.7z M471.5,106.4c-0.1-0.8-0.2-1.4-0.4-1.9
		c-3.3-13.5-6.8-31.1-9.7-44.7c-0.9-4.2-1.4-4.7-0.7-8.8c1.5-9.6,4-19.1,6.1-28.6c1.4-6.5,2.9-13.5,4.3-20l-54.6,0
		c-0.5,0-1.7,0-2.1,0c-0.1,0-0.3,2-0.4,2.4c-1.1,10.1-2,20.3-3,30.5c-0.1,0.9-0.9,1.7-1.4,2.5c-0.5-0.8-1.5-1.6-1.6-2.5
		c-0.5-4.4-0.6-8.9-1-13.4c-0.6-6.5-1.5-13.1-2.2-19.6h-56.9c0.2,1.1,0.4,2,0.6,2.7c3,13.7,6.1,27.3,9,41c0.7,3.1,1.7,6.4,1.2,9.4
		c-2.1,11.4-4.9,22.6-7.4,33.9c-1.2,5.4-3,13.9-3.6,16.8h1.5c17.8,0,35.5,0.1,53.3,0c0.4,0,2.1,0,2.1,0c0.1-1.2,0.2-2,0.3-2.4
		c0.5-4.2,0.9-8.4,1.4-12.5c0.7-6.3,1.3-12.6,2.1-18.9c0.1-0.8,1.2-1.4,2-2.3c1.5,12.6,3,24.5,4.4,36.2L471.5,106.4z M241.6,120.2
		l-18.3,17.4c0,20.1,0,40.2,0,60.3c0,1.5,0,3-0.2,4.5c-0.4,4.2-3.1,6.7-7.3,7c-4.3,0.3-7.4-1.7-8.4-5.9c-0.4-1.8-0.6-3.7-0.6-5.5
		c0-25.1,0-50.2,0-75.3v-2.7h-0.1l-18.2,17.3c0,3.7,0,7.3,0,11c0,18.2-0.1,36.5,0.1,54.7c0.1,10.5,6.4,18.6,16.3,21.2
		c6.8,1.7,13.6,1.8,20.4,0c7.4-2,12.8-6.4,15-13.9c1-3.2,1.4-6.6,1.4-9.9c0.1-26.2,0.1-52.4,0.1-78.6
		C241.7,121.5,241.6,120.9,241.6,120.2z M289.8,83.8c0.1,10.5,6.4,18.6,16.3,21.2c6.8,1.7,13.6,1.8,20.4,0c7.4-2,12.8-6.4,15-13.9
		c1-3.2,1.5-6.6,1.5-9.9c0.1-26.2,0-50.8,0-77c0-0.6,0-1,0-1.8l-18.4,17.4c0,20.1,0,38.7,0,58.8c0,1.5,0,3-0.2,4.5
		c-0.4,4.1-3.1,6.7-7.3,7c-4.3,0.3-7.4-1.7-8.4-5.8c-0.4-1.8-0.6-3.7-0.6-5.5c0-25.1,0-48.7,0-73.7V2.3h-0.1l-18.2,17.3v9.4
		C289.7,47.3,289.6,65.6,289.8,83.8z M158.8,2.4l-18.4,17.4v86.6h18.4V2.4z M402.4,120.7c-27.7,0.1-34,0.1-61.6,0
		c-3.3,0-4.1,1-4.1,4.2c0.1,31.9,0,63.8,0,95.7c0,1.2,0,2.4,0,3.8c30.4,0,39,0,69.6,0c0-8.6-0.1-16.9,0.1-25.2
		c0.1-2.9-0.7-3.8-3.7-3.8c-15.1,0.2-12.9,0.1-28,0.1c-1.2,0-2.4,0-3.6,0c0-3.2,0-5.9,0-8.9c16.5,0,15.6,0,31.8,0
		c0-9.4,0-18.4,0-27.7c-16.6,0-15.6,0-31.9,0c0-3,0-5.6,0-8.6c1.4,0,2.6,0,3.9,0c15.1,0,12.9,0,28,0.1c2.6,0,3.6-0.6,3.5-3.4
		c-0.2-7.4-0.2-14.8,0-22.2C406.4,121.5,405.5,120.7,402.4,120.7z M455.6,162c-3.9-0.8-7.7-1.5-11.6-2.3c-2.6-0.5-3.5-1.5-3.5-4.2
		c0-4.1,0-8.3,0-12.4c0-0.2-0.1-0.5,0-0.6c0.5-0.7,1-1.4,1.5-2.1c0.4,0.7,1.2,1.4,1.2,2.1c0.2,2.4,0.1,4.8,0.1,7.3
		c0,2.4,0,4.8,0,7.2h26.4c0-5.7,0.1-11.2,0-16.8c-0.2-8.5-4.5-14.4-12.3-17.5c-8.9-3.5-18-3.6-27.1-1.1c-10.2,2.7-16.2,9.5-17,20
		c-0.5,7.7-0.4,15.5,0.3,23.2c0.9,9.6,6.1,14.9,15.5,17c3.3,0.7,6.7,1.3,10,1.8c3.4,0.5,4.5,1.7,4.5,5c0,4.8,0,9.5,0,14.3
		c0,0.3,0.1,0.8,0,1c-0.4,0.6-0.8,1.2-1.3,1.8c-0.5-0.5-1.2-1-1.5-1.7c-0.3-0.5-0.1-1.2-0.1-1.8c0-4.6,0-9.1,0-13.7
		c0-0.7-0.1-1.3-0.1-2.1h-26.5c0,7.5-0.4,14.7,0.1,21.9c0.5,7.4,4.6,12.8,11.7,15.4c9.1,3.4,18.5,3.6,27.8,1.2
		c10.3-2.7,16.4-9.5,17.3-20.1c0.7-8.4,0.8-16.9,0.2-25.3C470.3,169.4,465.1,164,455.6,162z M297,122.6c-0.9,11.2-1.7,22.4-2.6,33.6
		c-1,12.3-2.1,24.6-3.2,36.9c-0.1,0.8-0.9,1.5-1.4,2.3c-0.3-0.8-0.9-1.5-1-2.3c-1.9-18.6-3.8-37.3-5.6-55.9
		c-0.5-5.4-1.1-10.8-1.6-16.3h-34.3c2.8,18.4,5.6,36.6,8.4,54.8c2.3,15.2,4.8,30.5,7,45.8c0.3,2.4,1,3,3.4,3
		c15.5-0.1,31-0.1,46.5-0.1c0.9,0,1.8-0.1,2.9-0.1c5.2-34.5,10.4-68.8,15.6-103.3h-33.8C297.2,121.6,297,122.1,297,122.6z
		 M141.3,120.6c-6.6,34.6-13.2,69.1-19.8,103.7h18.8c1-6.6,2.1-13.1,2.9-19.6c0.2-1.6,0.8-2,2.3-2c6,0.1,11.9,0.1,17.9,0.1
		c0.7,0,1.3,0.1,2,0.1c0.9,6,1.8,11.8,2.6,17.6c0.3,1.8,0.4,3,0.6,3.6l16.1-15.8c-5.5-29.4-10.9-58.6-16.4-87.9H141.3z M162.9,187.1
		h-16.8c0.6-3.9,1.1-7.7,1.7-11.5c1.9-12.1,3.8-24.2,5.7-36.3c0.1-0.3,0-0.7,0.2-1c0.2-0.4,0.5-0.7,0.7-1.1c0.3,0.4,0.7,0.7,0.8,1.1
		c0.7,3.6,1.4,7.2,1.9,10.9c1.9,12.3,3.8,24.7,5.7,37C163,186.4,162.9,186.7,162.9,187.1z"/>
	<path class="st0" d="M115.8,123.7c0-2.5-1-3-3.2-3c-28.2,0.1-80.2,0.1-108.4,0c-2.3,0-3.1,0.7-3.1,3.1c0.1,32.5,0.1,64.9,0,97.4
		c0,2.7,1,3.1,3.4,3.1c10.6-0.1,21.1,0,31.7-0.1c1,0,1.9-0.2,3.2-0.3v-36.2h73.1v-27.6H39.4v-10.1h3.6c15.3,0,54.4,0,69.6,0
		c2.2,0,3.2-0.5,3.2-2.9C115.6,139.3,115.6,131.5,115.8,123.7"/>
	<path class="st0" d="M115.8,123.7c0-2.5-1-3-3.2-3c-28.2,0.1-80.2,0.1-108.4,0c-2.3,0-3.1,0.7-3.1,3.1c0.1,32.5,0.1,64.9,0,97.4
		c0,2.7,1,3.1,3.4,3.1c10.6-0.1,21.1,0,31.7-0.1c1,0,1.9-0.2,3.2-0.3v-36.2h73.1v-27.6H39.4v-10.1h3.6c15.3,0,54.4,0,69.6,0
		c2.2,0,3.2-0.5,3.2-2.9C115.6,139.3,115.6,131.5,115.8,123.7z"/>
</g>
</svg>
