<?xml version="1.0" encoding="utf-8"?>
<!-- Generator: Adobe Illustrator 26.1.0, SVG Export Plug-In . SVG Version: 6.00 Build 0)  -->
<svg version="1.1" id="Calque_1" xmlns="http://www.w3.org/2000/svg" xmlns:xlink="http://www.w3.org/1999/xlink" x="0px" y="0px"
	 viewBox="0 0 112.4 120.6" style="enable-background:new 0 0 112.4 120.6;" xml:space="preserve">
<style type="text/css">
	.st0{fill:#02534E;}
</style>
<g>
	<path class="st0" d="M93.1,115.6h-2.7c0.1-0.7,0.2-1.2,0.4-1.5s0.5-0.4,0.9-0.4C92.7,113.7,93.1,114.3,93.1,115.6L93.1,115.6z
		 M95.5,116.2c0-1.3-0.3-2.3-1-3c-0.7-0.7-1.6-1.1-2.7-1.1c-0.8,0-1.4,0.2-2,0.6s-1,0.9-1.3,1.5c-0.3,0.6-0.4,1.4-0.4,2.2
		c0,1.3,0.3,2.3,1,3.1c0.7,0.8,1.7,1.1,3,1.1c1.1,0,2.2-0.4,3.1-1.1l-1-1.3c-0.3,0.2-0.7,0.4-1,0.5c-0.3,0.1-0.6,0.2-0.9,0.2
		c-0.5,0-0.9-0.1-1.2-0.4s-0.5-0.7-0.6-1.4h4.9C95.5,116.8,95.5,116.5,95.5,116.2 M86.3,120.5c0.5,0,1-0.1,1.4-0.3l-0.5-1.7
		c-0.1,0.1-0.2,0.1-0.4,0.1c-0.3,0-0.4-0.2-0.4-0.5v-9.2l-2.4,0.2v9.1c0,0.7,0.2,1.3,0.6,1.7C85.1,120.3,85.6,120.5,86.3,120.5
		 M78.8,118.8c-0.2,0-0.5-0.1-0.7-0.2c-0.2-0.1-0.4-0.3-0.6-0.6v-3.3c0.4-0.6,0.8-0.9,1.3-0.9c0.4,0,0.7,0.2,1,0.5s0.3,1,0.3,2
		C80.2,118,79.8,118.8,78.8,118.8 M79.7,112.1c-0.4,0-0.8,0.1-1.2,0.3s-0.7,0.4-0.9,0.8v-4.2l-2.4,0.2v11.1h2.1l0.1-0.8
		c0.2,0.3,0.6,0.6,0.9,0.8c0.3,0.2,0.8,0.3,1.2,0.3c0.7,0,1.2-0.2,1.7-0.5c0.5-0.4,0.8-0.9,1.1-1.5s0.4-1.4,0.4-2.2
		c0-1.3-0.2-2.4-0.8-3.1C81.4,112.5,80.7,112.1,79.7,112.1 M69.8,118.9c-0.3,0-0.5-0.1-0.7-0.3s-0.2-0.4-0.2-0.7
		c0-0.4,0.1-0.7,0.4-0.9s0.7-0.3,1.2-0.3H71v1.4C70.7,118.6,70.3,118.9,69.8,118.9 M73.3,118v-3.1c0-0.9-0.3-1.6-0.8-2.1
		s-1.4-0.7-2.5-0.7c-0.4,0-0.9,0.1-1.5,0.2s-1,0.2-1.5,0.4l0.5,1.6c0.4-0.1,0.8-0.2,1.1-0.3s0.7-0.1,0.9-0.1c0.5,0,0.8,0.1,1.1,0.3
		s0.3,0.5,0.3,1v0.3h-0.8c-1.2,0-2.1,0.2-2.8,0.7s-1,1.1-1,2c0,0.7,0.2,1.3,0.7,1.8s1.1,0.7,1.9,0.7c1.1,0,1.9-0.4,2.4-1.2
		c0.2,0.4,0.4,0.7,0.7,0.8s0.7,0.3,1.2,0.3l0.5-1.5c-0.2-0.1-0.3-0.2-0.4-0.3C73.4,118.5,73.3,118.3,73.3,118 M63,112.1
		c-0.5,0-0.9,0.1-1.3,0.3c-0.4,0.2-0.8,0.5-1.1,0.9l-0.2-0.9h-2.1v7.9h2.4v-5.4c0.4-0.7,0.9-1,1.4-1c0.2,0,0.4,0.1,0.6,0.2
		s0.2,0.4,0.2,0.8v5.4h2.4v-5.8c0-0.8-0.2-1.3-0.6-1.8S63.7,112.1,63,112.1 M54.7,115.6h-2.7c0-0.7,0.2-1.2,0.4-1.5s0.5-0.4,1-0.4
		C54.3,113.7,54.7,114.3,54.7,115.6L54.7,115.6z M57,116.2c0-1.3-0.3-2.3-1-3c-0.7-0.7-1.5-1.1-2.7-1.1c-0.8,0-1.5,0.2-2,0.6
		s-1,0.9-1.3,1.5c-0.3,0.6-0.4,1.4-0.4,2.2c0,1.3,0.3,2.3,1,3.1c0.7,0.8,1.7,1.1,3,1.1c1.1,0,2.2-0.4,3.1-1.1l-1-1.3
		c-0.3,0.2-0.7,0.4-1,0.5c-0.3,0.1-0.6,0.2-0.9,0.2c-0.5,0-0.9-0.1-1.2-0.4s-0.5-0.7-0.6-1.4H57C57,116.8,57,116.5,57,116.2
		 M48.8,118.4c-0.3,0.2-0.6,0.2-0.8,0.2c-0.3,0-0.5-0.1-0.6-0.2s-0.2-0.4-0.2-0.8V114h1.6l0.2-1.7h-1.8v-2l-2.4,0.3v1.7h-1.1v1.7
		h1.1v3.7c0,1.9,0.9,2.9,2.6,2.9c0.4,0,0.8-0.1,1.2-0.2c0.4-0.1,0.7-0.3,1-0.5L48.8,118.4z M42.7,112.3h-2.4v5.5
		c-0.4,0.6-0.8,0.9-1.3,0.9c-0.3,0-0.5-0.1-0.6-0.2c-0.1-0.2-0.2-0.4-0.2-0.8v-5.4h-2.4v5.7c0,0.8,0.2,1.4,0.6,1.8s0.9,0.7,1.7,0.7
		c1,0,1.8-0.4,2.4-1.3l0.1,1h2L42.7,112.3L42.7,112.3z M30.7,113.8c0.5,0,0.9,0.2,1.1,0.6c0.2,0.4,0.4,1,0.4,1.9
		c0,0.8-0.1,1.5-0.4,1.9s-0.6,0.6-1.1,0.6c-0.5,0-0.9-0.2-1.1-0.6s-0.4-1-0.4-1.9c0-0.8,0.1-1.5,0.4-1.9S30.3,113.8,30.7,113.8
		 M30.7,112.1c-0.8,0-1.5,0.2-2.1,0.5s-1,0.8-1.4,1.5c-0.3,0.6-0.5,1.4-0.5,2.2c0,1.3,0.4,2.4,1,3.1s1.6,1.1,2.9,1.1
		c0.8,0,1.5-0.2,2.1-0.5s1-0.8,1.3-1.5c0.3-0.6,0.5-1.4,0.5-2.2c0-1.3-0.3-2.4-1-3.1S32,112.1,30.7,112.1 M22.1,109.7
		c-0.7,0-1.4,0.1-1.9,0.4c-0.6,0.2-1,0.6-1.3,1.1c-0.3,0.4-0.5,1-0.5,1.6c0,0.8,0.2,1.4,0.7,1.9c0.5,0.5,1.3,0.9,2.5,1.3
		c0.5,0.2,0.9,0.3,1.2,0.4s0.5,0.3,0.6,0.5s0.2,0.4,0.2,0.7c0,0.4-0.1,0.7-0.4,0.9c-0.3,0.2-0.7,0.3-1.2,0.3c-0.5,0-1-0.1-1.4-0.2
		c-0.4-0.2-0.8-0.4-1.2-0.8l-1.2,1.4c0.5,0.4,1,0.8,1.7,1.1c0.6,0.3,1.4,0.4,2.2,0.4c0.9,0,1.6-0.1,2.2-0.4c0.6-0.3,1.1-0.7,1.4-1.2
		s0.5-1.1,0.5-1.7c0-0.9-0.2-1.6-0.8-2.1s-1.3-0.9-2.3-1.2c-0.6-0.2-1-0.3-1.3-0.5s-0.5-0.3-0.6-0.4s-0.2-0.3-0.2-0.6
		c0-0.3,0.1-0.6,0.4-0.8c0.2-0.2,0.6-0.3,1-0.3c0.8,0,1.6,0.3,2.3,0.9l1.1-1.4c-0.5-0.4-1-0.8-1.6-1
		C23.6,109.8,22.9,109.7,22.1,109.7 M13.6,118.4c-0.3,0.2-0.6,0.2-0.9,0.2c-0.3,0-0.4-0.1-0.6-0.2S12,118,12,117.6V114h1.6l0.2-1.7
		H12v-2l-2.4,0.3v1.7H8.5v1.7h1.1v3.7c0,1.9,0.9,2.9,2.6,2.9c0.4,0,0.8-0.1,1.1-0.2c0.4-0.1,0.7-0.3,1-0.5L13.6,118.4z M5.7,115.6
		H3.1c0-0.7,0.2-1.2,0.4-1.5s0.5-0.4,1-0.4C5.3,113.7,5.7,114.3,5.7,115.6L5.7,115.6z M8.1,116.2c0-1.3-0.3-2.3-1-3
		c-0.7-0.7-1.6-1.1-2.7-1.1c-0.8,0-1.5,0.2-2,0.6s-1,0.9-1.3,1.5c-0.3,0.6-0.4,1.4-0.4,2.2c0,1.3,0.3,2.3,1,3.1
		c0.7,0.8,1.7,1.1,3,1.1c1.1,0,2.2-0.4,3.1-1.1l-1-1.3c-0.3,0.2-0.7,0.4-1,0.5c-0.3,0.1-0.6,0.2-0.9,0.2c-0.5,0-0.9-0.1-1.2-0.4
		s-0.5-0.7-0.6-1.4H8C8,116.8,8.1,116.5,8.1,116.2"/>
	<path class="st0" d="M49.5,97.6h-2.7c0-0.7,0.2-1.2,0.4-1.5s0.5-0.4,1-0.4C49.1,95.7,49.5,96.3,49.5,97.6L49.5,97.6z M51.9,98.2
		c0-1.3-0.3-2.3-1-3s-1.5-1.1-2.7-1.1c-0.8,0-1.5,0.2-2,0.6s-1,0.9-1.3,1.5c-0.3,0.6-0.4,1.4-0.4,2.2c0,1.3,0.3,2.3,1,3.1
		s1.7,1.1,3,1.1c1.1,0,2.2-0.4,3.1-1.1l-1-1.3c-0.3,0.2-0.7,0.4-1,0.5c-0.3,0.1-0.6,0.2-0.9,0.2c-0.5,0-0.9-0.1-1.2-0.4
		S47,99.7,46.9,99h4.9C51.8,98.8,51.9,98.5,51.9,98.2 M43.1,94.4h-2.4v5.5c-0.4,0.6-0.8,0.9-1.3,0.9c-0.3,0-0.5-0.1-0.6-0.2
		c-0.1-0.2-0.2-0.4-0.2-0.8v-5.4h-2.4v5.7c0,0.8,0.2,1.4,0.6,1.8s0.9,0.7,1.7,0.7c1,0,1.8-0.4,2.4-1.3l0.1,1h2L43.1,94.4L43.1,94.4z
		 M30.8,100.8c-0.4,0-0.7-0.2-1-0.6c-0.2-0.4-0.3-1-0.3-1.9c0-0.9,0.1-1.5,0.4-1.9s0.6-0.6,1.1-0.6c0.2,0,0.5,0.1,0.7,0.2
		c0.2,0.1,0.4,0.3,0.6,0.5v3.4C31.8,100.5,31.3,100.8,30.8,100.8 M32.4,94.4l-0.1,0.7c-0.6-0.6-1.2-0.9-2-0.9
		c-0.6,0-1.2,0.2-1.7,0.5c-0.5,0.4-0.9,0.9-1.1,1.5S27,97.5,27,98.3c0,1.3,0.3,2.4,0.8,3.1c0.5,0.8,1.3,1.1,2.2,1.1
		c0.9,0,1.6-0.3,2.1-1v3.8l2.4,0.2V94.4H32.4z M24.3,90.2c-0.4,0-0.7,0.1-1,0.4s-0.4,0.6-0.4,1s0.1,0.7,0.4,1c0.3,0.2,0.6,0.4,1,0.4
		s0.8-0.1,1-0.4s0.4-0.6,0.4-1s-0.1-0.7-0.4-1C25.1,90.3,24.7,90.2,24.3,90.2 M23.1,102.3h2.4v-7.9h-2.4L23.1,102.3z M19.2,94.1
		c-0.5,0-0.9,0.1-1.2,0.3s-0.7,0.5-1,0.8V91l-2.4,0.2v11.1h2.4v-5.4c0.4-0.7,0.9-1,1.4-1c0.2,0,0.4,0.1,0.5,0.2s0.2,0.4,0.2,0.8v5.4
		h2.4v-5.8c0-0.8-0.2-1.3-0.6-1.8S19.9,94.1,19.2,94.1 M12.9,100.5c-0.3,0.2-0.6,0.2-0.9,0.2c-0.3,0-0.4-0.1-0.6-0.2
		s-0.2-0.4-0.2-0.8V96h1.6l0.2-1.7h-1.8v-2l-2.4,0.3v1.7H7.8V96h1.1v3.7c0,1.9,0.9,2.9,2.6,2.9c0.4,0,0.8-0.1,1.1-0.2
		c0.4-0.1,0.7-0.3,1-0.5L12.9,100.5z M2.3,89.9l0.6,1.2l3.6-1.3L5.6,88L2.3,89.9z M1.2,92v10.4h6.4v-1.8H3.6v-2.7h3.2v-1.7H3.6v-2.5
		h3.7L7.5,92H1.2z"/>
	<path class="st0" d="M44.8,81.9c-0.4,0-0.7,0.1-1,0.4s-0.4,0.6-0.4,1c0,0.2,0,0.4,0.2,0.6s0.2,0.4,0.4,0.5L43.4,87h1.3l0.9-2.2
		c0.2-0.4,0.3-0.7,0.4-0.9s0.1-0.4,0.1-0.7c0-0.4-0.1-0.7-0.4-1C45.5,82,45.2,81.9,44.8,81.9 M42.3,82.5c-0.3,0.2-0.6,0.2-0.8,0.2
		c-0.3,0-0.5-0.1-0.6-0.2s-0.2-0.4-0.2-0.8V78h1.6l0.2-1.7h-1.8v-2l-2.4,0.3v1.7h-1.1V78h1.1v3.7c0,1.9,0.9,2.9,2.6,2.9
		c0.4,0,0.8-0.1,1.2-0.2c0.4-0.1,0.7-0.3,1-0.5L42.3,82.5z M34.1,76.1c-0.5,0-0.9,0.1-1.3,0.3c-0.4,0.2-0.8,0.5-1.1,0.9l-0.2-0.9
		h-2.1v7.9h2.4v-5.4c0.4-0.7,0.9-1,1.4-1c0.2,0,0.4,0.1,0.6,0.2s0.2,0.4,0.2,0.8v5.4h2.4v-5.8c0-0.8-0.2-1.3-0.6-1.8
		S34.8,76.2,34.1,76.1 M24,82.9c-0.3,0-0.5-0.1-0.7-0.3S23,82.2,23,81.9c0-0.4,0.1-0.7,0.4-0.9c0.3-0.2,0.7-0.3,1.2-0.3h0.6v1.4
		C24.9,82.7,24.5,82.9,24,82.9 M27.5,82.1V79c0-0.9-0.3-1.6-0.8-2.1s-1.4-0.7-2.5-0.7c-0.5,0-0.9,0.1-1.5,0.2s-1,0.2-1.5,0.4
		l0.5,1.6c0.4-0.1,0.8-0.2,1.1-0.3c0.4-0.1,0.7-0.1,0.9-0.1c0.5,0,0.9,0.1,1,0.3s0.3,0.5,0.3,1v0.3h-0.8c-1.2,0-2.1,0.2-2.8,0.7
		s-1,1.1-1,2c0,0.7,0.2,1.3,0.7,1.8s1.1,0.7,1.9,0.7c1.1,0,1.9-0.4,2.4-1.2c0.2,0.4,0.4,0.7,0.7,0.8s0.7,0.3,1.2,0.3l0.5-1.5
		c-0.2-0.1-0.3-0.2-0.4-0.3C27.6,82.6,27.5,82.4,27.5,82.1 M18.3,76.4l-1.5,6.2l-1.4-6.2h-2.6l2.6,7.9h2.8l2.5-7.9H18.3z M10.8,72.2
		c-0.4,0-0.7,0.1-1,0.4s-0.4,0.6-0.4,1s0.1,0.7,0.4,1c0.3,0.2,0.6,0.4,1,0.4s0.8-0.1,1-0.4s0.4-0.6,0.4-1s-0.1-0.7-0.4-1
		C11.6,72.3,11.2,72.2,10.8,72.2 M9.7,84.4H12v-8H9.7V84.4z M6.4,74l-1.9,8.5l-2-8.5H0l3,10.4H6L8.9,74H6.4z"/>
	<path class="st0" d="M109.6,61.7h-2.7c0.1-0.7,0.2-1.2,0.4-1.5s0.5-0.5,0.9-0.5C109.1,59.8,109.6,60.4,109.6,61.7L109.6,61.7z
		 M111.9,62.2c0-1.3-0.3-2.3-1-3c-0.7-0.7-1.6-1.1-2.7-1.1c-0.8,0-1.4,0.2-2,0.6s-1,0.9-1.3,1.5c-0.3,0.6-0.4,1.4-0.4,2.2
		c0,1.3,0.3,2.3,1,3.1c0.7,0.8,1.7,1.1,3,1.1c1.1,0,2.2-0.4,3.1-1.1l-1-1.3c-0.3,0.2-0.7,0.4-1,0.5c-0.3,0.1-0.6,0.2-0.9,0.2
		c-0.5,0-0.9-0.1-1.2-0.4s-0.5-0.7-0.6-1.4h4.9C111.9,62.9,111.9,62.6,111.9,62.2 M101.1,58.2c-0.5,0-0.9,0.1-1.3,0.3
		c-0.4,0.2-0.7,0.5-1.1,1c-0.2-0.4-0.4-0.7-0.7-0.9s-0.7-0.3-1.2-0.3c-0.5,0-0.9,0.1-1.3,0.3s-0.7,0.5-1,0.9l-0.2-0.9h-2.1v8h2.4
		v-5.4c0.2-0.3,0.4-0.6,0.6-0.8c0.2-0.2,0.4-0.3,0.7-0.3c0.4,0,0.7,0.3,0.7,1.1v5.4h2.4v-5.4c0.2-0.3,0.4-0.6,0.6-0.8
		s0.4-0.2,0.7-0.2c0.4,0,0.7,0.3,0.7,1.1v5.4h2.4v-5.8c0-0.8-0.2-1.3-0.6-1.8C102.2,58.4,101.7,58.2,101.1,58.2 M87.9,58.2
		c-0.7,0-1.2,0.1-1.7,0.3c-0.5,0.2-0.9,0.5-1.1,0.9c-0.3,0.4-0.4,0.8-0.4,1.2c0,0.6,0.2,1.1,0.6,1.5s1,0.7,1.8,1
		c0.5,0.1,0.9,0.3,1.1,0.3s0.4,0.2,0.5,0.3s0.1,0.3,0.1,0.4c0,0.2-0.1,0.4-0.3,0.6c-0.2,0.1-0.5,0.2-0.8,0.2c-0.7,0-1.4-0.3-2.1-0.8
		l-1.2,1.3c0.4,0.4,0.9,0.7,1.5,0.9s1.2,0.3,1.9,0.3s1.3-0.1,1.8-0.3s1-0.5,1.3-0.9c0.3-0.4,0.5-0.9,0.5-1.4c0-0.7-0.2-1.2-0.6-1.6
		c-0.4-0.4-1-0.7-1.8-0.9c-0.5-0.1-0.8-0.3-1.1-0.4s-0.4-0.2-0.5-0.3S87,60.6,87,60.5c0-0.2,0.1-0.3,0.2-0.4
		c0.2-0.1,0.4-0.2,0.7-0.2c0.7,0,1.3,0.2,2,0.6l0.9-1.3c-0.4-0.3-0.8-0.5-1.3-0.7C89,58.3,88.5,58.2,87.9,58.2 M82,54.2
		c-0.4,0-0.7,0.1-1,0.4s-0.4,0.6-0.4,1s0.1,0.7,0.4,1c0.3,0.2,0.6,0.4,1,0.4s0.8-0.1,1-0.4s0.4-0.6,0.4-1s-0.1-0.7-0.4-1
		C82.8,54.4,82.4,54.2,82,54.2 M80.9,66.4h2.4v-8h-2.4V66.4z M76.9,58.2c-0.5,0-0.9,0.1-1.3,0.3c-0.4,0.2-0.8,0.5-1.1,0.9l-0.2-0.9
		h-2.1v8h2.4V61c0.4-0.7,0.9-1,1.4-1c0.2,0,0.4,0.1,0.6,0.2s0.2,0.4,0.2,0.8v5.4h2.4v-5.8c0-0.8-0.2-1.3-0.6-1.8
		C78.1,58.4,77.6,58.2,76.9,58.2 M66.8,65c-0.3,0-0.5-0.1-0.7-0.3s-0.2-0.4-0.2-0.7c0-0.4,0.1-0.7,0.4-0.9c0.3-0.2,0.7-0.3,1.2-0.3
		H68v1.4C67.7,64.7,67.3,65,66.8,65 M70.3,64.1V61c0-0.9-0.3-1.6-0.8-2.1s-1.4-0.7-2.5-0.7c-0.4,0-0.9,0-1.5,0.2s-1,0.2-1.5,0.4
		l0.5,1.6c0.4-0.1,0.8-0.2,1.1-0.3s0.7-0.1,0.9-0.1c0.5,0,0.8,0.1,1.1,0.3s0.3,0.5,0.3,1v0.3h-0.8c-1.2,0-2.1,0.2-2.8,0.7
		s-1,1.1-1,2c0,0.7,0.2,1.3,0.7,1.8c0.5,0.5,1.1,0.7,1.9,0.7c1.1,0,1.9-0.4,2.4-1.2c0.2,0.4,0.4,0.7,0.7,0.8s0.7,0.3,1.2,0.3
		l0.5-1.5c-0.2-0.1-0.3-0.2-0.4-0.3C70.4,64.6,70.3,64.4,70.3,64.1 M58.8,64.9c-0.2,0-0.5-0.1-0.7-0.2c-0.2-0.1-0.4-0.3-0.5-0.6
		v-3.3c0.4-0.6,0.8-0.9,1.3-0.9c0.4,0,0.7,0.2,1,0.5s0.3,1,0.3,2C60.2,64.1,59.8,64.9,58.8,64.9 M59.7,58.2c-0.4,0-0.8,0.1-1.2,0.3
		s-0.7,0.5-0.9,0.8V55l-2.4,0.2v11.1h2.1l0.1-0.8c0.2,0.3,0.5,0.6,0.9,0.8c0.3,0.2,0.8,0.3,1.2,0.3c0.7,0,1.2-0.2,1.7-0.5
		s0.8-0.9,1.1-1.5s0.4-1.4,0.4-2.2c0-1.3-0.2-2.4-0.8-3.1C61.4,58.6,60.7,58.2,59.7,58.2 M53.5,58.2c-0.5,0-0.9,0.2-1.2,0.5
		c-0.4,0.3-0.6,0.8-0.8,1.3l-0.2-1.5h-2.1v7.9h2.4v-3.9c0.1-0.7,0.3-1.1,0.6-1.5c0.2-0.3,0.6-0.5,1.1-0.5c0.2,0,0.4,0,0.7,0.1
		l0.4-2.3C54.1,58.2,53.8,58.2,53.5,58.2 M47.5,56H45v6.8c0,0.7-0.1,1.2-0.4,1.5s-0.7,0.5-1.2,0.5c-0.5,0-1-0.2-1.2-0.5
		c-0.2-0.3-0.4-0.8-0.4-1.5V56h-2.5v6.9c0,1.1,0.3,2,1,2.7s1.7,1,3,1c0.9,0,1.6-0.2,2.2-0.5s1.1-0.8,1.4-1.3s0.5-1.2,0.5-1.9
		L47.5,56L47.5,56z M31.9,58.2c-0.5,0-0.9,0.1-1.3,0.3c-0.4,0.2-0.8,0.5-1.1,0.9l-0.2-0.9h-2.1v7.9h2.4V61c0.4-0.7,0.9-1,1.4-1
		c0.2,0,0.4,0.1,0.6,0.2s0.2,0.4,0.2,0.8v5.4h2.4v-5.8c0-0.8-0.2-1.3-0.6-1.8C33.2,58.4,32.6,58.2,31.9,58.2 M25.4,58.4h-2.4V64
		c-0.4,0.6-0.8,0.9-1.3,0.9c-0.3,0-0.5-0.1-0.6-0.2c-0.1-0.2-0.2-0.4-0.2-0.8v-5.4h-2.4v5.7c0,0.8,0.2,1.4,0.6,1.8s0.9,0.7,1.6,0.7
		c1,0,1.8-0.4,2.4-1.3l0.1,1h2L25.4,58.4L25.4,58.4z M13.6,64.5c-0.3,0.2-0.6,0.2-0.9,0.2c-0.3,0-0.4-0.1-0.6-0.2S12,64.1,12,63.7
		v-3.7h1.6l0.2-1.7H12v-2l-2.4,0.3v1.7H8.5v1.7h1.1v3.7c0,1.9,0.9,2.9,2.6,2.9c0.4,0,0.8-0.1,1.1-0.2c0.4-0.1,0.7-0.3,1-0.5
		L13.6,64.5z M5.7,61.7H3.1c0-0.7,0.2-1.2,0.4-1.5s0.5-0.5,1-0.5C5.3,59.8,5.7,60.4,5.7,61.7L5.7,61.7z M8.1,62.3c0-1.3-0.3-2.3-1-3
		c-0.7-0.7-1.6-1.1-2.7-1.1c-0.8,0-1.5,0.2-2,0.6s-1,0.9-1.3,1.5c-0.3,0.6-0.4,1.4-0.4,2.2c0,1.3,0.3,2.3,1,3.1
		c0.7,0.8,1.7,1.1,3,1.1c1.1,0,2.2-0.4,3.1-1.1l-1-1.3c-0.3,0.2-0.7,0.4-1,0.5c-0.3,0.1-0.6,0.2-0.9,0.2c-0.5,0-0.9-0.1-1.2-0.4
		s-0.5-0.7-0.6-1.4H8C8,62.9,8.1,62.6,8.1,62.3"/>
	<path class="st0" d="M110,43.7h-2.7c0.1-0.7,0.2-1.2,0.4-1.5c0.2-0.3,0.5-0.5,0.9-0.5C109.6,41.8,110,42.4,110,43.7L110,43.7z
		 M112.4,44.3c0-1.3-0.3-2.3-1-3s-1.6-1.1-2.7-1.1c-0.8,0-1.4,0.2-2,0.6s-1,0.9-1.3,1.5c-0.3,0.6-0.4,1.4-0.4,2.2
		c0,1.3,0.3,2.3,1,3.1s1.7,1.1,3,1.1c1.1,0,2.2-0.4,3.1-1.1l-1-1.3c-0.3,0.2-0.7,0.4-1,0.5c-0.3,0.1-0.6,0.2-0.9,0.2
		c-0.5,0-0.9-0.1-1.2-0.4s-0.5-0.7-0.6-1.4h4.9C112.3,44.9,112.4,44.6,112.4,44.3 M104.2,40.2c-0.5,0-0.9,0.2-1.2,0.5
		c-0.4,0.3-0.6,0.8-0.8,1.3l-0.2-1.5h-2.1v8h2.4v-3.9c0.1-0.7,0.3-1.1,0.6-1.5c0.2-0.3,0.6-0.5,1.1-0.5c0.2,0,0.4,0,0.7,0.1l0.4-2.3
		C104.7,40.3,104.5,40.2,104.2,40.2 M98,40.5h-2.4V46c-0.4,0.6-0.8,0.9-1.3,0.9c-0.3,0-0.4-0.1-0.6-0.2c-0.1-0.2-0.2-0.4-0.2-0.8
		v-5.4h-2.4v5.7c0,0.8,0.2,1.4,0.6,1.8s0.9,0.7,1.7,0.7c1,0,1.8-0.4,2.4-1.3l0.1,1H98L98,40.5L98,40.5z M89.7,46.5
		c-0.3,0.2-0.6,0.2-0.8,0.2c-0.3,0-0.4-0.1-0.6-0.2s-0.2-0.4-0.2-0.8v-3.7h1.6l0.2-1.7h-1.8v-2l-2.4,0.3v1.7h-1.1v1.7h1.1v3.7
		c0,1.9,0.9,2.9,2.6,2.9c0.4,0,0.8,0,1.2-0.2c0.4-0.1,0.7-0.3,1-0.5L89.7,46.5z M81.8,40.2c-0.8,0-1.5,0.2-2.1,0.5
		c-0.6,0.4-1,0.9-1.4,1.5s-0.5,1.4-0.5,2.2s0.2,1.6,0.5,2.2s0.8,1.1,1.4,1.5s1.3,0.5,2.1,0.5c1,0,1.9-0.3,2.7-0.9l-1-1.5
		c-0.3,0.2-0.6,0.3-0.8,0.4c-0.2,0.1-0.5,0.1-0.7,0.1c-0.5,0-0.9-0.2-1.2-0.5s-0.4-0.9-0.4-1.8c0-0.9,0.1-1.5,0.4-1.9S81.5,42,82,42
		c0.5,0,1,0.2,1.5,0.6l1-1.4c-0.4-0.3-0.8-0.6-1.2-0.7C82.8,40.3,82.3,40.2,81.8,40.2 M74.7,43.7h-2.7c0.1-0.7,0.2-1.2,0.4-1.5
		s0.5-0.5,0.9-0.5C74.3,41.8,74.7,42.4,74.7,43.7L74.7,43.7z M77,44.3c0-1.3-0.3-2.3-1-3s-1.6-1.1-2.7-1.1c-0.8,0-1.4,0.2-2,0.6
		s-1,0.9-1.3,1.5c-0.3,0.6-0.4,1.4-0.4,2.2c0,1.3,0.3,2.3,1,3.1s1.7,1.1,3,1.1c1.1,0,2.2-0.4,3.1-1.1l-1-1.3c-0.3,0.2-0.7,0.4-1,0.5
		c-0.3,0.1-0.6,0.2-0.9,0.2c-0.5,0-0.9-0.1-1.2-0.4s-0.5-0.7-0.6-1.4H77C77,44.9,77,44.6,77,44.3 M68.8,46.5
		c-0.3,0.2-0.6,0.2-0.8,0.2c-0.3,0-0.4-0.1-0.6-0.2s-0.2-0.4-0.2-0.8v-3.7h1.6l0.2-1.7h-1.8v-2l-2.4,0.3v1.7h-1.1v1.7h1.1v3.7
		c0,1.9,0.9,2.9,2.6,2.9c0.4,0,0.8,0,1.2-0.2c0.4-0.1,0.7-0.3,1-0.5L68.8,46.5z M61.5,36.3c-0.4,0-0.7,0.1-1,0.4s-0.4,0.6-0.4,1
		s0.1,0.7,0.4,1c0.3,0.2,0.6,0.4,1,0.4s0.8-0.1,1-0.4s0.4-0.6,0.4-1s-0.1-0.7-0.4-1C62.3,36.4,61.9,36.3,61.5,36.3 M60.4,48.4h2.4
		v-8h-2.4V48.4z M56.4,40.2c-0.5,0-0.9,0.1-1.2,0.3c-0.4,0.2-0.7,0.5-1,0.8v-4.2l-2.4,0.2v11.1h2.4V43c0.4-0.7,0.9-1,1.4-1
		c0.2,0,0.4,0.1,0.5,0.2c0.1,0.2,0.2,0.4,0.2,0.8v5.4h2.4v-5.8c0-0.8-0.2-1.3-0.6-1.8C57.6,40.4,57.1,40.2,56.4,40.2 M48,40.2
		c-0.8,0-1.5,0.2-2,0.5c-0.6,0.4-1,0.9-1.4,1.5s-0.5,1.4-0.5,2.2s0.2,1.6,0.5,2.2s0.8,1.1,1.4,1.5s1.3,0.5,2.1,0.5
		c1,0,1.9-0.3,2.7-0.9l-1-1.5c-0.3,0.2-0.6,0.3-0.8,0.4c-0.2,0.1-0.5,0.1-0.7,0.1c-0.5,0-0.9-0.2-1.2-0.5s-0.4-0.9-0.4-1.8
		c0-0.9,0.1-1.5,0.4-1.9s0.7-0.6,1.2-0.6c0.5,0,1,0.2,1.5,0.6l1-1.4c-0.4-0.3-0.8-0.6-1.2-0.7C49,40.3,48.5,40.2,48,40.2 M43.3,40.2
		c-0.5,0-0.9,0.2-1.2,0.5c-0.4,0.3-0.6,0.8-0.8,1.3L41,40.5H39v8h2.4v-3.9c0.1-0.7,0.3-1.1,0.6-1.5c0.2-0.3,0.6-0.5,1.1-0.5
		c0.2,0,0.4,0,0.7,0.1l0.4-2.3C43.9,40.3,43.6,40.2,43.3,40.2 M33.6,39.8l1.1,4.6h-2.2L33.6,39.8z M38.3,48.4L35.1,38h-3L29,48.4
		h2.5l0.5-2.2h3l0.5,2.2H38.3z M22.9,43.7h-2.6c0-0.7,0.2-1.2,0.4-1.5s0.5-0.5,1-0.5C22.5,41.8,22.9,42.4,22.9,43.7L22.9,43.7z
		 M25.3,44.3c0-1.3-0.3-2.3-1-3s-1.5-1.1-2.7-1.1c-0.8,0-1.5,0.2-2,0.6s-1,0.9-1.3,1.5c-0.3,0.6-0.4,1.4-0.4,2.2
		c0,1.3,0.3,2.3,1,3.1s1.7,1.1,3,1.1c1.1,0,2.2-0.4,3.1-1.1l-1-1.3c-0.4,0.2-0.7,0.4-1,0.5c-0.3,0.1-0.6,0.2-0.9,0.2
		c-0.5,0-0.9-0.1-1.2-0.4s-0.5-0.7-0.6-1.4h4.9C25.3,44.9,25.3,44.6,25.3,44.3 M14.4,40.2c-0.5,0-0.9,0.1-1.3,0.3s-0.8,0.5-1.1,0.9
		l-0.2-0.9H9.7v8h2.4V43c0.4-0.7,0.9-1,1.4-1c0.2,0,0.4,0.1,0.6,0.2c0.1,0.2,0.2,0.4,0.2,0.8v5.4h2.4v-5.8c0-0.8-0.2-1.3-0.6-1.8
		C15.6,40.4,15,40.2,14.4,40.2 M7.8,40.5H5.5V46c-0.4,0.6-0.8,0.9-1.3,0.9c-0.3,0-0.5-0.1-0.6-0.2c-0.1-0.2-0.2-0.4-0.2-0.8v-5.4
		H1.1v5.7c0,0.8,0.2,1.4,0.6,1.8s0.9,0.7,1.6,0.7c1,0,1.8-0.4,2.4-1.3l0.1,1h2L7.8,40.5L7.8,40.5z"/>
	<path class="st0" d="M65.9,25.7h-2.7c0-0.7,0.2-1.2,0.4-1.5c0.2-0.3,0.5-0.5,1-0.5c0.8,0,1.3,0.6,1.3,1.8V25.7z M68.2,26.3
		c0-1.3-0.3-2.3-1-3c-0.7-0.7-1.6-1.1-2.7-1.1c-0.8,0-1.5,0.2-2,0.6s-1,0.9-1.3,1.5c-0.3,0.6-0.4,1.4-0.4,2.2c0,1.3,0.3,2.3,1,3.1
		s1.7,1.1,3,1.1c1.1,0,2.2-0.4,3.1-1.1l-1-1.3c-0.3,0.2-0.7,0.4-1,0.5c-0.3,0.1-0.6,0.2-0.9,0.2c-0.5,0-0.9-0.1-1.2-0.4
		s-0.5-0.7-0.6-1.4h4.9C68.2,26.9,68.2,26.6,68.2,26.3 M60.1,22.3c-0.5,0-0.9,0.2-1.2,0.5C58.5,23,58.2,23.5,58,24l-0.2-1.5h-2.1v8
		h2.4v-3.9c0.1-0.6,0.3-1.1,0.6-1.5c0.2-0.3,0.6-0.5,1.1-0.5c0.2,0,0.4,0,0.7,0.1l0.4-2.3C60.6,22.3,60.3,22.3,60.1,22.3 M52.7,18.3
		c-0.4,0-0.7,0.1-1,0.4s-0.4,0.6-0.4,1s0.1,0.7,0.4,1c0.3,0.2,0.6,0.4,1,0.4s0.8-0.1,1-0.4s0.4-0.6,0.4-1s-0.1-0.7-0.4-1
		C53.4,18.4,53.1,18.3,52.7,18.3 M51.5,30.4h2.4v-8h-2.4V30.4z M46.1,29c-0.3,0-0.5-0.1-0.7-0.3s-0.2-0.4-0.2-0.7
		c0-0.4,0.1-0.7,0.4-0.9c0.3-0.2,0.7-0.3,1.2-0.3h0.6v1.4C47,28.7,46.6,29,46.1,29 M49.6,28.1V25c0-0.9-0.3-1.6-0.8-2.1
		c-0.5-0.5-1.4-0.7-2.5-0.7c-0.5,0-0.9,0-1.5,0.1s-1,0.2-1.5,0.4l0.5,1.6c0.4-0.1,0.8-0.2,1.1-0.3S45.7,24,46,24
		c0.5,0,0.8,0.1,1,0.3s0.3,0.5,0.3,1v0.3h-0.8c-1.2,0-2.1,0.2-2.8,0.7s-1,1.1-1,2c0,0.7,0.2,1.3,0.7,1.8s1.1,0.7,1.9,0.7
		c1.1,0,1.9-0.4,2.4-1.2c0.2,0.4,0.4,0.7,0.7,0.8s0.7,0.3,1.2,0.3l0.5-1.5c-0.2-0.1-0.3-0.2-0.4-0.3C49.7,28.7,49.6,28.4,49.6,28.1
		 M39.4,30.4v-4.1h3v-1.8h-3v-2.8h3.5l0.2-1.8H37v10.4H39.4z M31.7,22.3c-0.5,0-0.9,0.2-1.2,0.5c-0.4,0.3-0.6,0.8-0.8,1.3l-0.2-1.5
		h-2.1v8h2.4v-3.9c0.1-0.6,0.3-1.1,0.6-1.5c0.2-0.3,0.6-0.5,1.1-0.5c0.2,0,0.4,0,0.7,0.1l0.4-2.3C32.2,22.3,32,22.3,31.7,22.3
		 M25.5,22.5h-2.4V28c-0.4,0.6-0.8,0.9-1.3,0.9c-0.3,0-0.5-0.1-0.6-0.2c-0.1-0.2-0.2-0.4-0.2-0.8v-5.4h-2.4v5.7
		c0,0.8,0.2,1.4,0.6,1.8s0.9,0.7,1.6,0.7c1,0,1.8-0.4,2.4-1.3l0.1,1h2L25.5,22.5L25.5,22.5z M13.5,24c0.5,0,0.9,0.2,1.1,0.6
		c0.2,0.4,0.4,1,0.4,1.9c0,0.9-0.1,1.5-0.4,1.9S14,29,13.5,29c-0.5,0-0.9-0.2-1.1-0.6c-0.2-0.4-0.4-1-0.4-1.9c0-0.9,0.1-1.5,0.4-1.9
		S13,24,13.5,24 M13.5,22.2c-0.8,0-1.5,0.2-2.1,0.5s-1,0.8-1.4,1.5c-0.3,0.6-0.5,1.4-0.5,2.2c0,1.3,0.4,2.4,1,3.1s1.6,1.1,2.9,1.1
		c0.8,0,1.5-0.2,2.1-0.5s1-0.8,1.4-1.5c0.3-0.6,0.5-1.4,0.5-2.2c0-1.3-0.3-2.4-1-3.1C15.7,22.6,14.7,22.2,13.5,22.2 M4.7,29
		c-0.5,0-0.9-0.2-1.2-0.7v-3.4c0.2-0.3,0.4-0.5,0.6-0.7S4.6,24,4.9,24c0.4,0,0.7,0.2,0.9,0.5c0.2,0.4,0.3,1,0.3,2
		C6.1,28.1,5.6,29,4.7,29 M5.6,22.2c-0.4,0-0.8,0.1-1.2,0.3C4,22.7,3.6,23,3.3,23.4l-0.1-0.9H1.1v11.3l2.4-0.2v-3.6
		c0.5,0.5,1.1,0.8,1.9,0.8c0.6,0,1.2-0.2,1.7-0.5c0.5-0.4,0.8-0.9,1.1-1.5c0.2-0.6,0.4-1.4,0.4-2.2c0-1.3-0.2-2.4-0.7-3.1
		S6.6,22.2,5.6,22.2"/>
	<path class="st0" d="M36.4,4.5h-2.5l-1.1,2.5l-1.1-2.6H29l2.3,3.8l-2.6,4.2h2.6l1.4-3l1.4,3h2.7l-2.6-4.2L36.4,4.5z M28,4.5h-2.4
		v5.5c-0.4,0.6-0.8,0.9-1.3,0.9c-0.3,0-0.5-0.1-0.6-0.2c-0.1-0.1-0.2-0.4-0.2-0.8V4.5h-2.4v5.7c0,0.8,0.2,1.4,0.6,1.8
		s0.9,0.7,1.6,0.7c1,0,1.8-0.4,2.4-1.3l0.1,1H28V4.5z M17.6,7.8H15c0.1-0.7,0.2-1.2,0.4-1.5c0.2-0.3,0.5-0.4,1-0.4
		C17.2,5.8,17.6,6.5,17.6,7.8L17.6,7.8z M20,8.3c0-1.3-0.3-2.3-1-3s-1.5-1.1-2.7-1.1c-0.8,0-1.4,0.2-2,0.6s-1,0.9-1.3,1.5
		s-0.4,1.4-0.4,2.2c0,1.3,0.3,2.3,1,3.1s1.7,1.1,3,1.1c1.1,0,2.2-0.4,3.1-1.1l-1-1.3c-0.4,0.2-0.7,0.4-1,0.5
		C17.4,11,17.1,11,16.8,11c-0.5,0-0.9-0.1-1.2-0.4S15.1,9.9,15,9.2h4.9C20,9,20,8.7,20,8.3 M10,0.3c-0.4,0-0.7,0.1-1,0.4
		s-0.4,0.6-0.4,1s0.1,0.7,0.4,1S9.6,3,10,3s0.8-0.1,1-0.4s0.4-0.6,0.4-1S11.3,1,11,0.7C10.7,0.5,10.4,0.3,10,0.3 M8.8,12.5h2.4V4.5
		H8.8V12.5z M1.2,2.1v10.4h6.2l0.2-1.9h-4V2.1H1.2z"/>
</g>
</svg>
