<svg enable-background="new 0 0 651.9 357.7" viewBox="0 0 651.9 357.7" xmlns="http://www.w3.org/2000/svg"><path d="m165.6 351.2c0 .9-.1 1.6-.2 2.1-.2.5-.5 1-.9 1.4s-1.1.7-1.9 1.1l.7 1.9c1.7-.5 2.9-1.3 3.7-2.2s1.2-2.3 1.2-4.2v-16.2h-2.6zm375.9-16.1-6 18.8h2.6l1.4-4.7h7.1l1.4 4.7h2.7l-6-18.8zm-1.3 12 3-9.8 2.9 9.8zm-399-7.3h-2.3v4.1h-4v2.1h4v4.1h2.3v-4.1h4v-2.1h-4zm92.8 17h2.3v-24.9h-2.3zm402.2-4.9v-6.5h6.3v-2.1h-6.3v-6.2h7.3l.3-2.1h-10.2v19h10.4v-2.1zm-23.2-14.5h5.4v16.6h2.6v-16.6h5.2l.3-2.2h-13.5zm-405.2-.8c-1.3-1-3.1-1.5-5.4-1.5h-4.9v18.9h2.6v-6.9h2.4c2.2 0 4-.5 5.3-1.5s2-2.5 2-4.6c-.1-2-.7-3.4-2-4.4m-2 7.5c-.8.6-1.9.9-3.5.9h-2.3v-7.8h2.3c1.5 0 2.6.3 3.4.9s1.2 1.6 1.2 2.9c.1 1.5-.3 2.6-1.1 3.1m-165.9 9.9h2.6v-18.8h-2.6zm-16.2-8.5h6.3v-2.1h-6.3v-6.2h7.3l.3-2.1h-10.2v18.9h10.4v-2.1h-7.8zm-23.2-8.1h5.4v16.6h2.6v-16.6h5.2l.3-2.2h-13.5zm107.8 8.1h6.3v-2.1h-6.3v-6.2h7.3l.3-2.1h-10.2v18.9h10.4v-2.1h-7.8zm-14.6-.1c0 1 0 2.1.1 3.3s.2 2 .2 2.5l-7.7-16h-3.4v18.8h2.4v-8.6c0-1.5 0-2.8-.1-3.9s-.2-2.2-.3-3.5l7.7 16h3.5v-18.8h-2.4zm-23-2.4h-7.9v-7.9h-2.6v18.9h2.6v-8.8h7.9v8.8h2.6v-18.8h-2.6zm-17.9-7.9h-3l-7.2 8.8 7.4 10.1h3.2l-7.7-10.2zm128.3 0-6 18.8h2.6l1.4-4.7h7.1l1.4 4.7h2.7l-6-18.8zm-1.4 12 3-9.8 2.9 9.8zm259.9-11.1c-1.2-.8-2.6-1.1-4.2-1.1s-3 .4-4.2 1.2-2.1 1.9-2.8 3.4-1 3.2-1 5.2c0 2.1.3 3.8 1 5.3s1.6 2.6 2.8 3.3 2.6 1.1 4.2 1.1 3-.4 4.2-1.1c1.2-.8 2.1-1.9 2.8-3.3.7-1.5 1-3.2 1-5.2 0-2.1-.3-3.8-1-5.3-.6-1.7-1.6-2.8-2.8-3.5m-4.1 16.2c-1.6 0-2.9-.6-3.8-1.8s-1.4-3.1-1.4-5.7.5-4.6 1.4-5.8 2.2-1.9 3.8-1.9c3.5 0 5.2 2.5 5.2 7.6 0 5-1.8 7.6-5.2 7.6m-158.2-15.6c-1.3-1-3.1-1.5-5.4-1.5h-4.9v18.9h2.6v-6.9h2.4c2.2 0 4-.5 5.3-1.5s2-2.5 2-4.6c-.1-2-.8-3.4-2-4.4m-2.1 7.5c-.8.6-1.9.9-3.5.9h-2.3v-7.8h2.3c1.5 0 2.6.3 3.4.9s1.2 1.6 1.2 2.9c.1 1.5-.3 2.6-1.1 3.1m140.1.4-4.6-9.3h-2.9l6.1 11.6v7.2h2.6v-7.2l6.1-11.6h-2.7zm109.1-9.4-3.8 13.7-4-13.7h-3.5l-1.6 18.8h2.5l.6-8.3c.2-3 .4-5.6.4-7.9l4.3 14.1h2.4l4.1-14.1c0 1.8.2 4.3.5 7.7l.7 8.5h2.5l-1.6-18.8zm37 9.4-4.6-9.3h-2.8l6.1 11.6v7.2h2.6v-7.2l6.1-11.6h-2.8zm-76.4 2h7.7v-2.1h-7.7zm-87.3-11.4h-2.6v18.9h10l.3-2.3h-7.7zm64.9 10.3c0 1 0 2.1.1 3.3s.2 2 .2 2.5l-7.7-16h-3.4v18.8h2.4v-8.6c0-1.5 0-2.8-.1-3.9s-.2-2.2-.3-3.5l7.7 16h3.5v-18.8h-2.4zm-173.8-10.3-6 18.8h2.6l1.4-4.7h7.1l1.4 4.7h2.7l-6-18.8zm-1.4 12 2.9-9.8 2.9 9.8zm298.4-11.1c-1.2-.8-2.6-1.1-4.2-1.1s-3 .4-4.2 1.2-2.1 1.9-2.8 3.4-1 3.2-1 5.2c0 2.1.3 3.8 1 5.3s1.6 2.6 2.8 3.3 2.6 1.1 4.2 1.1 3-.4 4.2-1.1c1.2-.8 2.1-1.9 2.8-3.3.7-1.5 1-3.2 1-5.2 0-2.1-.3-3.8-1-5.3-.7-1.7-1.6-2.8-2.8-3.5m-4.2 16.2c-1.6 0-2.9-.6-3.8-1.8s-1.4-3.1-1.4-5.7.5-4.6 1.4-5.8 2.2-1.9 3.8-1.9c3.5 0 5.2 2.5 5.2 7.6 0 5-1.7 7.6-5.2 7.6m13.1-14.8h5.4v16.6h2.6v-16.6h5.2l.3-2.2h-13.5zm-268.9 16.6h2.6v-18.8h-2.6zm-9.6-10.3c.7-.8 1-1.9 1-3.2 0-1.8-.6-3.1-1.8-4s-3-1.3-5.3-1.3h-5v18.8h2.6v-8h2.9l4.5 8h3.1l-5.1-8.4c1.4-.5 2.4-1.1 3.1-1.9m-5.9.3h-2.6v-6.8h2.3c1.5 0 2.7.3 3.4.8s1.1 1.4 1.1 2.5c0 1.2-.3 2.1-1 2.7-.8.5-1.8.8-3.2.8m36.2.2c-.8-.4-1.8-.8-3-1.2-1.1-.3-2-.7-2.6-1s-1-.6-1.2-1-.3-.8-.3-1.4c0-.9.3-1.5 1-2 .6-.5 1.5-.7 2.4-.7.8 0 1.5.1 2.2.4s1.4.7 2.1 1.2l1.4-1.6c-.8-.7-1.7-1.3-2.6-1.7s-2-.5-3.2-.5-2.2.2-3.1.6-1.6 1-2.1 1.8c-.5.7-.8 1.6-.8 2.5 0 1.4.4 2.5 1.3 3.3s2.3 1.5 4.2 2.1c1.1.3 1.9.7 2.5 1s1 .7 1.2 1.1.4.9.4 1.5c0 1.1-.4 1.9-1.1 2.5-.8.6-1.7.9-2.9.9-1 0-1.8-.2-2.6-.5s-1.6-.8-2.3-1.4l-1.4 1.6c1.7 1.6 3.8 2.4 6.4 2.4 1.4 0 2.6-.2 3.6-.7s1.8-1.1 2.3-2c.5-.8.8-1.8.8-2.9s-.2-2.1-.7-2.8c-.5-.5-1.1-1.1-1.9-1.5m20.9 2.3h7.7v-2.1h-7.7zm-254.2-15.3-1-2-4.8 2.9.6 1.3z" fill="#fff"/><g fill="none" stroke="#fff" stroke-miterlimit="10" stroke-width="1.5"><path d="m392.5 121.4h-131.5v-40.4h115.6c6.6-10.8 7.3-11.8 12.3-21h-127.9v-37.1h118.7c7.2-12.4 7.4-12.4 12.3-21.4h-156.3v141.3h144.5c7.7-13.6 6.7-12.3 12.3-21.4m-391.9 16.3v5h171.5v-60.6h-68v-6c0-30.2-.1-39 .1-69.2 0-4.1-.9-5.6-5.4-5.5-14.1.3-78.8.3-92.8 0-4.4-.1-5.5 1.2-5.5 5.4.2 43.6.1 87.3.1 130.9m650.8 5.1c-.2-1.1-.3-1.9-.5-2.6-4.5-18.3-9.5-42.3-13.4-60.8-1.2-5.7-1.9-6.3-1-11.9 2.1-13.1 5.6-25.9 8.5-38.9 2-8.8 4-18.3 6-27.2h-75.6c-.6 0-2.4 0-2.8 0-.1 0-.5 2.7-.5 3.3-1.5 13.8-2.7 27.6-4.2 41.5-.1 1.2-1.3 2.3-2 3.5-.7-1.1-2-2.2-2.2-3.4-.6-6.1-.8-12.1-1.4-18.2-.9-8.8-2-17.8-3-26.6h-78.7c.3 1.5.5 2.7.8 3.7 4.2 18.6 8.4 37.1 12.5 55.7.9 4.2 2.4 8.7 1.7 12.8-3 15.5-6.8 30.8-10.2 46.2-1.7 7.4-4.2 18.9-5 22.9h2.1c24.6 0 49.1.2 73.7 0h2.9c.2-1.7.3-2.7.4-3.3.7-5.7 1.3-11.4 1.9-17.1.9-8.6 1.9-17.1 2.9-25.7.1-1 1.6-1.9 2.7-3.2 2 17.2 4.2 33.4 6 49.2zm-318.1 18.8-25.3 23.6v82.1c0 2 0 4.1-.2 6.1-.6 5.6-4.3 9.1-10.1 9.6-6 .5-10.3-2.3-11.7-8-.6-2.4-.8-5-.8-7.5-.1-34.1 0-68.3 0-102.4v-3.6h-.2l-25.2 23.5v14.9c0 24.8-.1 49.6.1 74.4.1 14.4 8.9 25.4 22.5 28.8 9.4 2.4 18.8 2.5 28.2 0 10.2-2.7 17.7-8.7 20.8-18.9 1.3-4.3 2-9 2-13.5.2-35.6.1-71.3.1-106.9 0-.6-.1-1.3-.2-2.2m66.7-49.6c.1 14.4 8.9 25.4 22.5 28.8 9.4 2.4 18.8 2.4 28.2 0 10.2-2.7 17.7-8.7 20.8-18.9 1.3-4.3 2-9 2.1-13.5.2-35.6 0-69.2 0-104.8 0-.8 0-1.3 0-2.5l-25.6 23.7v80c0 2 0 4.1-.2 6.1-.6 5.6-4.3 9.1-10.1 9.6-6 .5-10.3-2.3-11.7-8-.6-2.4-.8-5-.8-7.5-.1-34.1 0-66.2 0-100.3v-3.5h-.1l-25.2 23.5v12.8c0 24.9-.1 49.7.1 74.5m-181.2-110.7-25.5 23.7v117.8h25.4v-141.5zm336.9 160.9c-38.3.1-47 .1-85.2 0-4.6 0-5.7 1.4-5.7 5.7.1 43.4.1 86.8.1 130.2v5.2h96.2c0-11.7-.2-23 .1-34.3.1-4-.9-5.2-5.1-5.2-20.8.2-17.9.1-38.7.1-1.7 0-3.3 0-4.9 0 0-4.3 0-8 0-12.2h44c0-12.8 0-25 0-37.7-22.9 0-21.6 0-44.1 0 0-4.1 0-7.7 0-11.7h5.3c20.8 0 17.9-.1 38.7.1 3.6 0 4.9-.8 4.8-4.6-.3-10.1-.3-20.2 0-30.3.2-4.2-1.2-5.3-5.5-5.3m73.6 56.2c-5.3-1.1-10.7-2.1-16.1-3.1-3.7-.7-4.9-2.1-4.9-5.8 0-5.6 0-11.3 0-16.9 0-.3-.1-.6 0-.8.6-1 1.4-1.9 2-2.8.6.9 1.6 1.8 1.7 2.8.2 3.3.1 6.6.1 9.9v9.7h36.5c0-7.8.2-15.3 0-22.8-.3-11.6-6.2-19.6-17-23.8-12.3-4.8-24.9-4.9-37.5-1.5-14.2 3.7-22.5 13-23.5 27.3-.8 10.5-.6 21.1.4 31.5 1.2 13.1 8.4 20.3 21.4 23.2 4.6 1 9.2 1.7 13.8 2.5 4.7.7 6.2 2.3 6.2 6.8v19.5c0 .5.2 1-.1 1.4-.5.9-1.2 1.7-1.8 2.5-.7-.7-1.6-1.4-2.1-2.3-.4-.7-.2-1.7-.2-2.5 0-6.2 0-12.4 0-18.6 0-.9-.1-1.8-.1-2.8h-36.7c0 10.2-.5 20 .1 29.9.7 10.1 6.4 17.4 16.2 21 12.6 4.6 25.5 4.9 38.4 1.6 14.2-3.6 22.7-12.9 23.9-27.3.9-11.4 1.1-23 .3-34.4-.6-14.2-7.7-21.5-21-24.2m-219.3-53.6c-1.2 15.2-2.3 30.4-3.6 45.7-1.4 16.7-2.9 33.5-4.5 50.2-.1 1.1-1.2 2.1-1.9 3.1-.5-1-1.2-2-1.3-3.1-2.6-25.4-5.2-50.7-7.8-76.1-.8-7.4-1.5-14.7-2.3-22.2h-47.4c3.9 25 7.7 49.8 11.6 74.5 3.2 20.7 6.6 41.5 9.7 62.2.5 3.2 1.4 4.1 4.7 4.1 21.5-.1 42.9-.1 64.4-.1 1.3 0 2.5-.1 4-.2 7.2-46.9 14.4-93.6 21.6-140.6h-46.8c-.2 1.2-.4 1.8-.4 2.5m-215.4-2.8c-9.2 47.1-18.3 94.1-27.4 141.1h26.1c1.4-9 2.9-17.8 4-26.6.3-2.2 1.1-2.7 3.2-2.7 8.2.2 16.5.1 24.7.2.9 0 1.8.1 2.8.2 1.2 8.2 2.4 16.1 3.5 24 .4 2.4.5 4.1.8 5l22.2-21.5c-7.6-40-15-79.7-22.7-119.6h-37.2zm29.9 90.5h-23.3c.8-5.3 1.6-10.5 2.4-15.7 2.6-16.5 5.3-33 7.9-49.4.1-.5.1-1 .2-1.4.3-.5.7-1 1-1.5.4.5 1 1 1.1 1.6.9 4.9 1.9 9.8 2.7 14.8 2.7 16.8 5.2 33.5 7.8 50.3.2.4.2.8.2 1.3"/><path d="m159.3 166.2c.1-3.4-1.4-4-4.4-4-39 .1-111 .1-150 0-3.2 0-4.3 1-4.3 4.2.1 44.2.1 88.3 0 132.5 0 3.7 1.4 4.2 4.7 4.2 14.6-.1 29.2-.1 43.9-.1 1.3 0 2.7-.2 4.4-.4v-49.2h101.2v-37.6h-101.2v-13.7h4.9 96.3c3.1 0 4.5-.6 4.4-4-.1-10.5-.1-21.2.1-31.9"/><path d="m159.3 166.2c.1-3.4-1.4-4-4.4-4-39 .1-111 .1-150 0-3.2 0-4.3 1-4.3 4.2.1 44.2.1 88.3 0 132.5 0 3.7 1.4 4.2 4.7 4.2 14.6-.1 29.2-.1 43.9-.1 1.3 0 2.7-.2 4.4-.4v-49.2h101.2v-37.6h-101.2v-13.7h4.9 96.3c3.1 0 4.5-.6 4.4-4-.1-10.5-.1-21.2.1-31.9"/></g></svg>