<?xml version="1.0" encoding="utf-8"?>
<!-- Generator: Adobe Illustrator 26.1.0, SVG Export Plug-In . SVG Version: 6.00 Build 0)  -->
<svg version="1.1" id="Calque_1" xmlns="http://www.w3.org/2000/svg" xmlns:xlink="http://www.w3.org/1999/xlink" x="0px" y="0px"
	 viewBox="0 0 337.6 361.3" style="enable-background:new 0 0 337.6 361.3;" xml:space="preserve">
<style type="text/css">
	.st0{fill:#4D8783;}
</style>
<g>
	<path class="st0" d="M279.9,346.4h-8c0.2-2.1,0.6-3.6,1.2-4.5c0.7-0.9,1.6-1.4,2.9-1.4c2.5,0,3.8,1.8,3.9,5.5V346.4z M286.9,348.1
		c0-3.8-1-6.8-2.9-9c-1.9-2.2-4.6-3.2-8.1-3.2c-2.3,0-4.4,0.6-6,1.7s-3,2.7-3.8,4.6c-0.9,1.9-1.3,4.1-1.3,6.5c0,3.8,1,6.9,3.1,9.2
		s5,3.4,8.9,3.4c3.4,0,6.5-1.1,9.3-3.3l-2.9-4c-1.1,0.7-2,1.3-2.9,1.6c-0.9,0.3-1.8,0.5-2.8,0.5c-1.6,0-2.8-0.4-3.7-1.2
		c-0.9-0.8-1.5-2.2-1.7-4.2h14.8C286.8,349.9,286.9,349.1,286.9,348.1 M259.2,361.3c1.6,0,3-0.3,4.3-0.8l-1.4-5
		c-0.4,0.1-0.8,0.2-1.2,0.2c-0.8,0-1.2-0.5-1.2-1.5v-27.8l-7.1,0.8v27.3c0,2.2,0.6,3.9,1.7,5.1C255.6,360.7,257.2,361.3,259.2,361.3
		 M236.9,356.1c-0.8,0-1.4-0.2-2.1-0.6c-0.6-0.4-1.2-1-1.6-1.7v-9.9c1.1-1.9,2.5-2.8,4.1-2.8c1.3,0,2.2,0.5,2.9,1.6
		c0.7,1.1,1,3,1,5.9C241.1,353.6,239.7,356.1,236.9,356.1 M239.6,335.8c-1.3,0-2.5,0.3-3.7,0.9s-2,1.4-2.8,2.3v-12.7l-7.1,0.8v33.4
		h6.3l0.4-2.3c0.8,1,1.7,1.7,2.7,2.2c1.1,0.5,2.2,0.8,3.5,0.8c2,0,3.6-0.5,5.1-1.6c1.4-1.1,2.5-2.6,3.3-4.5c0.8-1.9,1.1-4.1,1.1-6.6
		c0-4-0.8-7.1-2.3-9.4C244.6,337,242.4,335.8,239.6,335.8 M209.6,356.2c-0.9,0-1.6-0.3-2-0.8c-0.5-0.5-0.7-1.3-0.7-2.2
		c0-1.2,0.4-2.1,1.2-2.7s2-0.9,3.6-0.9h1.8v4.2C212.5,355.4,211.2,356.2,209.6,356.2 M220.4,353.6v-9.3c0-2.8-0.8-4.9-2.4-6.3
		s-4.1-2.1-7.5-2.1c-1.4,0-2.8,0.1-4.4,0.4c-1.6,0.3-3.1,0.7-4.6,1.3l1.6,4.7c1.2-0.4,2.3-0.7,3.4-0.9c1.1-0.2,2.1-0.3,2.8-0.3
		c1.5,0,2.6,0.3,3.1,0.8c0.6,0.5,0.9,1.5,0.9,2.9v1H211c-3.6,0-6.4,0.7-8.3,2.1c-1.9,1.4-2.9,3.4-2.9,6c0,2.2,0.7,4,2.1,5.4
		s3.3,2.1,5.7,2.1c3.2,0,5.6-1.2,7.2-3.6c0.5,1.1,1.2,2,2.2,2.5c0.9,0.5,2.1,0.8,3.6,1l1.5-4.6c-0.6-0.2-1-0.5-1.2-0.9
		C220.5,355.1,220.4,354.5,220.4,353.6 M189.4,335.8c-1.5,0-2.8,0.3-4,0.9c-1.2,0.6-2.3,1.5-3.3,2.7l-0.5-2.8h-6.2v23.9h7.1v-16.3
		c1.3-2.1,2.7-3.1,4.1-3.1c0.8,0,1.3,0.2,1.7,0.7c0.4,0.5,0.6,1.3,0.6,2.5v16.2h7.1V343c0-2.3-0.6-4-1.8-5.3
		S191.5,335.8,189.4,335.8 M164.4,346.4h-8c0.1-2.1,0.6-3.6,1.2-4.5c0.7-0.9,1.6-1.4,2.9-1.4c2.5,0,3.8,1.8,3.9,5.5V346.4z
		 M171.4,348.1c0-3.8-1-6.8-2.9-9c-2-2.2-4.7-3.2-8.1-3.2c-2.3,0-4.4,0.6-6,1.7c-1.7,1.1-3,2.7-3.8,4.6c-0.9,1.9-1.3,4.1-1.3,6.5
		c0,3.8,1,6.9,3.1,9.2c2.1,2.3,5,3.4,8.9,3.4c3.4,0,6.5-1.1,9.3-3.3l-2.9-4c-1.1,0.7-2,1.3-2.9,1.6c-0.9,0.3-1.8,0.5-2.8,0.5
		c-1.6,0-2.8-0.4-3.7-1.2c-0.9-0.8-1.5-2.2-1.7-4.2h14.8C171.4,349.9,171.4,349.1,171.4,348.1 M146.6,354.9
		c-0.9,0.5-1.8,0.8-2.6,0.8c-0.8,0-1.4-0.2-1.7-0.7s-0.5-1.3-0.5-2.4v-11h4.7l0.8-5h-5.5v-6l-7.1,0.8v5.2h-3.4v5h3.4v11.1
		c0,5.7,2.6,8.6,7.8,8.6c1.1,0,2.3-0.2,3.4-0.5c1.2-0.3,2.2-0.8,3-1.4L146.6,354.9z M128.4,336.6h-7.1v16.6
		c-1.1,1.9-2.4,2.8-3.9,2.8c-0.8,0-1.4-0.2-1.7-0.7c-0.4-0.5-0.6-1.3-0.6-2.5v-16.2H108v17.1c0,2.4,0.6,4.2,1.7,5.5
		c1.1,1.3,2.8,2,5,2c3.1,0,5.5-1.3,7.2-3.8l0.3,3h6.2V336.6z M92.3,341.1c1.5,0,2.6,0.6,3.3,1.8c0.7,1.2,1.1,3.1,1.1,5.7
		c0,2.5-0.4,4.4-1.1,5.6c-0.7,1.2-1.8,1.8-3.2,1.8c-1.5,0-2.6-0.6-3.3-1.8c-0.7-1.2-1.1-3.1-1.1-5.7c0-2.6,0.4-4.4,1.1-5.6
		S90.9,341.1,92.3,341.1 M92.3,335.8c-2.4,0-4.5,0.5-6.2,1.6c-1.8,1.1-3.1,2.5-4,4.4s-1.4,4.1-1.4,6.7c0,4,1,7.1,3.1,9.4
		c2.1,2.2,4.9,3.4,8.6,3.4c2.4,0,4.5-0.5,6.2-1.6c1.8-1,3.1-2.5,4.1-4.4s1.4-4.1,1.4-6.7c0-4-1-7.1-3.1-9.4
		C98.9,337,96,335.8,92.3,335.8 M66.4,328.5c-2.2,0-4.1,0.4-5.8,1.1s-3,1.8-4,3.1c-1,1.4-1.4,2.9-1.4,4.7c0,2.3,0.7,4.3,2.2,5.8
		c1.5,1.5,3.9,2.8,7.4,3.9c1.5,0.5,2.7,0.9,3.5,1.4c0.8,0.4,1.4,0.9,1.7,1.4c0.3,0.5,0.5,1.2,0.5,2c0,1.2-0.4,2.1-1.3,2.8
		c-0.9,0.7-2.1,1-3.6,1c-1.5,0-2.9-0.3-4.2-0.8c-1.3-0.5-2.5-1.3-3.7-2.3l-3.7,4.1c1.4,1.3,3.1,2.4,5.1,3.2s4.2,1.2,6.8,1.2
		c2.5,0,4.8-0.4,6.6-1.2c1.9-0.8,3.3-2,4.3-3.5c1-1.5,1.5-3.2,1.5-5.2c0-2.7-0.8-4.8-2.2-6.3c-1.5-1.5-3.8-2.7-7-3.8
		c-1.7-0.5-2.9-1-3.8-1.4c-0.8-0.4-1.4-0.8-1.8-1.2c-0.3-0.4-0.5-1-0.5-1.7c0-1,0.4-1.7,1.1-2.3c0.7-0.5,1.8-0.8,3.1-0.8
		c2.4,0,4.7,0.9,6.8,2.6l3.4-4c-1.4-1.4-3-2.4-4.7-3S68.8,328.5,66.4,328.5 M40.8,354.9c-0.9,0.5-1.8,0.8-2.6,0.8
		c-0.8,0-1.3-0.2-1.7-0.7s-0.5-1.3-0.5-2.4v-11h4.7l0.8-5H36v-6l-7.1,0.8v5.2h-3.4v5h3.4v11.1c0,5.7,2.6,8.6,7.8,8.6
		c1.1,0,2.3-0.2,3.4-0.5c1.2-0.3,2.2-0.8,3-1.4L40.8,354.9z M17.2,346.4h-8c0.1-2.1,0.6-3.6,1.2-4.5c0.7-0.9,1.6-1.4,2.9-1.4
		c2.5,0,3.8,1.8,3.9,5.5V346.4z M24.2,348.1c0-3.8-1-6.8-2.9-9s-4.6-3.2-8.1-3.2c-2.3,0-4.4,0.6-6,1.7s-3,2.7-3.8,4.6
		C2.5,344,2,346.2,2,348.7c0,3.8,1,6.9,3.1,9.2s5,3.4,8.9,3.4c3.4,0,6.5-1.1,9.3-3.3l-2.9-4c-1,0.7-2,1.3-2.9,1.6
		c-0.9,0.3-1.8,0.5-2.8,0.5c-1.6,0-2.8-0.4-3.7-1.2c-0.9-0.8-1.5-2.2-1.7-4.2h14.8C24.2,349.9,24.2,349.1,24.2,348.1"/>
	<path class="st0" d="M148.9,292.4h-8c0.2-2.1,0.6-3.6,1.2-4.5c0.7-0.9,1.6-1.4,2.9-1.4c2.5,0,3.8,1.8,3.9,5.5V292.4z M155.8,294.1
		c0-3.8-1-6.8-2.9-9c-1.9-2.2-4.6-3.2-8.1-3.2c-2.3,0-4.4,0.6-6,1.7c-1.7,1.1-3,2.7-3.8,4.6c-0.9,1.9-1.3,4.1-1.3,6.5
		c0,3.8,1,6.9,3.1,9.2c2.1,2.3,5,3.4,8.9,3.4c3.4,0,6.5-1.1,9.3-3.3l-2.9-4c-1.1,0.7-2,1.3-2.9,1.6c-0.9,0.3-1.8,0.5-2.8,0.5
		c-1.6,0-2.8-0.4-3.7-1.2c-0.9-0.8-1.5-2.2-1.7-4.2h14.8C155.8,295.9,155.8,295.1,155.8,294.1 M129.4,282.6h-7.1v16.6
		c-1.1,1.9-2.4,2.8-3.9,2.8c-0.8,0-1.4-0.2-1.7-0.7c-0.4-0.5-0.6-1.3-0.6-2.5v-16.2H109v17.1c0,2.4,0.6,4.2,1.7,5.5
		c1.1,1.3,2.8,2,5,2c3.1,0,5.5-1.3,7.2-3.8l0.3,3h6.2V282.6z M92.4,302c-1.3,0-2.2-0.6-2.9-1.7c-0.7-1.1-1-3.1-1-5.8
		c0-2.6,0.4-4.5,1.2-5.7c0.8-1.2,1.8-1.8,3.2-1.8c0.7,0,1.4,0.2,2,0.5c0.6,0.3,1.1,0.8,1.7,1.5v10.3C95.5,301.1,94.1,302,92.4,302
		 M97.5,282.6l-0.4,2.1c-1.7-1.9-3.7-2.8-6.2-2.8c-2,0-3.7,0.5-5.2,1.6s-2.6,2.6-3.4,4.5c-0.8,1.9-1.2,4.1-1.2,6.5
		c0,4,0.8,7.1,2.3,9.4c1.5,2.3,3.8,3.4,6.8,3.4c2.6,0,4.8-1,6.3-3.1v11.5l7.1,0.8v-33.9H97.5z M73.1,270c-1.2,0-2.2,0.4-3,1.1
		c-0.8,0.8-1.2,1.7-1.2,2.9s0.4,2.1,1.2,2.9c0.8,0.8,1.8,1.1,3,1.1s2.2-0.4,3-1.1c0.8-0.8,1.2-1.7,1.2-2.9s-0.4-2.1-1.2-2.9
		C75.3,270.4,74.3,270,73.1,270 M69.6,306.5h7.1v-23.9h-7.1V306.5z M57.6,281.8c-1.4,0-2.6,0.3-3.7,0.8c-1.1,0.6-2.2,1.4-3.2,2.5
		v-12.8l-7.1,0.7v33.4h7.1v-16.4c1.3-2,2.7-3.1,4.1-3.1c0.7,0,1.3,0.2,1.7,0.7s0.6,1.3,0.6,2.5v16.2h7.1V289c0-2.3-0.6-4.1-1.8-5.3
		C61.3,282.5,59.7,281.8,57.6,281.8 M38.8,300.9c-0.9,0.5-1.8,0.8-2.6,0.8c-0.8,0-1.3-0.2-1.7-0.7s-0.5-1.3-0.5-2.4v-11h4.7l0.8-5
		H34v-6l-7.1,0.8v5.2h-3.4v5h3.4v11.1c0,5.7,2.6,8.6,7.8,8.6c1.1,0,2.3-0.2,3.4-0.5c1.2-0.3,2.2-0.8,3-1.4L38.8,300.9z M6.8,269.1
		l1.8,3.6l10.8-3.9l-2.7-5.3L6.8,269.1z M3.5,275.3v31.2h19.1v-5.3H10.9v-8h9.6V288h-9.6v-7.5h11l0.8-5.3H3.5z"/>
	<path class="st0" d="M134.8,245.1c-1.2,0-2.1,0.4-2.9,1.2c-0.8,0.8-1.2,1.7-1.2,2.9c0,0.7,0.2,1.3,0.5,1.9c0.3,0.6,0.8,1.1,1.3,1.5
		l-1.9,7.9h4l2.8-6.5c0.5-1.2,0.9-2.1,1.1-2.8c0.2-0.7,0.3-1.3,0.3-2c0-1.1-0.4-2.1-1.2-2.9C136.9,245.5,135.9,245.1,134.8,245.1
		 M127,246.9c-0.9,0.5-1.8,0.8-2.6,0.8c-0.8,0-1.3-0.2-1.7-0.7c-0.4-0.5-0.5-1.3-0.5-2.4v-11h4.7l0.8-4.9h-5.5v-6l-7.1,0.8v5.2h-3.4
		v4.9h3.4v11.1c0,5.7,2.6,8.6,7.8,8.6c1.1,0,2.3-0.2,3.4-0.5c1.2-0.3,2.2-0.8,3-1.4L127,246.9z M102.5,227.8c-1.5,0-2.8,0.3-4,0.9
		c-1.2,0.6-2.3,1.5-3.3,2.7l-0.5-2.8h-6.2v23.9h7.1v-16.3c1.3-2.1,2.7-3.1,4.1-3.1c0.7,0,1.3,0.2,1.7,0.7s0.6,1.3,0.6,2.5v16.2h7.1
		V235c0-2.3-0.6-4.1-1.8-5.3C106.2,228.5,104.5,227.8,102.5,227.8 M72,248.2c-0.9,0-1.6-0.3-2-0.8c-0.5-0.5-0.7-1.3-0.7-2.2
		c0-1.2,0.4-2.1,1.2-2.7c0.8-0.6,2-0.9,3.6-0.9h1.8v4.2C74.9,247.4,73.7,248.2,72,248.2 M82.8,245.6v-9.3c0-2.8-0.8-4.9-2.4-6.3
		c-1.6-1.4-4.1-2.1-7.5-2.1c-1.4,0-2.8,0.1-4.4,0.4c-1.6,0.3-3.1,0.7-4.6,1.3l1.6,4.7c1.2-0.4,2.3-0.7,3.4-0.9
		c1.1-0.2,2.1-0.3,2.8-0.3c1.5,0,2.5,0.3,3.1,0.8c0.6,0.5,0.9,1.5,0.9,2.9v1h-2.4c-3.6,0-6.4,0.7-8.3,2.1c-1.9,1.4-2.9,3.4-2.9,6
		c0,2.2,0.7,4,2.1,5.4c1.4,1.4,3.3,2.1,5.7,2.1c3.2,0,5.6-1.2,7.2-3.6c0.5,1.1,1.2,2,2.2,2.5c0.9,0.5,2.1,0.8,3.6,1l1.5-4.6
		c-0.6-0.2-1-0.5-1.2-0.9C82.9,247.1,82.8,246.5,82.8,245.6 M55,228.6l-4.4,18.5l-4.2-18.5h-7.7l7.7,23.9h8.4l7.5-23.9H55z
		 M32.5,216c-1.2,0-2.2,0.4-3,1.1c-0.8,0.8-1.2,1.7-1.2,2.9s0.4,2.1,1.2,2.9c0.8,0.8,1.8,1.1,3,1.1c1.2,0,2.2-0.4,3-1.1
		c0.8-0.8,1.2-1.7,1.2-2.9s-0.4-2.1-1.2-2.9C34.8,216.4,33.8,216,32.5,216 M29,252.5h7.1v-23.9H29V252.5z M19.3,221.3l-5.6,25.4
		l-5.9-25.4H0l9,31.2h9.2l8.7-31.2H19.3z"/>
	<path class="st0" d="M329.3,184.4h-8c0.1-2.1,0.6-3.6,1.2-4.5c0.7-0.9,1.6-1.4,2.9-1.4c2.5,0,3.8,1.8,3.9,5.5V184.4z M336.3,186.1
		c0-3.8-1-6.8-2.9-9c-2-2.2-4.7-3.2-8.1-3.2c-2.3,0-4.4,0.6-6,1.7s-3,2.7-3.8,4.6c-0.9,1.9-1.3,4.1-1.3,6.5c0,3.8,1,6.9,3.1,9.2
		c2.1,2.3,5,3.4,8.9,3.4c3.4,0,6.5-1.1,9.3-3.3l-2.9-4c-1,0.7-2,1.3-2.9,1.6c-0.9,0.3-1.8,0.5-2.8,0.5c-1.6,0-2.8-0.4-3.7-1.2
		c-0.9-0.8-1.5-2.2-1.7-4.2h14.8C336.2,187.9,336.3,187.1,336.3,186.1 M303.8,173.8c-1.5,0-2.8,0.3-4,0.9c-1.2,0.6-2.2,1.6-3.2,2.9
		c-0.5-1.2-1.2-2.1-2.1-2.8c-1-0.7-2.1-1-3.5-1c-1.4,0-2.7,0.3-3.8,0.9c-1.1,0.6-2.2,1.5-3.1,2.7l-0.5-2.8h-6.2v23.9h7.1v-16.3
		c0.5-1,1.1-1.8,1.7-2.3c0.6-0.5,1.2-0.8,2-0.8c1.4,0,2,1.1,2,3.2v16.2h7.1v-16.3c0.5-1.1,1.1-1.8,1.7-2.3c0.6-0.5,1.2-0.8,2-0.8
		c1.4,0,2,1.1,2,3.2v16.2h7.1V181c0-2.2-0.6-4-1.7-5.3C307.2,174.5,305.7,173.8,303.8,173.8 M264.1,173.8c-2,0-3.7,0.3-5.2,1
		c-1.5,0.6-2.6,1.5-3.4,2.6c-0.8,1.1-1.2,2.3-1.2,3.7c0,1.8,0.6,3.4,1.8,4.6c1.2,1.2,2.9,2.2,5.3,2.9c1.5,0.4,2.6,0.8,3.3,1.1
		c0.7,0.3,1.2,0.6,1.4,0.9c0.2,0.3,0.4,0.8,0.4,1.4c0,0.7-0.3,1.3-0.9,1.7c-0.6,0.4-1.5,0.6-2.5,0.6c-2.2,0-4.3-0.8-6.3-2.3
		l-3.5,3.9c1.2,1.1,2.7,2,4.4,2.6c1.7,0.6,3.6,0.9,5.6,0.9c2,0,3.8-0.3,5.4-0.9c1.6-0.6,2.9-1.5,3.8-2.7c0.9-1.2,1.4-2.6,1.4-4.2
		c0-2-0.6-3.6-1.8-4.8s-3.1-2.1-5.6-2.8c-1.4-0.4-2.5-0.8-3.2-1.1c-0.7-0.3-1.1-0.6-1.4-0.9c-0.2-0.3-0.3-0.7-0.3-1.1
		c0-0.6,0.2-1,0.7-1.3c0.5-0.3,1.2-0.5,2.1-0.5c2,0,3.9,0.6,5.9,1.8l2.6-4c-1.1-0.9-2.5-1.7-4-2.2
		C267.4,174.1,265.8,173.8,264.1,173.8 M246.5,162c-1.2,0-2.2,0.4-3,1.1c-0.8,0.8-1.2,1.7-1.2,2.9s0.4,2.1,1.2,2.9
		c0.8,0.8,1.8,1.1,3,1.1c1.2,0,2.2-0.4,3-1.1c0.8-0.8,1.2-1.7,1.2-2.9s-0.4-2.1-1.2-2.9C248.7,162.4,247.7,162,246.5,162 M243,198.5
		h7.1v-23.9H243V198.5z M231,173.8c-1.5,0-2.8,0.3-4,0.9c-1.2,0.6-2.3,1.5-3.3,2.7l-0.5-2.8H217v23.9h7.1v-16.3
		c1.3-2.1,2.7-3.1,4.1-3.1c0.7,0,1.3,0.2,1.7,0.7s0.6,1.3,0.6,2.5v16.2h7.1V181c0-2.3-0.6-4.1-1.8-5.3S233.1,173.8,231,173.8
		 M200.6,194.2c-0.9,0-1.6-0.3-2-0.8c-0.5-0.5-0.7-1.3-0.7-2.2c0-1.2,0.4-2.1,1.2-2.7c0.8-0.6,2-0.9,3.6-0.9h1.8v4.2
		C203.5,193.4,202.2,194.2,200.6,194.2 M211.4,191.6v-9.3c0-2.8-0.8-4.9-2.4-6.3c-1.6-1.4-4.1-2.1-7.5-2.1c-1.4,0-2.8,0.1-4.4,0.4
		s-3.1,0.7-4.6,1.3l1.6,4.7c1.2-0.4,2.3-0.7,3.4-0.9c1.1-0.2,2.1-0.3,2.8-0.3c1.5,0,2.5,0.3,3.1,0.8s0.9,1.5,0.9,2.9v1H202
		c-3.6,0-6.4,0.7-8.3,2.1c-1.9,1.4-2.9,3.4-2.9,6c0,2.2,0.7,4,2.1,5.4c1.4,1.4,3.3,2.1,5.7,2.1c3.2,0,5.6-1.2,7.2-3.6
		c0.5,1.1,1.2,2,2.2,2.5c0.9,0.5,2.1,0.8,3.6,1l1.5-4.6c-0.6-0.2-1-0.5-1.2-0.9C211.5,193.1,211.4,192.5,211.4,191.6 M176.8,194.1
		c-0.8,0-1.4-0.2-2.1-0.6c-0.6-0.4-1.2-1-1.6-1.7v-9.9c1.1-1.9,2.5-2.8,4.1-2.8c1.3,0,2.2,0.5,2.9,1.6c0.7,1.1,1,3,1,5.9
		C181,191.6,179.6,194.1,176.8,194.1 M179.5,173.8c-1.3,0-2.5,0.3-3.7,0.9c-1.1,0.6-2,1.4-2.8,2.3v-12.7l-7.1,0.8v33.4h6.3l0.4-2.3
		c0.7,1,1.7,1.7,2.7,2.2c1.1,0.5,2.2,0.8,3.5,0.8c1.9,0,3.6-0.5,5.1-1.6s2.5-2.6,3.3-4.5s1.1-4.1,1.1-6.6c0-4-0.8-7.1-2.3-9.4
		S182.4,173.8,179.5,173.8 M160.9,173.9c-1.4,0-2.6,0.5-3.7,1.4c-1.1,0.9-1.9,2.2-2.5,3.9l-0.6-4.6h-6.2v23.9h7.1v-11.8
		c0.4-1.9,1-3.4,1.7-4.4c0.7-1,1.8-1.5,3.2-1.5c0.5,0,1.3,0.1,2.2,0.3l1.1-6.9C162.5,174,161.7,173.9,160.9,173.9 M142.6,167.3h-7.4
		v20.5c0,2-0.4,3.5-1.1,4.5c-0.8,1-2,1.5-3.7,1.5c-1.6,0-2.9-0.5-3.6-1.5c-0.8-1-1.1-2.5-1.1-4.5v-20.5h-7.4v20.8
		c0,3.4,1,6.1,3.1,8.1c2.1,2,5.1,3,9,3c2.6,0,4.9-0.5,6.7-1.4c1.8-1,3.2-2.3,4.1-4c0.9-1.7,1.4-3.6,1.4-5.7V167.3z M96,173.8
		c-1.5,0-2.8,0.3-4,0.9c-1.2,0.6-2.3,1.5-3.3,2.7l-0.5-2.8H82v23.9h7.1v-16.3c1.3-2.1,2.7-3.1,4.1-3.1c0.8,0,1.3,0.2,1.7,0.7
		c0.4,0.5,0.6,1.3,0.6,2.5v16.2h7.1V181c0-2.3-0.6-4.1-1.8-5.3C99.7,174.5,98.1,173.8,96,173.8 M76.4,174.6h-7.1v16.6
		c-1.1,1.9-2.4,2.8-3.9,2.8c-0.8,0-1.4-0.2-1.7-0.7s-0.6-1.3-0.6-2.5v-16.2H56v17.1c0,2.4,0.6,4.2,1.7,5.5c1.1,1.3,2.8,2,5,2
		c3.1,0,5.5-1.3,7.2-3.8l0.3,3h6.2V174.6z M40.8,192.9c-0.9,0.5-1.8,0.8-2.6,0.8c-0.8,0-1.3-0.2-1.7-0.7c-0.4-0.5-0.5-1.3-0.5-2.4
		v-11h4.7l0.8-4.9H36v-6l-7.1,0.8v5.2h-3.4v4.9h3.4v11.1c0,5.7,2.6,8.6,7.8,8.6c1.1,0,2.3-0.2,3.4-0.5c1.2-0.3,2.2-0.8,3-1.4
		L40.8,192.9z M17.2,184.4h-8c0.1-2.1,0.6-3.6,1.2-4.5c0.7-0.9,1.6-1.4,2.9-1.4c2.5,0,3.8,1.8,3.9,5.5V184.4z M24.2,186.1
		c0-3.8-1-6.8-2.9-9c-1.9-2.2-4.6-3.2-8.1-3.2c-2.3,0-4.4,0.6-6,1.7s-3,2.7-3.8,4.6C2.5,182,2,184.2,2,186.7c0,3.8,1,6.9,3.1,9.2
		c2.1,2.3,5,3.4,8.9,3.4c3.4,0,6.5-1.1,9.3-3.3l-2.9-4c-1,0.7-2,1.3-2.9,1.6c-0.9,0.3-1.8,0.5-2.8,0.5c-1.6,0-2.8-0.4-3.7-1.2
		c-0.9-0.8-1.5-2.2-1.7-4.2h14.8C24.2,187.9,24.2,187.1,24.2,186.1"/>
	<path class="st0" d="M330.7,130.4h-8c0.1-2.1,0.6-3.6,1.2-4.5c0.7-0.9,1.6-1.4,2.9-1.4c2.5,0,3.8,1.8,3.9,5.5V130.4z M337.6,132.1
		c0-3.8-1-6.8-2.9-9c-2-2.2-4.6-3.2-8.1-3.2c-2.3,0-4.4,0.6-6,1.7s-3,2.7-3.8,4.6c-0.9,1.9-1.3,4.1-1.3,6.5c0,3.8,1,6.9,3.1,9.2
		s5,3.4,8.9,3.4c3.4,0,6.5-1.1,9.3-3.3l-2.9-4c-1,0.7-2,1.3-2.9,1.6c-0.9,0.3-1.8,0.5-2.8,0.5c-1.6,0-2.8-0.4-3.7-1.2
		c-0.9-0.8-1.5-2.2-1.7-4.2h14.8C337.6,133.9,337.6,133.1,337.6,132.1 M313.1,119.9c-1.4,0-2.6,0.5-3.7,1.4
		c-1.1,0.9-1.9,2.2-2.5,3.9l-0.6-4.6h-6.2v23.9h7.1v-11.8c0.4-2,1-3.4,1.7-4.4c0.7-1,1.8-1.5,3.2-1.5c0.5,0,1.3,0.1,2.2,0.3l1.1-6.9
		C314.7,120,313.9,119.9,313.1,119.9 M294.5,120.6h-7.1v16.6c-1.1,1.9-2.4,2.8-3.9,2.8c-0.8,0-1.4-0.2-1.7-0.7
		c-0.4-0.5-0.6-1.3-0.6-2.5v-16.2h-7.1v17.1c0,2.4,0.6,4.2,1.7,5.5c1.1,1.3,2.8,2,5,2c3.1,0,5.5-1.3,7.2-3.8l0.3,3h6.2V120.6z
		 M269.6,138.9c-0.9,0.5-1.8,0.8-2.6,0.8c-0.8,0-1.3-0.2-1.7-0.7c-0.4-0.5-0.5-1.3-0.5-2.4v-11h4.7l0.8-5h-5.5v-6l-7.1,0.8v5.2h-3.4
		v5h3.4v11.1c0,5.7,2.6,8.6,7.8,8.6c1.1,0,2.3-0.2,3.4-0.5s2.2-0.8,3-1.4L269.6,138.9z M245.8,119.8c-2.3,0-4.4,0.5-6.2,1.6
		s-3.1,2.6-4.1,4.6c-1,1.9-1.4,4.2-1.4,6.7s0.5,4.7,1.4,6.6c1,1.9,2.3,3.3,4.1,4.4c1.8,1,3.9,1.6,6.3,1.6c3,0,5.7-0.9,8.1-2.8
		l-3.1-4.4c-0.9,0.6-1.7,1-2.4,1.2c-0.7,0.3-1.4,0.4-2.2,0.4c-1.5,0-2.7-0.5-3.5-1.6c-0.8-1.1-1.2-2.8-1.2-5.4
		c0-2.6,0.4-4.5,1.2-5.7c0.8-1.2,2-1.8,3.6-1.8c1.5,0,3,0.6,4.5,1.7l3.1-4.2c-1.2-1-2.4-1.7-3.7-2.2
		C248.9,120.1,247.4,119.8,245.8,119.8 M224.5,130.4h-8c0.1-2.1,0.6-3.6,1.2-4.5c0.7-0.9,1.6-1.4,2.9-1.4c2.5,0,3.8,1.8,3.9,5.5
		V130.4z M231.4,132.1c0-3.8-1-6.8-2.9-9s-4.6-3.2-8.1-3.2c-2.3,0-4.3,0.6-6,1.7c-1.7,1.1-3,2.7-3.8,4.6c-0.9,1.9-1.3,4.1-1.3,6.5
		c0,3.8,1,6.9,3.1,9.2c2.1,2.3,5,3.4,8.9,3.4c3.4,0,6.5-1.1,9.3-3.3l-2.9-4c-1.1,0.7-2,1.3-2.9,1.6c-0.9,0.3-1.8,0.5-2.8,0.5
		c-1.6,0-2.8-0.4-3.7-1.2c-0.9-0.8-1.5-2.2-1.7-4.2h14.8C231.4,133.9,231.4,133.1,231.4,132.1 M206.6,138.9
		c-0.9,0.5-1.8,0.8-2.6,0.8c-0.8,0-1.4-0.2-1.7-0.7c-0.4-0.5-0.5-1.3-0.5-2.4v-11h4.7l0.8-5h-5.5v-6l-7.1,0.8v5.2h-3.4v5h3.4v11.1
		c0,5.7,2.6,8.6,7.8,8.6c1.1,0,2.3-0.2,3.4-0.5c1.2-0.3,2.2-0.8,3-1.4L206.6,138.9z M184.9,108c-1.2,0-2.2,0.4-3,1.1
		c-0.8,0.8-1.2,1.7-1.2,2.9s0.4,2.1,1.2,2.9c0.8,0.8,1.8,1.1,3,1.1c1.2,0,2.2-0.4,3-1.1c0.8-0.8,1.2-1.7,1.2-2.9s-0.4-2.1-1.2-2.9
		C187.1,108.4,186.1,108,184.9,108 M181.3,144.5h7.1v-23.9h-7.1V144.5z M169.4,119.8c-1.4,0-2.6,0.3-3.7,0.8
		c-1.1,0.6-2.2,1.4-3.2,2.5v-12.8l-7.1,0.7v33.4h7.1v-16.4c1.3-2,2.7-3.1,4.1-3.1c0.7,0,1.3,0.2,1.7,0.7c0.4,0.5,0.6,1.3,0.6,2.5
		v16.2h7.1V127c0-2.3-0.6-4.1-1.8-5.3C173.1,120.5,171.4,119.8,169.4,119.8 M144.2,119.8c-2.3,0-4.4,0.5-6.2,1.6
		c-1.8,1.1-3.1,2.6-4.1,4.6c-1,1.9-1.4,4.2-1.4,6.7s0.5,4.7,1.4,6.6c1,1.9,2.3,3.3,4.1,4.4c1.8,1,3.9,1.6,6.3,1.6
		c3,0,5.7-0.9,8.1-2.8l-3.1-4.4c-0.9,0.6-1.7,1-2.4,1.2c-0.7,0.3-1.4,0.4-2.2,0.4c-1.5,0-2.7-0.5-3.5-1.6s-1.2-2.8-1.2-5.4
		c0-2.6,0.4-4.5,1.2-5.7s2-1.8,3.6-1.8c1.5,0,3,0.6,4.5,1.7l3.1-4.2c-1.2-1-2.4-1.7-3.7-2.2C147.3,120.1,145.8,119.8,144.2,119.8
		 M130.1,119.9c-1.4,0-2.6,0.5-3.7,1.4c-1.1,0.9-1.9,2.2-2.5,3.9l-0.6-4.6h-6.2v23.9h7.1v-11.8c0.4-2,1-3.4,1.7-4.4
		c0.7-1,1.8-1.5,3.2-1.5c0.5,0,1.3,0.1,2.2,0.3l1.1-6.9C131.8,120,131,119.9,130.1,119.9 M101,118.7l3.3,13.8h-6.6L101,118.7z
		 M115,144.5l-9.4-31.2h-9l-9.4,31.2h7.6l1.6-6.7h9.1l1.6,6.7H115z M68.9,130.4h-8c0.2-2.1,0.6-3.6,1.2-4.5c0.7-0.9,1.6-1.4,2.9-1.4
		c2.5,0,3.8,1.8,3.9,5.5V130.4z M75.9,132.1c0-3.8-1-6.8-2.9-9s-4.7-3.2-8.1-3.2c-2.3,0-4.3,0.6-6,1.7s-3,2.7-3.8,4.6
		c-0.9,1.9-1.3,4.1-1.3,6.5c0,3.8,1,6.9,3.1,9.2s5,3.4,8.9,3.4c3.4,0,6.5-1.1,9.3-3.3l-2.9-4c-1,0.7-2,1.3-2.9,1.6
		c-0.9,0.3-1.8,0.5-2.8,0.5c-1.6,0-2.8-0.4-3.7-1.2c-0.9-0.8-1.5-2.2-1.7-4.2h14.8C75.9,133.9,75.9,133.1,75.9,132.1 M43.1,119.8
		c-1.5,0-2.8,0.3-4,0.9c-1.2,0.6-2.3,1.5-3.3,2.7l-0.5-2.8h-6.2v23.9h7.1v-16.3c1.3-2.1,2.7-3.1,4.1-3.1c0.7,0,1.3,0.2,1.7,0.7
		c0.4,0.5,0.6,1.3,0.6,2.5v16.2h7.1V127c0-2.3-0.6-4.1-1.8-5.3C46.8,120.5,45.2,119.8,43.1,119.8 M23.5,120.6h-7.1v16.6
		c-1.1,1.9-2.4,2.8-3.9,2.8c-0.8,0-1.4-0.2-1.7-0.7c-0.4-0.5-0.6-1.3-0.6-2.5v-16.2H3.1v17.1c0,2.4,0.6,4.2,1.7,5.5
		c1.1,1.3,2.8,2,5,2c3.1,0,5.5-1.3,7.2-3.8l0.3,3h6.2V120.6z"/>
	<path class="st0" d="M198.1,76.4h-8c0.2-2.1,0.6-3.6,1.2-4.5s1.6-1.4,2.9-1.4c2.5,0,3.8,1.8,3.9,5.5V76.4z M205.1,78.1
		c0-3.8-1-6.8-2.9-9c-1.9-2.2-4.6-3.2-8.1-3.2c-2.3,0-4.4,0.6-6,1.7c-1.7,1.1-3,2.7-3.8,4.6c-0.9,1.9-1.3,4.1-1.3,6.5
		c0,3.8,1,6.9,3.1,9.2c2.1,2.3,5,3.4,8.9,3.4c3.4,0,6.5-1.1,9.3-3.3l-2.9-4c-1.1,0.7-2,1.3-2.9,1.6c-0.9,0.3-1.8,0.5-2.8,0.5
		c-1.6,0-2.8-0.4-3.7-1.2s-1.5-2.2-1.7-4.2h14.8C205,79.9,205.1,79.1,205.1,78.1 M180.5,65.9c-1.4,0-2.6,0.5-3.7,1.4
		c-1.1,0.9-1.9,2.2-2.5,3.9l-0.6-4.6h-6.2v23.9h7.1V78.7c0.4-2,1-3.4,1.7-4.4s1.8-1.5,3.2-1.5c0.5,0,1.3,0.1,2.2,0.3l1.1-6.9
		C182.2,66,181.4,65.9,180.5,65.9 M158.4,54c-1.2,0-2.2,0.4-3,1.1c-0.8,0.8-1.2,1.7-1.2,2.9c0,1.2,0.4,2.1,1.2,2.9
		c0.8,0.8,1.8,1.1,3,1.1c1.2,0,2.2-0.4,3-1.1c0.8-0.8,1.2-1.7,1.2-2.9c0-1.2-0.4-2.1-1.2-2.9C160.6,54.4,159.6,54,158.4,54
		 M154.8,90.5h7.1V66.6h-7.1V90.5z M138.4,86.2c-0.9,0-1.6-0.3-2-0.8c-0.5-0.5-0.7-1.3-0.7-2.2c0-1.2,0.4-2.1,1.2-2.7
		c0.8-0.6,2-0.9,3.6-0.9h1.8v4.2C141.3,85.4,140,86.2,138.4,86.2 M149.2,83.6v-9.3c0-2.8-0.8-4.9-2.4-6.3c-1.6-1.4-4.1-2.1-7.5-2.1
		c-1.4,0-2.8,0.2-4.4,0.5c-1.6,0.3-3.1,0.7-4.6,1.3l1.6,4.7c1.2-0.4,2.3-0.7,3.4-0.9c1.1-0.2,2.1-0.3,2.8-0.3c1.5,0,2.6,0.3,3.1,0.8
		c0.6,0.5,0.9,1.5,0.9,2.9v1h-2.4c-3.6,0-6.4,0.7-8.3,2.1c-1.9,1.4-2.9,3.4-2.9,6c0,2.2,0.7,4,2.1,5.4s3.3,2.1,5.7,2.1
		c3.2,0,5.6-1.2,7.2-3.6c0.5,1.1,1.2,2,2.2,2.5c0.9,0.5,2.1,0.8,3.6,1l1.5-4.6c-0.6-0.2-1-0.5-1.2-0.9
		C149.3,85.1,149.2,84.5,149.2,83.6 M118.5,90.5V78.1h9.1v-5.3h-9.1v-8.3h10.4l0.8-5.3h-18.6v31.2H118.5z M95.2,65.9
		c-1.4,0-2.6,0.5-3.7,1.4c-1.1,0.9-1.9,2.2-2.5,3.9l-0.6-4.6h-6.2v23.9h7.1V78.7c0.4-2,1-3.4,1.7-4.4s1.8-1.5,3.2-1.5
		c0.5,0,1.3,0.1,2.2,0.3l1.1-6.9C96.9,66,96.1,65.9,95.2,65.9 M76.7,66.6h-7.1v16.6c-1.1,1.9-2.4,2.8-3.9,2.8
		c-0.8,0-1.4-0.2-1.7-0.7c-0.4-0.5-0.6-1.3-0.6-2.5V66.6h-7.1v17.1c0,2.4,0.6,4.2,1.7,5.5s2.8,2,5,2c3.1,0,5.5-1.3,7.2-3.8l0.3,3
		h6.2V66.6z M40.6,71.1c1.5,0,2.6,0.6,3.3,1.8c0.7,1.2,1.1,3.1,1.1,5.7c0,2.5-0.4,4.4-1.1,5.6C43.1,85.4,42,86,40.6,86
		c-1.5,0-2.6-0.6-3.3-1.8c-0.7-1.2-1.1-3.1-1.1-5.7c0-2.5,0.4-4.4,1.1-5.6C38.1,71.7,39.1,71.1,40.6,71.1 M40.6,65.8
		c-2.4,0-4.5,0.5-6.2,1.6s-3.1,2.5-4,4.4s-1.4,4.1-1.4,6.7c0,4,1,7.1,3.1,9.4c2.1,2.2,4.9,3.4,8.6,3.4c2.4,0,4.5-0.5,6.2-1.6
		c1.8-1,3.1-2.5,4.1-4.4c0.9-1.9,1.4-4.1,1.4-6.7c0-4-1-7.1-3.1-9.4C47.1,67,44.2,65.8,40.6,65.8 M14.1,86c-1.5,0-2.7-0.7-3.6-2.1
		V73.8c0.5-0.9,1.2-1.6,1.9-2.1c0.7-0.5,1.5-0.7,2.3-0.7c1.3,0,2.2,0.5,2.8,1.6s0.9,3.1,0.9,5.9C18.4,83.6,17,86,14.1,86 M16.9,65.8
		c-1.3,0-2.5,0.3-3.7,0.8c-1.2,0.6-2.3,1.4-3.2,2.6l-0.4-2.7H3.4v33.9l7.1-0.8V88.8c1.5,1.6,3.4,2.5,5.8,2.5c1.9,0,3.6-0.5,5-1.6
		c1.4-1.1,2.5-2.6,3.3-4.5c0.8-1.9,1.1-4.1,1.1-6.6c0-4-0.7-7.1-2.2-9.3C22.1,66.9,19.9,65.8,16.9,65.8"/>
	<path class="st0" d="M109.3,12.6h-7.6l-3.2,7.6l-3.3-7.6h-8l6.9,11.3l-7.7,12.6h7.7l4.1-9l4.1,9h8.1l-7.7-12.8L109.3,12.6z
		 M84.1,12.6H77v16.6C76,31.1,74.7,32,73.2,32c-0.8,0-1.4-0.2-1.7-0.7c-0.4-0.5-0.6-1.3-0.6-2.5V12.6h-7.1v17.1
		c0,2.4,0.6,4.2,1.7,5.5c1.1,1.3,2.8,2,5,2c3.1,0,5.5-1.3,7.2-3.8l0.3,3h6.2V12.6z M53,22.4h-8c0.1-2.1,0.6-3.6,1.2-4.5
		s1.6-1.4,2.9-1.4c2.5,0,3.8,1.8,3.9,5.5V22.4z M60,24.1c0-3.8-1-6.8-2.9-9s-4.7-3.2-8.1-3.2c-2.3,0-4.4,0.6-6,1.7s-3,2.7-3.8,4.6
		c-0.9,1.9-1.3,4.1-1.3,6.5c0,3.8,1,6.9,3.1,9.2c2.1,2.3,5,3.4,8.9,3.4c3.4,0,6.5-1.1,9.3-3.3l-2.9-4c-1,0.7-2,1.3-2.9,1.6
		c-0.9,0.3-1.8,0.5-2.8,0.5c-1.6,0-2.8-0.4-3.7-1.2c-0.9-0.8-1.5-2.2-1.7-4.2h14.8C59.9,25.9,60,25.1,60,24.1 M30,0
		c-1.2,0-2.2,0.4-3,1.1c-0.8,0.8-1.2,1.7-1.2,2.9c0,1.2,0.4,2.1,1.2,2.9c0.8,0.8,1.8,1.1,3,1.1s2.2-0.4,3-1.1
		c0.8-0.8,1.2-1.7,1.2-2.9c0-1.2-0.4-2.1-1.2-2.9C32.2,0.4,31.2,0,30,0 M26.5,36.5h7.1V12.6h-7.1V36.5z M3.5,5.3v31.2h18.8l0.8-5.9
		H10.9V5.3H3.5z"/>
</g>
</svg>
