<?xml version="1.0" encoding="utf-8"?>
<!-- Generator: Adobe Illustrator 26.0.2, SVG Export Plug-In . SVG Version: 6.00 Build 0)  -->
<svg version="1.1" id="Calque_1" xmlns="http://www.w3.org/2000/svg" xmlns:xlink="http://www.w3.org/1999/xlink" x="0px" y="0px"
	 viewBox="0 0 112.36 120.55" style="enable-background:new 0 0 112.36 120.55;" xml:space="preserve">
<style type="text/css">
	.st0{fill:#FFFFFF;}
</style>
<g>
	<path class="st0" d="M93.14,115.59h-2.65c0.05-0.69,0.19-1.18,0.41-1.48c0.22-0.3,0.54-0.45,0.95-0.45c0.84,0,1.27,0.61,1.29,1.83
		V115.59z M95.47,116.16c0-1.28-0.32-2.28-0.97-2.99c-0.65-0.72-1.55-1.08-2.7-1.08c-0.78,0-1.45,0.19-2.01,0.56
		c-0.56,0.37-0.98,0.88-1.27,1.53c-0.29,0.64-0.43,1.37-0.43,2.18c0,1.28,0.34,2.3,1.03,3.05c0.69,0.76,1.68,1.14,2.97,1.14
		c1.14,0,2.17-0.37,3.1-1.11l-0.97-1.32c-0.35,0.24-0.67,0.42-0.97,0.53c-0.3,0.12-0.61,0.17-0.93,0.17c-0.53,0-0.94-0.13-1.24-0.4
		c-0.3-0.27-0.49-0.74-0.57-1.41h4.93C95.45,116.78,95.47,116.49,95.47,116.16 M86.27,120.55c0.53,0,1.01-0.09,1.44-0.27l-0.46-1.68
		c-0.12,0.05-0.25,0.07-0.39,0.07c-0.27,0-0.4-0.16-0.4-0.49v-9.25l-2.37,0.25v9.09c0,0.73,0.19,1.29,0.58,1.69
		C85.05,120.35,85.58,120.55,86.27,120.55 M78.83,118.83c-0.25,0-0.48-0.07-0.7-0.2c-0.21-0.13-0.4-0.32-0.55-0.56v-3.31
		c0.37-0.62,0.82-0.93,1.35-0.93c0.42,0,0.74,0.18,0.96,0.54c0.22,0.36,0.33,1.01,0.33,1.96C80.22,117.99,79.76,118.83,78.83,118.83
		 M79.73,112.09c-0.44,0-0.85,0.09-1.22,0.28c-0.37,0.19-0.68,0.45-0.92,0.78v-4.22l-2.37,0.25v11.11h2.1l0.12-0.76
		c0.25,0.32,0.55,0.57,0.91,0.75c0.35,0.18,0.75,0.27,1.17,0.27c0.65,0,1.21-0.18,1.69-0.54c0.47-0.36,0.84-0.86,1.09-1.5
		c0.25-0.64,0.38-1.37,0.38-2.19c0-1.34-0.25-2.38-0.76-3.12C81.4,112.46,80.67,112.09,79.73,112.09 M69.75,118.86
		c-0.29,0-0.52-0.09-0.68-0.26c-0.16-0.17-0.25-0.42-0.25-0.74c0-0.4,0.13-0.69,0.4-0.88s0.67-0.28,1.21-0.28h0.58v1.41
		C70.71,118.6,70.29,118.86,69.75,118.86 M73.33,117.99v-3.08c0-0.94-0.26-1.64-0.79-2.11c-0.53-0.47-1.36-0.7-2.5-0.7
		c-0.45,0-0.94,0.05-1.46,0.15c-0.52,0.1-1.04,0.24-1.53,0.43l0.54,1.56c0.39-0.13,0.77-0.23,1.14-0.31
		c0.37-0.08,0.68-0.11,0.94-0.11c0.5,0,0.85,0.09,1.05,0.26c0.2,0.17,0.3,0.5,0.3,0.97v0.34H70.2c-1.21,0-2.13,0.23-2.77,0.69
		c-0.64,0.46-0.96,1.12-0.96,1.99c0,0.74,0.23,1.34,0.7,1.8c0.47,0.46,1.1,0.69,1.89,0.69c1.08,0,1.88-0.4,2.4-1.2
		c0.17,0.38,0.41,0.66,0.72,0.83c0.31,0.17,0.71,0.28,1.2,0.32l0.49-1.54c-0.19-0.07-0.33-0.17-0.41-0.31
		C73.37,118.51,73.33,118.29,73.33,117.99 M63.03,112.09c-0.49,0-0.93,0.1-1.33,0.3c-0.39,0.2-0.76,0.5-1.1,0.9l-0.16-0.94h-2.07
		v7.95h2.37v-5.44c0.44-0.69,0.9-1.03,1.38-1.03c0.25,0,0.44,0.08,0.56,0.23c0.12,0.15,0.19,0.43,0.19,0.83v5.41h2.37v-5.81
		c0-0.76-0.19-1.35-0.58-1.77S63.72,112.09,63.03,112.09 M54.72,115.59h-2.65c0.05-0.69,0.19-1.18,0.41-1.48
		c0.22-0.3,0.54-0.45,0.95-0.45c0.84,0,1.27,0.61,1.29,1.83V115.59z M57.04,116.16c0-1.28-0.32-2.28-0.97-2.99
		c-0.65-0.72-1.55-1.08-2.7-1.08c-0.78,0-1.45,0.19-2.01,0.56c-0.56,0.37-0.98,0.88-1.27,1.53c-0.29,0.64-0.43,1.37-0.43,2.18
		c0,1.28,0.34,2.3,1.03,3.05c0.69,0.76,1.68,1.14,2.97,1.14c1.14,0,2.17-0.37,3.1-1.11l-0.97-1.32c-0.35,0.24-0.67,0.42-0.97,0.53
		c-0.3,0.12-0.61,0.17-0.93,0.17c-0.53,0-0.94-0.13-1.24-0.4c-0.3-0.27-0.49-0.74-0.57-1.41h4.93
		C57.02,116.78,57.04,116.49,57.04,116.16 M48.79,118.42c-0.3,0.17-0.58,0.25-0.85,0.25c-0.26,0-0.45-0.08-0.57-0.24
		c-0.12-0.16-0.18-0.42-0.18-0.79v-3.65h1.57l0.25-1.65h-1.83v-1.99l-2.37,0.27v1.72H43.7v1.65h1.12v3.68
		c0,1.91,0.87,2.86,2.61,2.88c0.38,0,0.76-0.06,1.15-0.16c0.38-0.11,0.72-0.26,1.01-0.46L48.79,118.42z M42.74,112.34h-2.37v5.53
		c-0.36,0.62-0.79,0.93-1.29,0.93c-0.26,0-0.45-0.08-0.58-0.23c-0.12-0.15-0.19-0.43-0.19-0.82v-5.41h-2.37v5.71
		c0,0.79,0.19,1.4,0.56,1.84c0.37,0.44,0.93,0.66,1.65,0.66c1.03,0,1.83-0.42,2.41-1.26l0.1,1h2.05V112.34z M30.73,113.83
		c0.49,0,0.85,0.2,1.09,0.6c0.23,0.4,0.35,1.03,0.35,1.9c0,0.85-0.12,1.48-0.36,1.88c-0.24,0.4-0.6,0.61-1.08,0.61
		c-0.49,0-0.85-0.2-1.09-0.6c-0.24-0.4-0.35-1.03-0.35-1.9c0-0.85,0.12-1.47,0.36-1.88C29.89,114.03,30.25,113.83,30.73,113.83
		 M30.73,112.09c-0.8,0-1.49,0.17-2.07,0.52c-0.58,0.35-1.03,0.84-1.35,1.47c-0.31,0.63-0.47,1.38-0.47,2.22
		c0,1.34,0.35,2.38,1.04,3.12c0.69,0.74,1.64,1.12,2.85,1.12c0.8,0,1.49-0.17,2.07-0.52c0.58-0.35,1.03-0.84,1.35-1.48
		c0.31-0.63,0.47-1.37,0.47-2.22c0-1.34-0.34-2.38-1.03-3.12C32.9,112.46,31.95,112.09,30.73,112.09 M22.1,109.66
		c-0.72,0-1.36,0.12-1.93,0.37c-0.57,0.24-1.01,0.59-1.33,1.05c-0.32,0.45-0.48,0.98-0.48,1.58c0,0.78,0.24,1.42,0.73,1.93
		c0.48,0.51,1.3,0.94,2.45,1.29c0.51,0.16,0.9,0.31,1.17,0.45c0.27,0.14,0.46,0.3,0.57,0.47c0.11,0.17,0.16,0.39,0.16,0.65
		c0,0.4-0.15,0.71-0.44,0.94c-0.29,0.22-0.7,0.34-1.21,0.34c-0.5,0-0.96-0.08-1.39-0.25c-0.42-0.17-0.84-0.42-1.24-0.76l-1.24,1.36
		c0.47,0.45,1.03,0.81,1.69,1.08c0.65,0.27,1.41,0.4,2.25,0.4c0.85,0,1.58-0.14,2.2-0.41c0.62-0.28,1.09-0.66,1.42-1.15
		c0.33-0.49,0.49-1.07,0.49-1.71c0-0.91-0.25-1.61-0.75-2.1c-0.5-0.49-1.28-0.91-2.34-1.25c-0.56-0.18-0.98-0.33-1.26-0.46
		c-0.28-0.13-0.47-0.27-0.58-0.41c-0.11-0.14-0.16-0.33-0.16-0.56c0-0.33,0.12-0.58,0.37-0.76c0.25-0.17,0.59-0.26,1.02-0.26
		c0.81,0,1.57,0.29,2.28,0.87L25.7,111c-0.47-0.45-0.99-0.78-1.57-1C23.56,109.77,22.88,109.66,22.1,109.66 M13.58,118.42
		c-0.3,0.17-0.58,0.25-0.85,0.25c-0.26,0-0.45-0.08-0.57-0.24c-0.12-0.16-0.18-0.42-0.18-0.79v-3.65h1.57l0.25-1.65h-1.83v-1.99
		l-2.37,0.27v1.72H8.49v1.65h1.12v3.68c0,1.91,0.87,2.86,2.61,2.88c0.38,0,0.76-0.06,1.15-0.16c0.38-0.11,0.72-0.26,1.01-0.46
		L13.58,118.42z M5.74,115.59H3.09c0.05-0.69,0.19-1.18,0.41-1.48c0.22-0.3,0.54-0.45,0.95-0.45c0.84,0,1.27,0.61,1.29,1.83V115.59z
		 M8.06,116.16c0-1.28-0.32-2.28-0.97-2.99c-0.65-0.72-1.55-1.08-2.7-1.08c-0.78,0-1.45,0.19-2.01,0.56s-0.98,0.88-1.27,1.53
		c-0.29,0.64-0.43,1.37-0.43,2.18c0,1.28,0.34,2.3,1.03,3.05c0.69,0.76,1.68,1.14,2.97,1.14c1.14,0,2.17-0.37,3.1-1.11l-0.97-1.32
		c-0.35,0.24-0.67,0.42-0.97,0.53c-0.3,0.12-0.61,0.17-0.93,0.17c-0.53,0-0.94-0.13-1.24-0.4c-0.3-0.27-0.49-0.74-0.57-1.41h4.93
		C8.04,116.78,8.06,116.49,8.06,116.16"/>
	<path class="st0" d="M49.54,97.62h-2.65c0.05-0.69,0.19-1.18,0.41-1.48c0.22-0.3,0.54-0.45,0.95-0.45c0.84,0,1.27,0.61,1.29,1.83
		V97.62z M51.86,98.19c0-1.28-0.32-2.28-0.97-3c-0.65-0.72-1.55-1.08-2.7-1.08c-0.78,0-1.45,0.19-2.01,0.56
		c-0.56,0.37-0.98,0.88-1.27,1.53c-0.29,0.64-0.43,1.37-0.43,2.18c0,1.28,0.34,2.3,1.03,3.06c0.69,0.76,1.68,1.14,2.97,1.14
		c1.14,0,2.17-0.37,3.1-1.11l-0.97-1.32c-0.35,0.24-0.67,0.42-0.97,0.53c-0.3,0.12-0.61,0.17-0.93,0.17c-0.53,0-0.94-0.13-1.24-0.4
		c-0.3-0.27-0.49-0.74-0.57-1.41h4.93C51.84,98.81,51.86,98.52,51.86,98.19 M43.07,94.37H40.7v5.53c-0.36,0.62-0.79,0.93-1.29,0.93
		c-0.26,0-0.45-0.08-0.58-0.23c-0.12-0.15-0.19-0.43-0.19-0.82v-5.41h-2.37v5.71c0,0.79,0.19,1.4,0.56,1.84
		c0.37,0.44,0.93,0.66,1.65,0.66c1.03,0,1.83-0.42,2.41-1.26l0.11,1h2.05V94.37z M30.76,100.84c-0.42,0-0.74-0.18-0.97-0.55
		c-0.22-0.37-0.34-1.02-0.34-1.95c0-0.86,0.13-1.49,0.39-1.89c0.26-0.4,0.61-0.61,1.06-0.61c0.25,0,0.47,0.06,0.66,0.16
		c0.19,0.11,0.38,0.28,0.57,0.51v3.43C31.77,100.54,31.31,100.84,30.76,100.84 M32.44,94.37l-0.12,0.69
		c-0.56-0.63-1.24-0.94-2.05-0.94c-0.65,0-1.22,0.18-1.72,0.54c-0.49,0.36-0.88,0.86-1.15,1.49c-0.27,0.63-0.4,1.36-0.4,2.18
		c0,1.32,0.26,2.36,0.77,3.11c0.51,0.76,1.27,1.14,2.25,1.14c0.88,0,1.58-0.34,2.11-1.02v3.83l2.37,0.25V94.37H32.44z M24.32,90.18
		c-0.41,0-0.74,0.13-1,0.38c-0.26,0.25-0.39,0.58-0.39,0.97s0.13,0.71,0.39,0.97c0.26,0.25,0.59,0.38,1,0.38
		c0.41,0,0.75-0.13,1.01-0.38c0.26-0.25,0.4-0.58,0.4-0.97s-0.13-0.71-0.4-0.97C25.07,90.31,24.73,90.18,24.32,90.18 M23.15,102.33
		h2.37v-7.95h-2.37V102.33z M19.17,94.12c-0.46,0-0.87,0.09-1.24,0.28c-0.37,0.19-0.72,0.46-1.05,0.83v-4.25l-2.37,0.24v11.11h2.37
		v-5.45c0.44-0.68,0.9-1.02,1.38-1.02c0.24,0,0.42,0.08,0.55,0.23c0.13,0.15,0.19,0.43,0.19,0.83v5.41h2.37v-5.81
		c0-0.76-0.19-1.35-0.58-1.77C20.4,94.33,19.86,94.12,19.17,94.12 M12.92,100.45c-0.3,0.17-0.58,0.25-0.85,0.25
		c-0.26,0-0.45-0.08-0.57-0.24c-0.12-0.16-0.18-0.42-0.18-0.79v-3.65h1.57l0.25-1.65h-1.83v-1.99l-2.37,0.27v1.72H7.83v1.65h1.12
		v3.68c0,1.91,0.87,2.86,2.61,2.88c0.38,0,0.76-0.06,1.15-0.16c0.38-0.11,0.72-0.26,1.01-0.46L12.92,100.45z M2.28,89.88l0.6,1.2
		l3.59-1.3l-0.88-1.77L2.28,89.88z M1.17,91.95v10.38h6.36v-1.77H3.62v-2.65h3.19v-1.72H3.62V93.7h3.65l0.25-1.75H1.17z"/>
	<path class="st0" d="M44.85,81.9c-0.39,0-0.71,0.13-0.97,0.39c-0.26,0.26-0.39,0.58-0.39,0.96c0,0.23,0.05,0.44,0.16,0.64
		c0.11,0.2,0.25,0.36,0.44,0.49l-0.64,2.64h1.33l0.94-2.17c0.18-0.4,0.3-0.71,0.37-0.93c0.07-0.22,0.11-0.44,0.11-0.66
		c0-0.38-0.13-0.7-0.39-0.96C45.55,82.03,45.23,81.9,44.85,81.9 M42.27,82.48c-0.3,0.17-0.58,0.25-0.85,0.25
		c-0.26,0-0.45-0.08-0.57-0.24c-0.12-0.16-0.18-0.42-0.18-0.79v-3.65h1.57l0.25-1.65h-1.83v-1.99l-2.37,0.27v1.72h-1.12v1.65h1.12
		v3.68c0,1.91,0.87,2.86,2.61,2.88c0.38,0,0.76-0.06,1.15-0.16c0.38-0.11,0.72-0.26,1.01-0.46L42.27,82.48z M34.1,76.15
		c-0.49,0-0.93,0.1-1.33,0.3c-0.39,0.2-0.76,0.5-1.1,0.9l-0.16-0.94h-2.07v7.95h2.37v-5.44c0.44-0.69,0.9-1.03,1.38-1.03
		c0.25,0,0.44,0.08,0.56,0.23c0.12,0.15,0.19,0.43,0.19,0.83v5.41h2.37v-5.81c0-0.76-0.2-1.35-0.58-1.77S34.79,76.15,34.1,76.15
		 M23.98,82.92c-0.29,0-0.52-0.09-0.68-0.26c-0.16-0.17-0.25-0.42-0.25-0.74c0-0.4,0.13-0.69,0.4-0.88
		c0.26-0.19,0.67-0.28,1.21-0.28h0.58v1.41C24.93,82.66,24.51,82.92,23.98,82.92 M27.55,82.05v-3.08c0-0.94-0.26-1.64-0.79-2.11
		c-0.53-0.47-1.36-0.7-2.5-0.7c-0.45,0-0.94,0.05-1.46,0.15c-0.52,0.1-1.04,0.24-1.53,0.43l0.54,1.56c0.39-0.13,0.77-0.23,1.14-0.31
		c0.37-0.07,0.68-0.11,0.94-0.11c0.5,0,0.85,0.09,1.05,0.26c0.2,0.17,0.3,0.5,0.3,0.97v0.34h-0.81c-1.21,0-2.13,0.23-2.77,0.69
		s-0.96,1.12-0.96,1.99c0,0.74,0.23,1.34,0.7,1.8c0.47,0.46,1.1,0.69,1.89,0.69c1.08,0,1.88-0.4,2.4-1.2
		c0.17,0.38,0.41,0.66,0.72,0.83c0.31,0.17,0.71,0.28,1.2,0.32l0.49-1.54c-0.19-0.07-0.33-0.17-0.41-0.31
		C27.6,82.57,27.55,82.35,27.55,82.05 M18.31,76.4l-1.47,6.16l-1.41-6.16h-2.58l2.56,7.95h2.8l2.5-7.95H18.31z M10.83,72.21
		c-0.41,0-0.74,0.13-1,0.38s-0.39,0.58-0.39,0.97c0,0.39,0.13,0.71,0.39,0.97c0.26,0.25,0.59,0.38,1,0.38
		c0.41,0,0.75-0.13,1.01-0.38c0.26-0.25,0.4-0.58,0.4-0.97c0-0.39-0.13-0.71-0.4-0.97C11.57,72.34,11.24,72.21,10.83,72.21
		 M9.66,84.36h2.37V76.4H9.66V84.36z M6.42,73.98l-1.86,8.46l-1.98-8.46H0l2.99,10.38h3.06l2.89-10.38H6.42z"/>
	<path class="st0" d="M109.59,61.68h-2.65c0.05-0.69,0.19-1.18,0.41-1.48c0.22-0.3,0.54-0.45,0.95-0.45c0.84,0,1.27,0.61,1.29,1.83
		V61.68z M111.91,62.25c0-1.28-0.32-2.28-0.97-2.99c-0.65-0.72-1.55-1.08-2.7-1.08c-0.78,0-1.45,0.19-2.01,0.56
		c-0.56,0.37-0.98,0.88-1.27,1.53c-0.29,0.64-0.43,1.37-0.43,2.18c0,1.28,0.34,2.3,1.03,3.05c0.69,0.76,1.68,1.14,2.97,1.14
		c1.14,0,2.17-0.37,3.1-1.11l-0.97-1.32c-0.35,0.24-0.67,0.42-0.97,0.53c-0.3,0.12-0.61,0.17-0.93,0.17c-0.53,0-0.94-0.13-1.24-0.4
		c-0.3-0.27-0.49-0.74-0.57-1.41h4.93C111.89,62.87,111.91,62.58,111.91,62.25 M101.11,58.18c-0.5,0-0.94,0.1-1.33,0.31
		c-0.38,0.2-0.74,0.52-1.06,0.95c-0.15-0.4-0.39-0.71-0.71-0.93c-0.32-0.22-0.71-0.33-1.16-0.33c-0.48,0-0.91,0.1-1.28,0.29
		c-0.37,0.19-0.72,0.49-1.03,0.89l-0.16-0.93h-2.07v7.95h2.37v-5.44c0.18-0.34,0.37-0.6,0.56-0.77c0.2-0.17,0.41-0.26,0.65-0.26
		c0.45,0,0.67,0.35,0.67,1.06v5.41h2.37v-5.44c0.18-0.35,0.36-0.61,0.55-0.78c0.19-0.17,0.41-0.25,0.66-0.25
		c0.45,0,0.67,0.35,0.67,1.06v5.41h2.37v-5.81c0-0.75-0.19-1.33-0.57-1.76C102.24,58.39,101.74,58.18,101.11,58.18 M87.89,58.18
		c-0.65,0-1.22,0.11-1.71,0.32c-0.49,0.22-0.87,0.5-1.14,0.87c-0.27,0.36-0.4,0.78-0.4,1.24c0,0.61,0.19,1.12,0.58,1.53
		c0.39,0.41,0.98,0.73,1.77,0.96c0.5,0.14,0.86,0.26,1.09,0.35c0.23,0.09,0.38,0.2,0.46,0.31c0.08,0.11,0.12,0.26,0.12,0.45
		c0,0.24-0.1,0.42-0.31,0.55c-0.2,0.13-0.49,0.2-0.85,0.2c-0.74,0-1.44-0.26-2.11-0.78l-1.15,1.29c0.4,0.37,0.89,0.66,1.46,0.87
		c0.57,0.21,1.2,0.32,1.86,0.32c0.66,0,1.26-0.11,1.8-0.32c0.54-0.21,0.96-0.51,1.27-0.91c0.31-0.39,0.46-0.86,0.46-1.4
		c0-0.68-0.2-1.21-0.61-1.6c-0.4-0.38-1.02-0.7-1.85-0.94c-0.48-0.14-0.83-0.26-1.06-0.36c-0.23-0.1-0.38-0.2-0.46-0.29
		c-0.08-0.09-0.11-0.22-0.11-0.37c0-0.19,0.08-0.34,0.25-0.44c0.16-0.11,0.4-0.16,0.71-0.16c0.66,0,1.31,0.2,1.96,0.61l0.87-1.33
		c-0.38-0.31-0.82-0.55-1.32-0.72C88.99,58.26,88.46,58.18,87.89,58.18 M82.03,54.24c-0.41,0-0.74,0.13-1,0.38
		c-0.26,0.25-0.39,0.58-0.39,0.97c0,0.39,0.13,0.71,0.39,0.97c0.26,0.25,0.59,0.38,1,0.38c0.41,0,0.75-0.13,1.01-0.38
		c0.26-0.25,0.4-0.58,0.4-0.97c0-0.39-0.13-0.71-0.4-0.97C82.78,54.37,82.44,54.24,82.03,54.24 M80.86,66.38h2.37v-7.95h-2.37V66.38
		z M76.88,58.18c-0.49,0-0.93,0.1-1.33,0.3c-0.39,0.2-0.76,0.5-1.1,0.9l-0.16-0.94h-2.07v7.95h2.37v-5.44
		c0.44-0.69,0.9-1.03,1.38-1.03c0.25,0,0.44,0.08,0.56,0.23c0.12,0.15,0.19,0.43,0.19,0.83v5.41h2.37v-5.81
		c0-0.76-0.19-1.35-0.58-1.77C78.11,58.39,77.57,58.18,76.88,58.18 M66.76,64.95c-0.29,0-0.52-0.09-0.68-0.26
		c-0.16-0.17-0.25-0.42-0.25-0.74c0-0.4,0.13-0.69,0.4-0.88c0.26-0.19,0.67-0.28,1.21-0.28h0.58v1.41
		C67.72,64.69,67.3,64.95,66.76,64.95 M70.34,64.08v-3.08c0-0.94-0.26-1.64-0.79-2.11c-0.53-0.47-1.36-0.7-2.5-0.7
		c-0.45,0-0.94,0.05-1.46,0.15c-0.52,0.1-1.04,0.24-1.53,0.43l0.54,1.56c0.39-0.13,0.77-0.23,1.14-0.31
		c0.37-0.08,0.68-0.11,0.94-0.11c0.5,0,0.85,0.09,1.05,0.26c0.2,0.17,0.3,0.5,0.3,0.97v0.34h-0.81c-1.21,0-2.13,0.23-2.77,0.69
		c-0.64,0.46-0.96,1.12-0.96,1.99c0,0.74,0.24,1.34,0.7,1.8c0.47,0.46,1.1,0.69,1.89,0.69c1.08,0,1.88-0.4,2.4-1.2
		c0.17,0.38,0.41,0.66,0.72,0.83c0.31,0.17,0.71,0.28,1.2,0.32l0.49-1.54c-0.19-0.07-0.33-0.17-0.41-0.31
		C70.38,64.6,70.34,64.38,70.34,64.08 M58.84,64.92c-0.25,0-0.48-0.07-0.7-0.2c-0.21-0.13-0.4-0.32-0.55-0.56v-3.31
		c0.37-0.62,0.82-0.93,1.35-0.93c0.42,0,0.74,0.18,0.96,0.54c0.22,0.36,0.33,1.01,0.33,1.96C60.23,64.08,59.76,64.92,58.84,64.92
		 M59.74,58.18c-0.44,0-0.85,0.09-1.22,0.28c-0.37,0.19-0.68,0.45-0.92,0.78v-4.22l-2.37,0.25v11.11h2.1l0.12-0.76
		c0.25,0.32,0.55,0.57,0.91,0.75c0.35,0.18,0.75,0.27,1.18,0.27c0.65,0,1.21-0.18,1.68-0.54c0.47-0.36,0.84-0.86,1.09-1.5
		c0.25-0.64,0.38-1.37,0.38-2.19c0-1.34-0.25-2.38-0.76-3.12C61.41,58.55,60.68,58.18,59.74,58.18 M53.54,58.21
		c-0.46,0-0.87,0.16-1.24,0.47c-0.36,0.31-0.64,0.75-0.82,1.29l-0.19-1.54h-2.07v7.95h2.37v-3.94c0.14-0.65,0.33-1.14,0.58-1.46
		c0.24-0.32,0.6-0.49,1.07-0.49c0.18,0,0.42,0.04,0.72,0.11l0.37-2.29C54.09,58.24,53.83,58.21,53.54,58.21 M47.47,56.01h-2.46v6.83
		c0,0.67-0.13,1.17-0.38,1.49c-0.25,0.32-0.66,0.49-1.22,0.49c-0.55,0-0.95-0.16-1.21-0.49c-0.25-0.32-0.38-0.82-0.38-1.49v-6.83
		h-2.46v6.93c0,1.13,0.34,2.03,1.03,2.7c0.69,0.67,1.69,1,3.01,1c0.88,0,1.62-0.16,2.23-0.48c0.61-0.32,1.07-0.76,1.37-1.32
		c0.3-0.56,0.46-1.19,0.46-1.9V56.01z M31.94,58.18c-0.49,0-0.93,0.1-1.33,0.3c-0.39,0.2-0.76,0.5-1.1,0.9l-0.16-0.94h-2.07v7.95
		h2.37v-5.44c0.44-0.69,0.9-1.03,1.38-1.03c0.25,0,0.44,0.08,0.56,0.23c0.12,0.15,0.19,0.43,0.19,0.83v5.41h2.37v-5.81
		c0-0.76-0.2-1.35-0.58-1.77C33.17,58.39,32.63,58.18,31.94,58.18 M25.43,58.43h-2.37v5.53c-0.36,0.62-0.79,0.93-1.29,0.93
		c-0.26,0-0.45-0.08-0.58-0.23c-0.12-0.15-0.19-0.43-0.19-0.82v-5.41h-2.37v5.71c0,0.79,0.19,1.4,0.56,1.84
		c0.37,0.44,0.93,0.66,1.65,0.66c1.03,0,1.83-0.42,2.41-1.26l0.11,1h2.05V58.43z M13.58,64.51c-0.3,0.17-0.58,0.25-0.85,0.25
		c-0.26,0-0.45-0.08-0.57-0.24s-0.18-0.42-0.18-0.79v-3.65h1.57l0.25-1.65h-1.83v-1.99l-2.37,0.27v1.72H8.49v1.65h1.12v3.68
		c0,1.91,0.87,2.86,2.61,2.88c0.38,0,0.76-0.06,1.15-0.16c0.38-0.11,0.72-0.26,1.01-0.46L13.58,64.51z M5.74,61.68H3.09
		c0.05-0.69,0.19-1.18,0.41-1.48c0.22-0.3,0.54-0.45,0.95-0.45c0.84,0,1.27,0.61,1.29,1.83V61.68z M8.06,62.25
		c0-1.28-0.32-2.28-0.97-2.99c-0.65-0.72-1.55-1.08-2.7-1.08c-0.78,0-1.45,0.19-2.01,0.56s-0.98,0.88-1.27,1.53
		c-0.29,0.64-0.43,1.37-0.43,2.18c0,1.28,0.34,2.3,1.03,3.05c0.69,0.76,1.68,1.14,2.97,1.14c1.14,0,2.17-0.37,3.1-1.11L6.8,64.21
		c-0.35,0.24-0.67,0.42-0.97,0.53c-0.3,0.12-0.61,0.17-0.93,0.17c-0.53,0-0.94-0.13-1.24-0.4c-0.3-0.27-0.49-0.74-0.57-1.41h4.93
		C8.04,62.87,8.06,62.58,8.06,62.25"/>
	<path class="st0" d="M110.04,43.71h-2.65c0.05-0.69,0.19-1.18,0.41-1.48c0.23-0.3,0.54-0.45,0.95-0.45c0.84,0,1.27,0.61,1.29,1.83
		V43.71z M112.36,44.28c0-1.28-0.32-2.28-0.97-3s-1.55-1.08-2.7-1.08c-0.78,0-1.45,0.19-2.01,0.56c-0.56,0.37-0.98,0.88-1.27,1.53
		c-0.29,0.64-0.43,1.37-0.43,2.18c0,1.28,0.34,2.3,1.03,3.06c0.69,0.76,1.68,1.14,2.97,1.14c1.14,0,2.17-0.37,3.1-1.11l-0.97-1.32
		c-0.35,0.24-0.67,0.42-0.97,0.53c-0.3,0.12-0.61,0.17-0.93,0.17c-0.53,0-0.94-0.13-1.24-0.4c-0.3-0.27-0.49-0.74-0.57-1.41h4.93
		C112.34,44.9,112.36,44.61,112.36,44.28 M104.18,40.24c-0.46,0-0.87,0.16-1.24,0.47c-0.36,0.32-0.64,0.75-0.82,1.3l-0.2-1.54h-2.07
		v7.95h2.37v-3.94c0.14-0.65,0.33-1.14,0.58-1.46c0.24-0.32,0.6-0.49,1.07-0.49c0.18,0,0.42,0.04,0.72,0.1l0.37-2.29
		C104.73,40.27,104.47,40.24,104.18,40.24 M98.01,40.46h-2.37v5.53c-0.36,0.62-0.79,0.93-1.29,0.93c-0.26,0-0.45-0.08-0.58-0.23
		c-0.12-0.16-0.19-0.43-0.19-0.82v-5.41h-2.37v5.71c0,0.79,0.19,1.4,0.56,1.84c0.37,0.44,0.93,0.66,1.65,0.66
		c1.03,0,1.83-0.42,2.41-1.26l0.11,1h2.05V40.46z M89.71,46.54c-0.3,0.17-0.58,0.25-0.85,0.25c-0.26,0-0.45-0.08-0.57-0.24
		c-0.12-0.16-0.18-0.42-0.18-0.79v-3.65h1.57l0.25-1.65h-1.83v-1.99l-2.37,0.27v1.72h-1.12v1.65h1.12v3.68
		c0,1.91,0.87,2.86,2.61,2.87c0.38,0,0.76-0.05,1.15-0.16c0.38-0.11,0.72-0.26,1.01-0.46L89.71,46.54z M81.79,40.21
		c-0.78,0-1.46,0.18-2.05,0.55c-0.59,0.36-1.04,0.87-1.36,1.52c-0.32,0.65-0.48,1.39-0.48,2.23c0,0.84,0.16,1.57,0.48,2.19
		c0.32,0.62,0.77,1.11,1.36,1.45c0.59,0.34,1.29,0.52,2.1,0.52c1,0,1.89-0.31,2.68-0.94l-1.03-1.47c-0.31,0.19-0.57,0.33-0.79,0.41
		c-0.22,0.09-0.46,0.13-0.73,0.13c-0.51,0-0.9-0.17-1.17-0.52c-0.27-0.35-0.4-0.94-0.4-1.78c0-0.87,0.13-1.5,0.4-1.89
		c0.27-0.39,0.67-0.58,1.2-0.58c0.51,0,1.01,0.19,1.51,0.57l1.02-1.41c-0.39-0.33-0.8-0.57-1.24-0.73
		C82.84,40.29,82.34,40.21,81.79,40.21 M74.7,43.71h-2.65c0.05-0.69,0.19-1.18,0.41-1.48c0.22-0.3,0.54-0.45,0.95-0.45
		c0.84,0,1.27,0.61,1.29,1.83V43.71z M77.02,44.28c0-1.28-0.32-2.28-0.97-3s-1.55-1.08-2.7-1.08c-0.78,0-1.45,0.19-2.01,0.56
		c-0.56,0.37-0.98,0.88-1.27,1.53c-0.29,0.64-0.43,1.37-0.43,2.18c0,1.28,0.34,2.3,1.03,3.06c0.69,0.76,1.68,1.14,2.96,1.14
		c1.14,0,2.17-0.37,3.1-1.11l-0.97-1.32c-0.35,0.24-0.67,0.42-0.97,0.53c-0.3,0.12-0.61,0.17-0.93,0.17c-0.53,0-0.94-0.13-1.24-0.4
		s-0.49-0.74-0.57-1.41h4.93C77,44.9,77.02,44.61,77.02,44.28 M68.76,46.54c-0.3,0.17-0.58,0.25-0.85,0.25
		c-0.26,0-0.45-0.08-0.57-0.24c-0.12-0.16-0.18-0.42-0.18-0.79v-3.65h1.57l0.25-1.65h-1.83v-1.99l-2.37,0.27v1.72h-1.12v1.65h1.12
		v3.68c0,1.91,0.87,2.86,2.61,2.87c0.38,0,0.76-0.05,1.15-0.16c0.38-0.11,0.72-0.26,1.01-0.46L68.76,46.54z M61.52,36.27
		c-0.41,0-0.74,0.13-1,0.38c-0.26,0.25-0.39,0.58-0.39,0.97c0,0.39,0.13,0.71,0.39,0.97c0.26,0.25,0.59,0.38,1,0.38
		c0.41,0,0.75-0.13,1.01-0.38c0.26-0.25,0.4-0.58,0.4-0.97c0-0.39-0.13-0.71-0.4-0.97C62.26,36.4,61.93,36.27,61.52,36.27
		 M60.35,48.41h2.37v-7.95h-2.37V48.41z M56.37,40.21c-0.46,0-0.87,0.09-1.24,0.28c-0.37,0.18-0.72,0.46-1.05,0.83v-4.25l-2.37,0.24
		v11.11h2.37v-5.45c0.44-0.68,0.9-1.02,1.38-1.02c0.24,0,0.42,0.08,0.55,0.23c0.13,0.16,0.19,0.43,0.19,0.83v5.41h2.37V42.6
		c0-0.76-0.19-1.35-0.58-1.77C57.59,40.42,57.05,40.21,56.37,40.21 M47.98,40.21c-0.78,0-1.46,0.18-2.05,0.55
		c-0.59,0.36-1.04,0.87-1.36,1.52c-0.32,0.65-0.48,1.39-0.48,2.23c0,0.84,0.16,1.57,0.48,2.19c0.32,0.62,0.77,1.11,1.36,1.45
		c0.59,0.34,1.29,0.52,2.1,0.52c1,0,1.89-0.31,2.68-0.94l-1.03-1.47c-0.31,0.19-0.57,0.33-0.79,0.41c-0.22,0.09-0.46,0.13-0.73,0.13
		c-0.51,0-0.9-0.17-1.17-0.52c-0.27-0.35-0.4-0.94-0.4-1.78c0-0.87,0.13-1.5,0.4-1.89c0.27-0.39,0.67-0.58,1.2-0.58
		c0.51,0,1.01,0.19,1.51,0.57l1.02-1.41c-0.39-0.33-0.8-0.57-1.24-0.73C49.02,40.29,48.53,40.21,47.98,40.21 M43.29,40.24
		c-0.46,0-0.87,0.16-1.24,0.47c-0.36,0.32-0.64,0.75-0.82,1.3l-0.19-1.54h-2.07v7.95h2.37v-3.94c0.14-0.65,0.33-1.14,0.58-1.46
		c0.24-0.32,0.6-0.49,1.07-0.49c0.18,0,0.42,0.04,0.72,0.1l0.37-2.29C43.85,40.27,43.58,40.24,43.29,40.24 M33.6,39.82l1.09,4.58
		h-2.19L33.6,39.82z M38.26,48.41l-3.13-10.38h-2.98l-3.13,10.38h2.55l0.52-2.23h3.02l0.54,2.23H38.26z M22.94,43.71h-2.65
		c0.05-0.69,0.19-1.18,0.41-1.48c0.22-0.3,0.54-0.45,0.95-0.45c0.84,0,1.27,0.61,1.29,1.83V43.71z M25.26,44.28
		c0-1.28-0.32-2.28-0.97-3c-0.65-0.72-1.55-1.08-2.7-1.08c-0.78,0-1.45,0.19-2.01,0.56c-0.56,0.37-0.98,0.88-1.27,1.53
		c-0.29,0.64-0.43,1.37-0.43,2.18c0,1.28,0.34,2.3,1.03,3.06c0.69,0.76,1.68,1.14,2.97,1.14c1.14,0,2.17-0.37,3.1-1.11l-0.97-1.32
		c-0.35,0.24-0.67,0.42-0.97,0.53c-0.3,0.12-0.61,0.17-0.93,0.17c-0.53,0-0.94-0.13-1.24-0.4c-0.3-0.27-0.49-0.74-0.57-1.41h4.93
		C25.25,44.9,25.26,44.61,25.26,44.28 M14.35,40.21c-0.49,0-0.93,0.1-1.33,0.3c-0.4,0.2-0.76,0.5-1.1,0.9l-0.16-0.94H9.69v7.95h2.37
		v-5.44c0.44-0.69,0.9-1.03,1.38-1.03c0.25,0,0.44,0.08,0.56,0.23c0.12,0.16,0.19,0.43,0.19,0.83v5.41h2.37V42.6
		c0-0.76-0.19-1.35-0.58-1.77C15.57,40.42,15.03,40.21,14.35,40.21 M7.83,40.46H5.47v5.53c-0.36,0.62-0.79,0.93-1.29,0.93
		c-0.26,0-0.45-0.08-0.58-0.23c-0.12-0.16-0.19-0.43-0.19-0.82v-5.41H1.05v5.71c0,0.79,0.19,1.4,0.56,1.84
		c0.37,0.44,0.93,0.66,1.65,0.66c1.03,0,1.83-0.42,2.41-1.26l0.1,1h2.05V40.46z"/>
	<path class="st0" d="M65.92,25.74h-2.65c0.05-0.69,0.19-1.18,0.41-1.48c0.23-0.3,0.54-0.45,0.95-0.45c0.84,0,1.27,0.61,1.29,1.83
		V25.74z M68.24,26.31c0-1.28-0.32-2.28-0.97-2.99c-0.65-0.72-1.55-1.08-2.7-1.08c-0.78,0-1.45,0.19-2.01,0.56
		c-0.56,0.37-0.98,0.88-1.27,1.53c-0.29,0.64-0.43,1.37-0.43,2.18c0,1.28,0.34,2.3,1.03,3.06s1.68,1.14,2.97,1.14
		c1.14,0,2.17-0.37,3.1-1.11l-0.97-1.32c-0.35,0.24-0.67,0.42-0.97,0.53c-0.3,0.12-0.61,0.17-0.93,0.17c-0.53,0-0.94-0.13-1.24-0.4
		c-0.3-0.27-0.49-0.74-0.57-1.41h4.93C68.23,26.93,68.24,26.64,68.24,26.31 M60.06,22.27c-0.46,0-0.87,0.16-1.24,0.47
		c-0.36,0.31-0.64,0.75-0.82,1.3l-0.2-1.54h-2.07v7.95h2.37v-3.94c0.14-0.65,0.33-1.14,0.58-1.46c0.24-0.32,0.6-0.49,1.07-0.49
		c0.18,0,0.42,0.04,0.72,0.1l0.37-2.29C60.62,22.3,60.35,22.27,60.06,22.27 M52.7,18.3c-0.41,0-0.74,0.13-1,0.38
		c-0.26,0.25-0.39,0.58-0.39,0.97c0,0.39,0.13,0.71,0.39,0.97c0.26,0.25,0.59,0.38,1,0.38c0.41,0,0.75-0.13,1.01-0.38
		c0.26-0.25,0.4-0.58,0.4-0.97c0-0.39-0.13-0.71-0.4-0.97C53.44,18.43,53.11,18.3,52.7,18.3 M51.53,30.44h2.37v-7.95h-2.37V30.44z
		 M46.06,29.01c-0.29,0-0.52-0.09-0.68-0.26c-0.16-0.17-0.25-0.42-0.25-0.74c0-0.4,0.13-0.69,0.4-0.88
		c0.26-0.19,0.67-0.28,1.21-0.28h0.58v1.41C47.02,28.75,46.6,29.01,46.06,29.01 M49.64,28.14v-3.09c0-0.94-0.27-1.64-0.79-2.11
		c-0.53-0.47-1.36-0.7-2.5-0.7c-0.45,0-0.94,0.05-1.46,0.15c-0.52,0.1-1.04,0.24-1.53,0.44l0.54,1.56c0.39-0.13,0.77-0.23,1.14-0.31
		c0.37-0.08,0.68-0.11,0.94-0.11c0.5,0,0.85,0.09,1.05,0.26c0.2,0.17,0.3,0.5,0.3,0.97v0.34h-0.81c-1.21,0-2.13,0.23-2.77,0.69
		c-0.64,0.46-0.96,1.12-0.96,1.99c0,0.74,0.23,1.34,0.7,1.8c0.47,0.46,1.1,0.69,1.89,0.69c1.08,0,1.88-0.4,2.4-1.2
		c0.17,0.38,0.41,0.66,0.72,0.83s0.71,0.28,1.2,0.32l0.49-1.54c-0.19-0.07-0.33-0.17-0.41-0.31C49.68,28.66,49.64,28.44,49.64,28.14
		 M39.43,30.44v-4.12h3.02v-1.75h-3.02v-2.76h3.47l0.25-1.75h-6.18v10.38H39.43z M31.69,22.27c-0.46,0-0.87,0.16-1.24,0.47
		c-0.36,0.31-0.64,0.75-0.82,1.3l-0.2-1.54h-2.07v7.95h2.37v-3.94c0.14-0.65,0.33-1.14,0.58-1.46c0.24-0.32,0.6-0.49,1.07-0.49
		c0.18,0,0.42,0.04,0.72,0.1l0.37-2.29C32.24,22.3,31.98,22.27,31.69,22.27 M25.52,22.49h-2.37v5.53c-0.36,0.62-0.79,0.93-1.29,0.93
		c-0.26,0-0.45-0.08-0.58-0.23c-0.12-0.16-0.19-0.43-0.19-0.82v-5.41h-2.37v5.71c0,0.79,0.19,1.4,0.56,1.84
		c0.37,0.44,0.93,0.66,1.65,0.66c1.03,0,1.83-0.42,2.41-1.26l0.11,1h2.05V22.49z M13.51,23.97c0.49,0,0.85,0.2,1.09,0.6
		c0.23,0.4,0.35,1.03,0.35,1.9c0,0.85-0.12,1.48-0.36,1.88c-0.24,0.4-0.6,0.61-1.08,0.61c-0.49,0-0.85-0.2-1.09-0.6
		c-0.23-0.4-0.35-1.03-0.35-1.9c0-0.85,0.12-1.48,0.36-1.88C12.67,24.18,13.03,23.97,13.51,23.97 M13.51,22.24
		c-0.8,0-1.49,0.17-2.07,0.52c-0.58,0.35-1.03,0.84-1.35,1.48c-0.31,0.63-0.47,1.37-0.47,2.22c0,1.34,0.35,2.38,1.04,3.12
		c0.69,0.74,1.65,1.12,2.85,1.12c0.8,0,1.49-0.17,2.07-0.52c0.58-0.35,1.03-0.84,1.35-1.48c0.31-0.63,0.47-1.37,0.47-2.22
		c0-1.34-0.34-2.38-1.03-3.12C15.68,22.61,14.73,22.24,13.51,22.24 M4.7,28.96c-0.49,0-0.89-0.23-1.21-0.7V24.9
		c0.18-0.3,0.39-0.53,0.62-0.69c0.23-0.16,0.49-0.24,0.76-0.24c0.42,0,0.73,0.18,0.94,0.55c0.21,0.36,0.31,1.02,0.31,1.95
		C6.13,28.13,5.65,28.96,4.7,28.96 M5.62,22.24c-0.42,0-0.83,0.09-1.23,0.28c-0.4,0.18-0.75,0.47-1.06,0.86L3.2,22.49H1.12v11.28
		l2.37-0.25v-3.64c0.49,0.55,1.13,0.82,1.93,0.82c0.64,0,1.2-0.18,1.68-0.55c0.48-0.36,0.85-0.87,1.1-1.51
		c0.25-0.64,0.38-1.37,0.38-2.19c0-1.33-0.24-2.36-0.73-3.1C7.36,22.61,6.61,22.24,5.62,22.24"/>
	<path class="st0" d="M36.36,4.52h-2.52l-1.06,2.55l-1.11-2.55h-2.65l2.31,3.77l-2.56,4.18h2.57l1.35-2.98l1.38,2.98h2.68
		l-2.56-4.25L36.36,4.52z M28,4.52h-2.37v5.53c-0.36,0.62-0.79,0.93-1.29,0.93c-0.26,0-0.45-0.08-0.58-0.23
		c-0.12-0.15-0.19-0.43-0.19-0.82V4.52h-2.37v5.71c0,0.79,0.19,1.4,0.56,1.84c0.37,0.44,0.93,0.66,1.65,0.66
		c1.03,0,1.83-0.42,2.41-1.26l0.1,1H28V4.52z M17.64,7.77h-2.65c0.05-0.69,0.19-1.18,0.41-1.48c0.23-0.3,0.54-0.45,0.95-0.45
		c0.84,0,1.27,0.61,1.29,1.83V7.77z M19.96,8.34c0-1.28-0.32-2.28-0.97-3c-0.65-0.72-1.55-1.08-2.7-1.08
		c-0.78,0-1.45,0.19-2.01,0.56c-0.56,0.37-0.98,0.88-1.27,1.53C12.72,7,12.58,7.73,12.58,8.54c0,1.28,0.34,2.3,1.03,3.06
		c0.69,0.76,1.68,1.14,2.97,1.14c1.14,0,2.17-0.37,3.1-1.11L18.7,10.3c-0.35,0.24-0.67,0.42-0.97,0.53
		c-0.3,0.12-0.61,0.17-0.93,0.17c-0.53,0-0.94-0.13-1.24-0.4c-0.3-0.27-0.49-0.74-0.57-1.41h4.93C19.95,8.95,19.96,8.67,19.96,8.34
		 M9.97,0.33c-0.41,0-0.74,0.13-1,0.38S8.58,1.29,8.58,1.68c0,0.39,0.13,0.71,0.39,0.97s0.59,0.38,1,0.38
		c0.41,0,0.75-0.13,1.01-0.38c0.26-0.25,0.4-0.58,0.4-0.97c0-0.39-0.13-0.71-0.4-0.97C10.72,0.46,10.38,0.33,9.97,0.33 M8.81,12.47
		h2.37V4.52H8.81V12.47z M1.17,2.1v10.38h6.24l0.25-1.95H3.62V2.1H1.17z"/>
</g>
</svg>
