<?xml version="1.0" encoding="utf-8"?>
<!-- Generator: Adobe Illustrator 26.0.2, SVG Export Plug-In . SVG Version: 6.00 Build 0)  -->
<svg version="1.1" id="Calque_1" xmlns="http://www.w3.org/2000/svg" xmlns:xlink="http://www.w3.org/1999/xlink" x="0px" y="0px"
	 viewBox="0 0 295.13 51.29" style="enable-background:new 0 0 295.13 51.29;" xml:space="preserve">
<style type="text/css">
	.st0{fill:#FFFFFF;}
</style>
<g>
	<g>
		<path class="st0" d="M279.95,51.29c-3.11,0-5.9-0.5-8.27-1.48c-2.38-0.98-4.41-2.29-6.04-3.9l-0.31-0.31l5.64-6.2l0.33,0.29
			c2.54,2.18,5.31,3.29,8.25,3.29c1.32,0,2.32-0.26,2.97-0.78c0.62-0.5,0.93-1.12,0.93-1.92c0-0.6-0.13-1.11-0.4-1.5
			c-0.27-0.4-0.78-0.79-1.5-1.15c-0.77-0.39-1.93-0.81-3.43-1.27c-4.1-1.29-7.01-2.87-8.66-4.71c-1.67-1.86-2.52-4.21-2.52-6.98
			c0-2.26,0.62-4.25,1.84-5.92c1.21-1.66,2.9-2.95,5.02-3.85c2.1-0.89,4.49-1.34,7.1-1.34c5.4,0,9.83,1.64,13.17,4.88l0.31,0.3
			l-5.11,6.01l-0.34-0.27c-2.24-1.79-4.65-2.7-7.17-2.7c-1.13,0-1.99,0.19-2.54,0.57c-0.51,0.35-0.75,0.83-0.75,1.48
			c0,0.49,0.13,0.87,0.41,1.17c0.3,0.33,0.84,0.65,1.59,0.96c0.8,0.33,2.12,0.79,3.94,1.39c3.72,1.19,6.46,2.71,8.12,4.52
			c1.69,1.85,2.54,4.39,2.54,7.56c0,2.32-0.62,4.4-1.85,6.18c-1.23,1.78-3,3.19-5.27,4.18C285.69,50.79,283,51.29,279.95,51.29z
			 M266.59,45.57c1.5,1.38,3.32,2.53,5.44,3.4c2.27,0.94,4.93,1.42,7.93,1.42c2.92,0,5.48-0.48,7.62-1.41
			c2.11-0.93,3.75-2.23,4.88-3.87c1.12-1.63,1.69-3.54,1.69-5.67c0-2.93-0.78-5.27-2.31-6.94c-1.55-1.7-4.15-3.14-7.73-4.27
			c-1.87-0.61-3.18-1.07-4.01-1.41c-0.89-0.36-1.51-0.75-1.91-1.19c-0.43-0.47-0.64-1.07-0.64-1.78c0-0.96,0.39-1.7,1.15-2.22
			c0.72-0.49,1.72-0.73,3.06-0.73c2.59,0,5.08,0.88,7.39,2.63l3.99-4.69c-3.13-2.87-7.24-4.33-12.23-4.33
			c-2.49,0-4.76,0.43-6.75,1.26c-1.96,0.83-3.52,2.03-4.64,3.55c-1.1,1.51-1.66,3.32-1.66,5.38c0,2.54,0.77,4.68,2.28,6.37
			c1.54,1.71,4.31,3.21,8.25,4.45c1.55,0.47,2.75,0.92,3.57,1.33c0.88,0.44,1.48,0.91,1.85,1.45c0.37,0.54,0.55,1.22,0.55,2.01
			c0,1.07-0.43,1.96-1.27,2.63c-0.81,0.65-2,0.97-3.53,0.97c-3.03,0-5.89-1.08-8.51-3.23L266.59,45.57z M111.41,51.29
			c-4.86,0-8.6-1.2-11.11-3.57c-2.52-2.38-3.79-5.63-3.79-9.68V14.58h11.21v23.15c0,1.86,0.3,3.23,0.89,4.06
			c0.56,0.8,1.48,1.18,2.8,1.18s2.24-0.39,2.8-1.18c0.59-0.83,0.89-2.2,0.89-4.06V14.58h11.21v23.45c0,2.5-0.56,4.78-1.66,6.77
			c-1.11,2-2.8,3.61-5.04,4.76C117.39,50.71,114.63,51.29,111.41,51.29z M97.41,15.49v22.55c0,3.79,1.18,6.82,3.51,9.02
			c2.33,2.21,5.86,3.33,10.49,3.33c3.08,0,5.7-0.55,7.79-1.62c2.08-1.07,3.64-2.55,4.66-4.39c1.02-1.86,1.54-3.99,1.54-6.33V15.49
			h-9.39v22.25c0,2.08-0.35,3.58-1.06,4.59c-0.74,1.04-1.93,1.57-3.55,1.57c-1.62,0-2.81-0.53-3.55-1.57c-0.71-1-1.06-2.5-1.06-4.59
			V15.49H97.41z M51.66,51.29c-3.5,0-6.56-0.73-9.12-2.18c-2.57-1.46-4.58-3.63-5.98-6.47c-1.39-2.82-2.1-6.28-2.1-10.3
			c0-3.85,0.72-7.23,2.15-10.03c1.43-2.82,3.46-5,6.03-6.49c2.56-1.48,5.54-2.24,8.88-2.24c4.39,0,8.26,1.42,11.5,4.21l0.34,0.29
			l-5.31,6.27l-0.34-0.25c-0.97-0.71-1.92-1.26-2.83-1.65c-0.89-0.37-1.85-0.56-2.85-0.56c-1.88,0-3.3,0.83-4.34,2.53
			c-1.07,1.75-1.61,4.42-1.61,7.91c0,3.5,0.55,6.13,1.63,7.83c1.05,1.66,2.51,2.46,4.47,2.46c1.06,0,2.06-0.22,2.98-0.66
			c0.95-0.45,2.02-1.14,3.19-2.05l0.36-0.28l5.03,6.37l-0.29,0.29c-1.43,1.43-3.18,2.63-5.21,3.57
			C56.19,50.82,53.98,51.29,51.66,51.29z M51.51,14.49c-3.17,0-6,0.71-8.42,2.11c-2.41,1.4-4.32,3.46-5.67,6.11
			c-1.36,2.67-2.05,5.91-2.05,9.62c0,3.88,0.67,7.21,2,9.9c1.32,2.67,3.21,4.72,5.62,6.08c2.42,1.37,5.34,2.07,8.68,2.07
			c2.19,0,4.27-0.45,6.18-1.33c1.79-0.83,3.35-1.87,4.66-3.1l-3.97-5.03c-1.08,0.82-2.09,1.45-3,1.88
			c-1.04,0.49-2.17,0.74-3.37,0.74c-2.26,0-4.02-0.97-5.23-2.89c-1.17-1.85-1.77-4.65-1.77-8.32c0-3.67,0.59-6.49,1.74-8.39
			c1.2-1.97,2.92-2.97,5.11-2.97c1.12,0,2.2,0.21,3.2,0.64c0.87,0.37,1.77,0.87,2.67,1.51l4.18-4.93
			C59.07,15.74,55.52,14.49,51.51,14.49z M263.16,50.29h-23.51V14.58h23.83l-1.18,8.06h-11.44v5.59h10.1v7.86h-10.1v6.09h12.3V50.29
			z M240.56,49.38h21.69v-6.29h-12.3v-7.91h10.1v-6.04h-10.1v-7.41h11.56l0.92-6.24h-21.87V49.38z M227.21,50.29H216v-27.1h-8.45
			v-8.61h28.67l-1.17,8.61h-7.84V50.29z M216.91,49.38h9.39v-27.1h7.96l0.93-6.79h-26.73v6.79h8.45V49.38z M203.56,50.29h-11.21
			V14.58h11.21V50.29z M193.26,49.38h9.39V15.49h-9.39V49.38z M187,50.29h-23.25V14.58h11.21v26.9h13.21L187,50.29z M164.66,49.38
			h21.55l0.93-6.99h-13.09v-26.9h-9.39V49.38z M161.41,50.29h-11.88l-1.35-6.75h-7.5l-1.3,6.75h-11.73l10.42-35.71h12.98
			L161.41,50.29z M150.28,49.38h9.92l-9.84-33.89h-11.62l-9.88,33.89h9.77l1.3-6.75h9L150.28,49.38z M84.56,50.29H73.35v-27.1H64.9
			v-8.61h28.67l-1.17,8.61h-7.84V50.29z M74.26,49.38h9.39v-27.1h7.96l0.93-6.79H65.81v6.79h8.45V49.38z M33.76,50.29H21.88
			l-1.35-6.75h-7.5l-1.3,6.75H0l10.42-35.71H23.4L33.76,50.29z M22.63,49.38h9.92l-9.84-33.89H11.1L1.21,49.38h9.77l1.3-6.75h9
			L22.63,49.38z M147.66,36.34h-6.45l3.2-16.46L147.66,36.34z M142.31,35.43h4.25l-2.14-10.83L142.31,35.43z M20.01,36.34h-6.45
			l3.2-16.46L20.01,36.34z M14.66,35.43h4.25L16.76,24.6L14.66,35.43z M246.23,12.95l-2.87-5.69L255.85,0l3.94,8.1L246.23,12.95z
			 M244.55,7.62l2.13,4.21l11.85-4.24l-3.06-6.31L244.55,7.62z"/>
	</g>
</g>
</svg>
