<?xml version="1.0" encoding="utf-8"?>
<!-- Generator: Adobe Illustrator 26.0.3, SVG Export Plug-In . SVG Version: 6.00 Build 0)  -->
<svg version="1.1" id="Calque_1" xmlns="http://www.w3.org/2000/svg" xmlns:xlink="http://www.w3.org/1999/xlink" x="0px" y="0px"
	 viewBox="0 0 73.49 63.01" style="enable-background:new 0 0 73.49 63.01;" xml:space="preserve">
<style type="text/css">
	.st0{fill:#FFFFFF;}
</style>
<g>
	<path class="st0" d="M22.43,4.92V1.95c0-1.08-0.52-1.95-1.15-1.95h-5.38c-0.64,0-1.15,0.87-1.15,1.95v2.97H0v9.84h14.74v2.97
		c0,1.08,0.52,1.95,1.15,1.95h5.38c0.64,0,1.15-0.87,1.15-1.95v-2.97h51.06V4.92H22.43z"/>
	<path class="st0" d="M36.74,45.29c0-1.08-0.52-1.95-1.15-1.95h-5.38c-0.64,0-1.15,0.87-1.15,1.95v4.37H0v7.03h29.05v4.37
		c0,1.08,0.52,1.95,1.15,1.95h5.38c0.64,0,1.15-0.87,1.15-1.95v-4.37h36.74v-7.03H36.74V45.29z"/>
	<path class="st0" d="M61.19,22.78c0-1.08-0.99-1.95-2.21-1.95H48.69c-1.22,0-2.21,0.87-2.21,1.95v0.86H0v14.05h46.49v0.86
		c0,1.08,0.99,1.95,2.21,1.95h10.29c1.22,0,2.21-0.87,2.21-1.95v-0.86h12.3V23.64h-12.3V22.78z"/>
</g>
</svg>
