<?xml version="1.0" encoding="utf-8"?>
<!-- Generator: Adobe Illustrator 26.0.3, SVG Export Plug-In . SVG Version: 6.00 Build 0)  -->
<svg version="1.1" id="Calque_1" xmlns="http://www.w3.org/2000/svg" xmlns:xlink="http://www.w3.org/1999/xlink" x="0px" y="0px"
	 viewBox="0 0 73.5 63" style="enable-background:new 0 0 73.5 63;" xml:space="preserve">
<style type="text/css">
	.st0{fill:#828787;}
</style>
<g>
	<path class="st0" d="M22.4,4.9V2c0-1.1-0.5-2-1.1-2h-5.4c-0.6,0-1.1,0.9-1.1,2v3H0v9.8h14.7v3c0,1.1,0.5,2,1.1,2h5.4
		c0.6,0,1.1-0.9,1.1-2v-3h51.1V4.9H22.4z"/>
	<path class="st0" d="M36.7,45.3c0-1.1-0.5-2-1.2-2h-5.4c-0.6,0-1.1,0.9-1.1,2v4.4H0v7h29v4.4c0,1.1,0.5,2,1.1,2h5.4
		c0.6,0,1.2-0.9,1.2-2v-4.4h36.7v-7H36.7V45.3z"/>
	<path class="st0" d="M61.2,22.8c0-1.1-1-2-2.2-2H48.7c-1.2,0-2.2,0.9-2.2,2v0.9H0v14.1h46.5v0.9c0,1.1,1,2,2.2,2H59
		c1.2,0,2.2-0.9,2.2-2v-0.9h12.3V23.6H61.2L61.2,22.8L61.2,22.8z"/>
</g>
</svg>
