<?xml version="1.0" encoding="utf-8"?>
<!-- Generator: Adobe Illustrator 26.0.3, SVG Export Plug-In . SVG Version: 6.00 Build 0)  -->
<svg version="1.1" id="Calque_1" xmlns="http://www.w3.org/2000/svg" xmlns:xlink="http://www.w3.org/1999/xlink" x="0px" y="0px"
	 viewBox="0 0 1143 605" style="enable-background:new 0 0 1143 605;" xml:space="preserve">
<style type="text/css">
	.st0{opacity:0.8;}
	.st1{fill:#FFFFFF;}
</style>
<g class="st0">
	<path class="st1" d="M0,0v605h1143V0H0z M618.2,132.7v-10.3l19.8-18.8h0.1v2.9c0,27.3,0,52.9,0,80.1c0,2,0.2,4,0.6,6
		c1.1,4.5,4.4,6.7,9.2,6.4c4.5-0.3,7.4-3.1,7.9-7.6c0.2-1.6,0.2-3.3,0.2-4.9c0-21.9,0-42,0-63.9l20-18.9c0,0.9,0,1.3,0,2
		c0,28.5,0.1,55.2,0,83.7c0,3.6-0.6,7.3-1.6,10.8c-2.4,8.1-8.3,12.9-16.3,15.1c-7.3,2-14.8,1.9-22.1,0c-10.7-2.7-17.6-11.5-17.7-23
		C618.1,172.3,618.2,152.5,618.2,132.7z M489.2,103.8H612c-3.8,7.2-4,7.2-9.7,17.1h-93.2v29.6h100.5c-3.9,7.4-4.5,8.2-9.7,16.8
		h-90.8v0v32.3h103.2c-4.4,7.3-3.6,6.2-9.7,17.1H489.2V103.8z M456,122.6l20-18.9v113h-20V122.6z M308.8,103.8
		c11,0.2,61.9,0.2,72.9,0c3.5-0.1,4.3,1.1,4.3,4.4c-0.1,24.1-0.1,31.2-0.1,55.2v4.8h53.4v48.5h0H304.6v-4c0-34.9,0-69.7-0.1-104.6
		C304.5,104.7,305.4,103.7,308.8,103.8z M429.2,261c0,2.7-1.1,3.2-3.5,3.2c-16.6-0.1-59,0-75.7,0h-3.9v10.9h79.4v30h-79.5v39.3
		c-1.4,0.1-2.5,0.3-3.5,0.3c-11.5,0-23,0-34.5,0.1c-2.5,0-3.6-0.4-3.6-3.3c0.1-35.3,0.1-70.6,0-105.8c0-2.6,0.9-3.3,3.4-3.3
		c30.7,0.1,87.2,0.1,117.8,0c2.4,0,3.5,0.5,3.5,3.2C429.1,244,429.1,252.5,429.2,261z M486.6,344.7c-0.2-0.7-0.3-2-0.6-4
		c-0.9-6.3-1.8-12.6-2.8-19.1c-0.8,0-1.5-0.1-2.2-0.1c-6.5,0-12.9,0-19.4-0.2c-1.7,0-2.3,0.4-2.5,2.1c-0.9,7-2.1,14.1-3.2,21.3
		h-20.5c7.2-37.5,14.3-75,21.5-112.7h29.3v0c6,31.9,11.8,63.6,17.8,95.5L486.6,344.7z M566,319.1c0,3.6-0.5,7.3-1.6,10.8
		c-2.4,8.1-8.3,12.9-16.3,15.1c-7.3,2-14.8,1.9-22.1,0c-10.7-2.7-17.6-11.5-17.7-23c-0.2-19.8-0.1-39.6-0.1-59.5c0-4,0-8,0-11.9
		l19.8-18.8h0.1v2.9c0,27.3,0,54.5,0,81.8c0,2,0.2,4,0.6,6c1.1,4.5,4.4,6.7,9.2,6.4c4.5-0.4,7.4-3.1,7.9-7.7
		c0.2-1.6,0.2-3.3,0.2-4.9c0-21.9,0-43.7,0-65.6l19.9-18.9c0,0.7,0.1,1.3,0.1,2C566.1,262.1,566.1,290.6,566,319.1z M646.2,344.8
		c-1.1,0-2.1,0.2-3.1,0.2c-16.9,0-33.7,0-50.6,0.1c-2.6,0-3.3-0.7-3.7-3.3c-2.4-16.6-5-33.2-7.6-49.7c-3-19.8-6-39.5-9.1-59.5h37.2
		c0.6,5.9,1.2,11.8,1.8,17.7c2.1,20.3,4.1,40.5,6.1,60.8c0.1,0.8,0.7,1.7,1,2.5c0.5-0.8,1.4-1.6,1.5-2.5c1.2-13.4,2.4-26.7,3.5-40.1
		c1-12.2,1.9-24.3,2.8-36.5c0-0.5,0.2-1.1,0.3-1.8h36.7C657.5,270,651.9,307.3,646.2,344.8z M744.9,236.5c-0.2,8-0.2,16.1,0,24.2
		c0.1,3-1,3.7-3.8,3.7c-16.4-0.1-14-0.1-30.4-0.1h-4.2c0,3.2,0,6.1,0,9.3c17.7,0,16.7,0,34.7,0c0,10.2,0,20,0,30.1
		c-17.6,0-16.6,0-34.6,0c0,3.3,0,6.3,0,9.7c1.3,0,2.6,0,3.9,0c16.4,0,14,0.1,30.4-0.1c3.3,0,4.1,1,4,4.1c-0.2,9-0.1,18-0.1,27.4
		c-33.2,0-42.5,0-75.6,0c0-1.5,0-2.8,0-4.1c0-34.7,0.1-69.3,0-104c0-3.4,0.8-4.6,4.5-4.5c30.1,0.2,36.9,0.2,67,0
		C744,232.2,745,233.1,744.9,236.5z M814.9,323.7c-0.9,11.5-7.6,18.9-18.8,21.8c-10.1,2.6-20.3,2.4-30.2-1.3
		c-7.7-2.9-12.2-8.7-12.7-16.8c-0.5-7.8-0.1-15.7-0.1-23.8h28.8c0,0.8,0.1,1.5,0.1,2.2c0,5,0,9.9,0,14.9c0,0.7-0.2,1.5,0.1,2
		c0.3,0.7,1.1,1.2,1.7,1.8c0.5-0.7,1-1.3,1.4-2c0.2-0.3,0-0.7,0-1.1c0-5.2,0-10.4,0-15.5c0-3.6-1.2-4.9-4.8-5.5
		c-3.6-0.6-7.3-1.2-10.9-2c-10.2-2.3-15.9-8.1-16.8-18.5c-0.8-8.4-0.9-16.9-0.3-25.2c0.8-11.4,7.3-18.8,18.5-21.8
		c9.9-2.6,19.9-2.6,29.5,1.2c8.5,3.4,13.1,9.8,13.3,19.1c0.2,6,0,12,0,18.2H785c0-2.6,0-5.2,0-7.8c0-2.6,0.1-5.3-0.1-7.9
		c0-0.8-0.9-1.5-1.3-2.3c-0.5,0.8-1.1,1.5-1.6,2.3c-0.1,0.2,0,0.5,0,0.7c0,4.5,0,9,0,13.5c0,3,1,4,3.8,4.6c4.2,0.8,8.4,1.6,12.6,2.5
		c10.4,2.2,16,8.1,16.7,19.2C815.7,305.4,815.6,314.6,814.9,323.7z M753.9,216.6c-1.5-12.7-3.2-25.6-4.7-39.3c-0.9,1-2,1.7-2.2,2.5
		c-0.8,6.8-1.5,13.7-2.2,20.5c-0.5,4.5-1,9.1-1.5,13.6c0,0.5-0.1,1.3-0.3,2.7c0,0-1.8,0-2.3,0c-19.3,0.1-38.6,0-57.9,0h-1.6
		c0.7-3.2,2.6-12.4,3.9-18.3c2.7-12.3,5.7-24.5,8-36.9c0.6-3.2-0.6-6.8-1.3-10.2c-3.2-14.9-6.5-29.7-9.8-44.5
		c-0.2-0.8-0.4-1.8-0.6-3h61.8c0.8,7,1.7,14.2,2.4,21.3c0.5,4.8,0.6,9.7,1.1,14.5c0.1,1,1.1,1.8,1.7,2.7c0.5-0.9,1.5-1.8,1.6-2.8
		c1.1-11,2.1-22.1,3.3-33.1c0-0.5,0.3-2.6,0.4-2.6c0.4,0,1.8,0,2.2,0l59.4,0c-1.5,7.1-3.1,14.7-4.7,21.7c-2.3,10.3-5,20.6-6.7,31
		c-0.7,4.4-0.2,4.9,0.8,9.5c3.1,14.7,7,33.9,10.5,48.5c0.1,0.5,0.2,1.2,0.4,2L753.9,216.6z"/>
	<path class="st1" d="M474.3,263.1c-0.6-4-1.3-7.9-2.1-11.8c-0.1-0.5-0.6-0.8-0.9-1.2c-0.3,0.4-0.6,0.8-0.8,1.2
		c-0.1,0.3-0.1,0.7-0.2,1.1c-2.1,13.2-4.2,26.3-6.2,39.5c-0.6,4.1-1.2,8.3-1.9,12.5h18.3c0-0.4,0-0.7,0-1
		C478.4,289.9,476.4,276.5,474.3,263.1z"/>
</g>
</svg>
