<?xml version="1.0" encoding="utf-8"?>
<!-- Generator: Adobe Illustrator 26.1.0, SVG Export Plug-In . SVG Version: 6.00 Build 0)  -->
<svg version="1.1" id="Calque_1" xmlns="http://www.w3.org/2000/svg" xmlns:xlink="http://www.w3.org/1999/xlink" x="0px" y="0px"
	 viewBox="0 0 72.7 42.6" style="enable-background:new 0 0 72.7 42.6;" xml:space="preserve">
<style type="text/css">
	.st0{fill:#FFFFFF;}
</style>
<g>
	<path class="st0" d="M49.9,34.1c-0.5,0-0.8,0.4-0.8,0.8v6.8c0,0.5,0.4,0.8,0.8,0.8h6.9c0.5,0,0.8-0.4,0.8-0.8v-6.8
		c0-0.5-0.4-0.8-0.8-0.8H49.9z"/>
	<path class="st0" d="M0.8,0C0.4,0,0,0.4,0,0.8v6.8c0,0.5,0.4,0.8,0.8,0.8h6.9c0.5,0,0.8-0.4,0.8-0.8V0.8C8.5,0.4,8.2,0,7.7,0H0.8z"
		/>
	<path class="st0" d="M65,34.1c-0.5,0-0.8,0.4-0.8,0.8v6.8c0,0.5,0.4,0.8,0.8,0.8h6.9c0.5,0,0.8-0.4,0.8-0.8v-6.8
		c0-0.5-0.4-0.8-0.8-0.8H65z"/>
	<path class="st0" d="M62,11.3V0.8C62,0.4,61.6,0,61.2,0H16c-0.5,0-0.8,0.4-0.8,0.8v40.9c0,0.5,0.4,0.8,0.8,0.8h14.8V27.7h30V16.2
		h-30v-4.1h30.4C61.6,12.2,62,11.8,62,11.3"/>
</g>
</svg>
