<?xml version="1.0" encoding="utf-8"?>
<!-- Generator: Adobe Illustrator 26.0.2, SVG Export Plug-In . SVG Version: 6.00 Build 0)  -->
<svg version="1.1" id="Calque_1" xmlns="http://www.w3.org/2000/svg" xmlns:xlink="http://www.w3.org/1999/xlink" x="0px" y="0px"
	 viewBox="0 0 208.85 41.39" style="enable-background:new 0 0 208.85 41.39;" xml:space="preserve">
<style type="text/css">
	.st0{fill:#FFFFFF;}
</style>
<g>
	<g>
		<path class="st0" d="M165.32,41.39c-3.84,0-7.21-0.81-10.01-2.4c-2.82-1.6-5.03-3.98-6.56-7.1c-1.53-3.09-2.3-6.9-2.3-11.31
			c0-4.23,0.79-7.94,2.36-11.01c1.57-3.09,3.8-5.49,6.61-7.12C158.22,0.83,161.5,0,165.15,0c4.82,0,9.06,1.55,12.62,4.62l0.34,0.29
			l-5.79,6.83l-0.34-0.25c-1.07-0.78-2.12-1.39-3.13-1.82c-0.98-0.41-2.04-0.62-3.15-0.62c-2.09,0-3.66,0.92-4.81,2.81
			c-1.18,1.93-1.78,4.87-1.78,8.73c0,3.85,0.61,6.76,1.8,8.64c1.17,1.84,2.79,2.73,4.95,2.73c1.17,0,2.28-0.24,3.3-0.73
			c1.05-0.5,2.23-1.26,3.52-2.26l0.36-0.28l5.48,6.94l-0.29,0.29c-1.57,1.57-3.49,2.89-5.71,3.91
			C170.29,40.87,167.87,41.39,165.32,41.39z M165.15,0.91c-3.5,0-6.62,0.78-9.29,2.33c-2.66,1.54-4.77,3.81-6.26,6.74
			c-1.5,2.95-2.26,6.51-2.26,10.6c0,4.27,0.74,7.94,2.21,10.91c1.46,2.95,3.54,5.2,6.2,6.71c2.67,1.51,5.89,2.28,9.57,2.28
			c2.42,0,4.71-0.5,6.82-1.47c1.99-0.92,3.72-2.08,5.16-3.45l-4.42-5.6c-1.2,0.91-2.32,1.61-3.33,2.09
			c-1.14,0.54-2.38,0.81-3.69,0.81c-2.47,0-4.39-1.06-5.72-3.15c-1.29-2.03-1.94-5.1-1.94-9.13c0-4.03,0.64-7.12,1.91-9.2
			c1.31-2.15,3.19-3.24,5.59-3.24c1.23,0,2.41,0.23,3.5,0.7c0.96,0.41,1.96,0.97,2.97,1.68l4.66-5.49
			C173.52,2.29,169.59,0.91,165.15,0.91z M56.75,41.39c-6.38,0-11.17-1.78-14.26-5.3c-3.07-3.5-4.62-8.7-4.62-15.45
			c0-4.27,0.85-8.01,2.53-11.11c1.69-3.11,4.06-5.5,7.06-7.11C50.45,0.81,53.87,0,57.63,0c2.79,0,5.39,0.47,7.73,1.41
			c2.33,0.93,4.4,2.18,6.15,3.71l0.36,0.31l-6.1,6.35l-0.32-0.23c-1.32-0.96-2.53-1.67-3.59-2.09c-1.04-0.42-2.24-0.63-3.57-0.63
			c-2.54,0-4.44,0.94-5.79,2.86c-1.37,1.95-2.06,4.98-2.06,9.01c0,3.07,0.22,5.5,0.65,7.23c0.41,1.67,1.05,2.85,1.9,3.52
			c0.85,0.67,2,1,3.43,1c1.19,0,2.35-0.26,3.45-0.77v-6.25h-3.79l-1.17-8.55h16.76v19.89l-0.2,0.14c-2.05,1.41-4.42,2.53-7.06,3.31
			C61.78,40.99,59.2,41.39,56.75,41.39z M57.63,0.91c-3.61,0-6.89,0.78-9.74,2.31c-2.84,1.53-5.09,3.8-6.69,6.75
			c-1.61,2.96-2.42,6.55-2.42,10.67c0,6.53,1.48,11.53,4.4,14.85c2.9,3.31,7.47,4.99,13.57,4.99c2.36,0,4.86-0.38,7.41-1.14
			c2.46-0.73,4.68-1.75,6.6-3.05v-18.5H55.95l0.92,6.74h3.91v7.72l-0.25,0.13c-1.3,0.65-2.69,0.98-4.11,0.98
			c-1.64,0-2.98-0.4-3.99-1.2c-1.01-0.79-1.76-2.14-2.22-4.02c-0.45-1.8-0.67-4.31-0.67-7.45c0-4.22,0.75-7.42,2.23-9.53
			c1.51-2.15,3.71-3.25,6.53-3.25c1.45,0,2.76,0.23,3.91,0.69c1.04,0.42,2.2,1.08,3.46,1.97l4.89-5.09
			c-1.6-1.32-3.46-2.41-5.53-3.24C62.79,1.36,60.31,0.91,57.63,0.91z M208.34,40.29h-25.77V1.1h26.11l-1.29,8.77h-12.59v6.24h11.11
			v8.55h-11.11v6.79h13.53V40.29z M183.48,39.38h23.95v-7.01H193.9v-8.61h11.11v-6.74H193.9V8.97h12.71l1.02-6.96h-24.16V39.38z
			 M141.13,40.29h-14.98l-6.76-22.6c0.12,0.94,0.22,1.84,0.32,2.71c0.24,2.23,0.36,4.77,0.36,7.56v12.33h-10.92V1.1h14.7l6.99,22.57
			c-0.1-0.77-0.19-1.52-0.27-2.24c-0.24-2.18-0.36-4.74-0.36-7.61V1.1h10.92V40.29z M126.83,39.38h13.4V2.01h-9.1v11.81
			c0,2.84,0.12,5.37,0.35,7.51c0.23,2.15,0.58,4.52,1.01,7.04l0.98,6.83L123.19,2.01h-13.13v37.37h9.1V27.95
			c0-2.75-0.12-5.26-0.35-7.46c-0.24-2.22-0.56-4.68-0.96-7.32l-0.96-7L126.83,39.38z M103.57,40.29H77.8V1.1h26.11l-1.29,8.77
			H90.04v6.24h11.11v8.55H90.04v6.79h13.53V40.29z M78.71,39.38h23.95v-7.01H89.13v-8.61h11.11v-6.74H89.13V8.97h12.71l1.02-6.96
			H78.71V39.38z M37,40.29H24.04l-1.48-7.43h-8.33l-1.43,7.43H-0.01L11.42,1.1h14.21L37,40.29z M24.78,39.38H35.8L24.95,2.01H12.1
			L1.2,39.38h10.84l1.43-7.43h9.82L24.78,39.38z M21.88,24.94h-6.99l3.46-17.83L21.88,24.94z M16,24.04h4.78l-2.41-12.2L16,24.04z"
			/>
	</g>
</g>
</svg>
