<?xml version="1.0" encoding="utf-8"?>
<!-- Generator: Adobe Illustrator 26.0.2, SVG Export Plug-In . SVG Version: 6.00 Build 0)  -->
<svg version="1.1" id="Calque_1" xmlns="http://www.w3.org/2000/svg" xmlns:xlink="http://www.w3.org/1999/xlink" x="0px" y="0px"
	 viewBox="0 0 368.45 37.74" style="enable-background:new 0 0 368.45 37.74;" xml:space="preserve">
<style type="text/css">
	.st0{fill:#FFFFFF;}
</style>
<g>
	<g>
		<path class="st0" d="M353.35,37.74c-3.11,0-5.89-0.5-8.27-1.48c-2.38-0.98-4.41-2.29-6.04-3.9l-0.31-0.31l5.64-6.2l0.33,0.29
			c2.54,2.18,5.31,3.29,8.25,3.29c1.32,0,2.32-0.26,2.97-0.78c0.62-0.5,0.93-1.12,0.93-1.92c0-0.6-0.13-1.11-0.4-1.5
			c-0.27-0.4-0.78-0.79-1.5-1.15c-0.77-0.39-1.93-0.81-3.43-1.27c-4.1-1.29-7.01-2.87-8.66-4.71c-1.67-1.86-2.52-4.21-2.52-6.98
			c0-2.25,0.62-4.25,1.84-5.92c1.21-1.66,2.9-2.96,5.02-3.85c2.1-0.89,4.49-1.34,7.1-1.34c5.4,0,9.83,1.64,13.17,4.88l0.31,0.3
			l-5.11,6.01l-0.34-0.28c-2.24-1.79-4.65-2.7-7.17-2.7c-1.13,0-1.99,0.19-2.54,0.57c-0.51,0.35-0.75,0.83-0.75,1.48
			c0,0.49,0.13,0.87,0.41,1.17c0.3,0.33,0.84,0.66,1.59,0.96c0.8,0.33,2.12,0.79,3.94,1.39c3.72,1.18,6.45,2.71,8.12,4.52
			c1.69,1.85,2.54,4.39,2.54,7.56c0,2.32-0.62,4.4-1.86,6.18c-1.23,1.78-3,3.19-5.27,4.18C359.08,37.24,356.4,37.74,353.35,37.74z
			 M339.98,32.02c1.5,1.38,3.32,2.53,5.44,3.4c2.27,0.94,4.94,1.42,7.93,1.42c2.92,0,5.48-0.47,7.62-1.41
			c2.11-0.93,3.75-2.23,4.88-3.87c1.12-1.63,1.69-3.54,1.69-5.67c0-2.94-0.78-5.27-2.31-6.94c-1.56-1.7-4.16-3.14-7.73-4.27
			c-1.87-0.61-3.18-1.07-4.01-1.41c-0.89-0.36-1.51-0.75-1.91-1.19c-0.43-0.47-0.64-1.07-0.64-1.78c0-0.95,0.39-1.7,1.15-2.22
			c0.71-0.48,1.74-0.73,3.06-0.73c2.6,0,5.08,0.88,7.39,2.63l3.99-4.69c-3.13-2.87-7.24-4.33-12.23-4.33
			c-2.49,0-4.76,0.43-6.75,1.26c-1.96,0.83-3.52,2.02-4.64,3.55c-1.1,1.51-1.66,3.32-1.66,5.38c0,2.54,0.77,4.68,2.28,6.37
			c1.54,1.71,4.31,3.21,8.25,4.45c1.55,0.47,2.75,0.92,3.57,1.33c0.88,0.44,1.48,0.91,1.85,1.45c0.37,0.54,0.55,1.22,0.55,2.01
			c0,1.07-0.43,1.96-1.27,2.63c-0.81,0.65-2,0.97-3.53,0.97c-3.03,0-5.89-1.08-8.51-3.23L339.98,32.02z M284.55,37.74
			c-5.31,0-9.48-1.69-12.37-5.03c-2.88-3.32-4.34-7.99-4.34-13.87c0-3.82,0.65-7.17,1.94-9.97c1.3-2.82,3.22-5.02,5.73-6.55
			c2.49-1.52,5.53-2.29,9.04-2.29c5.31,0,9.47,1.68,12.37,4.98c2.88,3.29,4.34,7.94,4.34,13.82c0,3.81-0.65,7.17-1.94,9.99
			c-1.3,2.84-3.23,5.06-5.72,6.6C291.09,36.97,288.05,37.74,284.55,37.74z M284.55,0.94c-3.33,0-6.21,0.73-8.56,2.16
			c-2.35,1.43-4.15,3.5-5.37,6.15c-1.23,2.67-1.86,5.9-1.86,9.59c0,5.66,1.38,10.13,4.11,13.28c2.71,3.13,6.64,4.72,11.68,4.72
			c3.33,0,6.21-0.73,8.56-2.18c2.34-1.44,4.15-3.53,5.38-6.2c1.23-2.69,1.86-5.93,1.86-9.61c0-5.66-1.38-10.11-4.11-13.23
			C293.52,2.52,289.59,0.94,284.55,0.94z M136.5,37.74c-5.31,0-9.47-1.69-12.37-5.03c-2.88-3.32-4.34-7.99-4.34-13.87
			c0-3.82,0.65-7.17,1.94-9.97c1.3-2.82,3.23-5.02,5.73-6.55c2.49-1.52,5.53-2.29,9.04-2.29c5.31,0,9.47,1.68,12.37,4.98
			c2.88,3.29,4.34,7.94,4.34,13.82c0,3.82-0.65,7.18-1.94,9.99c-1.3,2.84-3.22,5.06-5.72,6.6C143.05,36.97,140,37.74,136.5,37.74z
			 M136.5,0.94c-3.33,0-6.21,0.73-8.56,2.16c-2.34,1.43-4.15,3.5-5.37,6.15c-1.23,2.68-1.86,5.9-1.86,9.59
			c0,5.66,1.38,10.13,4.11,13.28c2.71,3.13,6.64,4.72,11.68,4.72c3.33,0,6.21-0.73,8.56-2.18c2.34-1.45,4.15-3.53,5.38-6.2
			c1.23-2.69,1.86-5.93,1.86-9.61c0-5.66-1.38-10.11-4.11-13.23C145.47,2.52,141.54,0.94,136.5,0.94z M335.15,36.74h-13.69
			l-6.01-20.1c0.08,0.68,0.16,1.34,0.23,1.97c0.22,2.03,0.33,4.34,0.33,6.87v11.25H306V1.04h13.44l6.22,20.09
			c-0.07-0.53-0.13-1.05-0.19-1.56c-0.22-1.99-0.33-4.32-0.33-6.92V1.04h10.01V36.74z M322.14,35.84h12.11V1.94h-8.19v10.7
			c0,2.57,0.11,4.87,0.32,6.83c0.21,1.95,0.52,4.11,0.92,6.4l0.96,6.72l-9.49-30.64H306.9v33.89h8.19V25.49
			c0-2.5-0.11-4.78-0.32-6.78c-0.21-1.99-0.51-4.23-0.87-6.66l-0.94-6.89L322.14,35.84z M263.1,36.74H251.9V1.04h11.21V36.74z
			 M252.81,35.84h9.39V1.94h-9.39V35.84z M239.46,36.74h-11.21V9.64h-8.45V1.04h28.67l-1.17,8.61h-7.84V36.74z M229.16,35.84h9.39
			V8.74h7.96l0.93-6.79h-26.73v6.79h8.45V35.84z M221.86,36.74h-11.88l-1.35-6.75h-7.5l-1.3,6.75h-23.05l-6.45-12.4h-1.17v12.4
			h-11.21V1.04h13.2c5.11,0,8.98,0.93,11.52,2.76c2.58,1.87,3.89,4.81,3.89,8.74c0,2.25-0.51,4.15-1.53,5.65
			c-0.94,1.4-2.44,2.72-4.45,3.95l7.9,13.29l10.04-34.41h12.98L221.86,36.74z M210.72,35.84h9.92l-9.84-33.89h-11.62l-9.88,33.89
			h9.77l1.3-6.75h9L210.72,35.84z M177.33,35.84h10.33l-8.33-14.01l0.4-0.23c2.1-1.22,3.63-2.54,4.55-3.91
			c0.91-1.35,1.37-3.08,1.37-5.15c0-3.63-1.18-6.32-3.51-8.01c-2.38-1.72-6.07-2.59-10.98-2.59h-12.3v33.89h9.39v-12.4h2.63
			L177.33,35.84z M117.6,36.74H94.35V1.04h11.21v26.9h13.21L117.6,36.74z M95.26,35.84h21.55l0.93-6.99h-13.09V1.94h-9.39V35.84z
			 M72.51,36.74H61.3V1.04h13c4.84,0,8.68,1.03,11.4,3.07c2.76,2.06,4.16,5.12,4.16,9.09c0,4.09-1.33,7.27-3.94,9.45
			c-2.59,2.16-6.11,3.26-10.47,3.26h-2.95V36.74z M62.21,35.84h9.39V24.99h3.85c4.14,0,7.46-1.02,9.88-3.04
			c2.4-2,3.61-4.94,3.61-8.75c0-3.66-1.28-6.48-3.79-8.36C82.6,2.92,78.95,1.94,74.3,1.94h-12.1V35.84z M58.35,36.74H46.2
			l-4.48-11.15l-4.2,11.15H25.57l9.53-18.9L26.2,1.04h12.12l3.51,9.24l3.93-9.24h11.92l-9.26,16.51L58.35,36.74z M46.81,35.84h10.05
			l-9.47-18.3l8.74-15.59h-9.77l-4.57,10.76L37.69,1.94h-9.98l8.41,15.89l-9.07,18h9.85l4.8-12.75L46.81,35.84z M23.51,36.74H0V1.04
			h23.83l-1.18,8.06H11.21v5.59h10.1v7.86h-10.1v6.09h12.3V36.74z M0.91,35.84H22.6v-6.29H10.3v-7.91h10.1v-6.04H10.3V8.19h11.56
			l0.92-6.24H0.91V35.84z M284.55,30.44c-2.14,0-3.71-0.95-4.66-2.82c-0.91-1.79-1.35-4.67-1.35-8.78s0.44-6.97,1.35-8.73
			c0.95-1.84,2.51-2.77,4.65-2.77c2.14,0,3.71,0.93,4.65,2.77c0.91,1.77,1.35,4.62,1.35,8.73c0,4.14-0.43,7.02-1.32,8.8
			C288.3,29.5,286.73,30.44,284.55,30.44z M284.55,8.24c-1.8,0-3.06,0.75-3.85,2.28c-0.83,1.61-1.25,4.41-1.25,8.32
			c0,3.91,0.42,6.73,1.25,8.37c0.79,1.57,2.05,2.33,3.84,2.33c1.83,0,3.1-0.75,3.87-2.3c0.81-1.63,1.23-4.45,1.23-8.4
			c0-3.91-0.42-6.71-1.25-8.32C287.61,8.99,286.35,8.24,284.55,8.24z M136.5,30.44c-2.14,0-3.71-0.95-4.66-2.82
			c-0.91-1.8-1.35-4.67-1.35-8.78s0.44-6.97,1.35-8.73c0.95-1.84,2.51-2.77,4.65-2.77c2.14,0,3.71,0.93,4.65,2.77
			c0.91,1.77,1.35,4.62,1.35,8.73c0,4.14-0.43,7.02-1.32,8.8C140.25,29.5,138.68,30.44,136.5,30.44z M136.5,8.24
			c-1.8,0-3.06,0.75-3.85,2.28c-0.83,1.61-1.25,4.41-1.25,8.32c0,3.91,0.42,6.73,1.25,8.37c0.79,1.56,2.05,2.33,3.84,2.33
			c1.83,0,3.1-0.75,3.87-2.3c0.81-1.63,1.23-4.45,1.23-8.4c0-3.91-0.42-6.71-1.25-8.32C139.56,8.99,138.3,8.24,136.5,8.24z
			 M208.1,22.8h-6.45l3.2-16.47L208.1,22.8z M202.75,21.89H207l-2.14-10.84L202.75,21.89z M74.45,18.64H71.6V8.19h2.55
			c3.4,0,5.2,1.73,5.2,5C79.36,17.7,76.69,18.64,74.45,18.64z M72.51,17.74h1.95c2.73,0,4-1.44,4-4.55c0-2.79-1.36-4.1-4.3-4.1
			h-1.65V17.74z M171.4,17.44h-3.15V8.09h2.65c4.26,0,5.15,2.42,5.15,4.45c0,1.61-0.4,2.85-1.18,3.66
			C174.1,17.03,172.92,17.44,171.4,17.44z M169.16,16.54h2.25c1.27,0,2.21-0.32,2.82-0.96c0.61-0.64,0.92-1.66,0.92-3.04
			c0-2.42-1.35-3.55-4.25-3.55h-1.75V16.54z"/>
	</g>
</g>
</svg>
