<?xml version="1.0" encoding="utf-8"?>
<!-- Generator: Adobe Illustrator 26.0.3, SVG Export Plug-In . SVG Version: 6.00 Build 0)  -->
<svg version="1.1" id="Calque_1" xmlns="http://www.w3.org/2000/svg" xmlns:xlink="http://www.w3.org/1999/xlink" x="0px" y="0px"
	 viewBox="0 0 25.8 15.1" style="enable-background:new 0 0 25.8 15.1;" xml:space="preserve">
<style type="text/css">
	.st0{fill:#FFFFFF;}
</style>
<g>
	<path class="st0" d="M17.7,12.1c-0.2,0-0.3,0.1-0.3,0.3v2.4c0,0.2,0.1,0.3,0.3,0.3h2.4c0.2,0,0.3-0.1,0.3-0.3v-2.4
		c0-0.2-0.1-0.3-0.3-0.3H17.7z"/>
	<path class="st0" d="M0.3,0C0.1,0,0,0.1,0,0.3v2.4C0,2.9,0.1,3,0.3,3h2.4C2.9,3,3,2.9,3,2.7V0.3C3,0.1,2.9,0,2.7,0H0.3z"/>
	<path class="st0" d="M23,12.1c-0.2,0-0.3,0.1-0.3,0.3v2.4c0,0.2,0.1,0.3,0.3,0.3h2.4c0.2,0,0.3-0.1,0.3-0.3v-2.4
		c0-0.2-0.1-0.3-0.3-0.3H23z"/>
	<path class="st0" d="M22,4V0.3C22,0.1,21.9,0,21.7,0h-16C5.5,0,5.4,0.1,5.4,0.3v14.5c0,0.2,0.1,0.3,0.3,0.3h5.2V9.8h10.6V5.8H10.9
		V4.3h10.8C21.9,4.3,22,4.2,22,4"/>
</g>
</svg>
