<?xml version="1.0" encoding="utf-8"?>
<!-- Generator: Adobe Illustrator 26.0.2, SVG Export Plug-In . SVG Version: 6.00 Build 0)  -->
<svg version="1.1" id="Calque_1" xmlns="http://www.w3.org/2000/svg" xmlns:xlink="http://www.w3.org/1999/xlink" x="0px" y="0px"
	 viewBox="0 0 25.82 15.09" style="enable-background:new 0 0 25.82 15.09;" xml:space="preserve">
<style type="text/css">
	.st0{fill:#828787;}
</style>
<g>
	<path class="st0" d="M17.69,12.09c-0.16,0-0.3,0.13-0.3,0.3v2.41c0,0.16,0.13,0.3,0.3,0.3h2.43c0.16,0,0.3-0.13,0.3-0.3v-2.41
		c0-0.16-0.13-0.3-0.3-0.3H17.69z"/>
	<path class="st0" d="M0.3,0C0.13,0,0,0.13,0,0.3V2.7C0,2.87,0.13,3,0.3,3h2.43c0.16,0,0.3-0.13,0.3-0.3V0.3
		c0-0.16-0.13-0.3-0.3-0.3H0.3z"/>
	<path class="st0" d="M23.05,12.09c-0.16,0-0.3,0.13-0.3,0.3v2.41c0,0.16,0.13,0.3,0.3,0.3h2.43c0.16,0,0.3-0.13,0.3-0.3v-2.41
		c0-0.16-0.13-0.3-0.3-0.3H23.05z"/>
	<path class="st0" d="M21.99,4.02V0.3c0-0.16-0.13-0.3-0.3-0.3H5.68c-0.16,0-0.3,0.13-0.3,0.3v14.52c0,0.16,0.13,0.3,0.3,0.3h5.24
		V9.82h10.63V5.75H10.92V4.31h10.77C21.85,4.31,21.99,4.18,21.99,4.02"/>
</g>
</svg>
