<?xml version="1.0" encoding="utf-8"?>
<!-- Generator: Adobe Illustrator 26.0.2, SVG Export Plug-In . SVG Version: 6.00 Build 0)  -->
<svg version="1.1" id="Calque_1" xmlns="http://www.w3.org/2000/svg" xmlns:xlink="http://www.w3.org/1999/xlink" x="0px" y="0px"
	 viewBox="0 0 74.09 30.1" style="enable-background:new 0 0 74.09 30.1;" xml:space="preserve">
<style type="text/css">
	.st0{fill:#828787;}
</style>
<g>
	<polygon class="st0" points="0,30.23 9.51,30.23 9.51,25.73 5.96,25.73 5.96,4.53 9.51,4.53 9.51,0 0,0 	"/>
	<polygon class="st0" points="65.69,0.13 65.69,3.87 69.34,3.87 69.34,26.36 65.69,26.36 65.69,30.1 74.09,30.1 74.09,0.13 	"/>
	<path class="st0" d="M22.97,6.63h-4.64c-0.55,0-0.99,0.75-0.99,1.68v13.6c0,0.93,0.45,1.68,0.99,1.68h4.64
		c0.55,0,0.99-0.75,0.99-1.68V8.31C23.96,7.39,23.52,6.63,22.97,6.63z"/>
	<path class="st0" d="M36.66,6.63h-4.64c-0.55,0-0.99,0.75-0.99,1.68v13.6c0,0.93,0.44,1.68,0.99,1.68h4.64
		c0.55,0,0.99-0.75,0.99-1.68V8.31C37.65,7.39,37.21,6.63,36.66,6.63z"/>
	<path class="st0" d="M55.49,6.63h-8.88c-1.05,0-1.9,0.75-1.9,1.68v13.6c0,0.93,0.85,1.68,1.9,1.68h8.88c1.05,0,1.9-0.75,1.9-1.68
		V8.31C57.39,7.39,56.54,6.63,55.49,6.63z"/>
</g>
</svg>
