<?xml version="1.0" encoding="utf-8"?>
<!-- Generator: Adobe Illustrator 26.0.2, SVG Export Plug-In . SVG Version: 6.00 Build 0)  -->
<svg version="1.1" id="Calque_1" xmlns="http://www.w3.org/2000/svg" xmlns:xlink="http://www.w3.org/1999/xlink" x="0px" y="0px"
	 viewBox="0 0 731.6 890" style="enable-background:new 0 0 731.6 890;" xml:space="preserve">
<style type="text/css">
	.st0{clip-path:url(#SVGID_00000003806176324038625180000014161890893092465835_);}
	.st1{opacity:0.8;clip-path:url(#SVGID_00000104675849087077491750000010457330302923551661_);}
	.st2{clip-path:url(#SVGID_00000025421991708154792840000011095583934030119869_);fill:#FFFFFF;}
</style>
<g>
	<defs>
		<rect id="SVGID_1_" width="731.6" height="890"/>
	</defs>
	<clipPath id="SVGID_00000107589610761784688840000011784979865596677535_">
		<use xlink:href="#SVGID_1_"  style="overflow:visible;"/>
	</clipPath>
	<g style="clip-path:url(#SVGID_00000107589610761784688840000011784979865596677535_);">
		<defs>
			<rect id="SVGID_00000116931642679672094510000010914403380052438974_" width="731.6" height="890"/>
		</defs>
		<clipPath id="SVGID_00000100380185219425851530000012591574783430159026_">
			<use xlink:href="#SVGID_00000116931642679672094510000010914403380052438974_"  style="overflow:visible;"/>
		</clipPath>
		<g style="opacity:0.8;clip-path:url(#SVGID_00000100380185219425851530000012591574783430159026_);">
			<g>
				<defs>
					<rect id="SVGID_00000021113157950461468610000007218802797681757350_" x="-9" y="-7" width="749.6" height="898"/>
				</defs>
				<clipPath id="SVGID_00000103258524317915846420000013944704559378228897_">
					<use xlink:href="#SVGID_00000021113157950461468610000007218802797681757350_"  style="overflow:visible;"/>
				</clipPath>
				<path style="clip-path:url(#SVGID_00000103258524317915846420000013944704559378228897_);fill:#FFFFFF;" d="M177.88,160.73h9.02
					c0-0.21,0.02-0.36,0-0.5c-1.01-6.62-2.01-13.23-3.04-19.85c-0.3-1.95-0.66-3.89-1.03-5.83c-0.04-0.22-0.29-0.41-0.44-0.61
					c-0.14,0.19-0.3,0.37-0.4,0.58c-0.07,0.16-0.07,0.35-0.09,0.53c-1.03,6.5-2.06,13-3.08,19.51
					C178.5,156.6,178.2,158.65,177.88,160.73 M352.52,117.43l-30.51-0.02c-0.73-6.25-1.56-12.64-2.34-19.41
					c-0.44,0.5-1.01,0.84-1.06,1.25c-0.39,3.38-0.74,6.76-1.11,10.14c-0.24,2.25-0.48,4.5-0.75,6.74c-0.03,0.23-0.07,0.64-0.14,1.31
					h-1.14c-9.53,0.07-19.06,0.02-28.59,0h-0.81c0.33-1.58,1.3-6.12,1.95-9.04c1.34-6.07,2.81-12.11,3.96-18.21
					c0.3-1.59-0.28-3.38-0.64-5.04c-1.58-7.34-3.23-14.66-4.84-21.99c-0.09-0.4-0.18-0.88-0.3-1.46h30.53
					c0.39,3.48,0.84,7.03,1.18,10.5c0.24,2.39,0.32,4.79,0.56,7.18c0.05,0.46,0.55,0.89,0.84,1.33c0.27-0.46,0.73-0.89,0.78-1.37
					c0.56-5.45,1.02-10.91,1.62-16.36c0.02-0.22,0.17-1.29,0.2-1.29c0.18,0,0.86,0,1.11,0l29.33,0c-0.76,3.51-1.55,7.26-2.31,10.73
					c-1.12,5.11-2.49,10.18-3.29,15.34c-0.34,2.2-0.08,2.44,0.4,4.69c1.54,7.28,3.45,16.74,5.21,23.97
					C352.4,116.69,352.46,117.01,352.52,117.43 M283.51,103.9c-0.01,1.78-0.29,3.62-0.8,5.32c-1.2,4-4.1,6.38-8.06,7.44
					c-3.62,0.98-7.3,0.95-10.94,0.01c-5.28-1.35-8.68-5.7-8.73-11.36c-0.07-9.79-0.03-19.58-0.04-29.37v-5.07l9.78-9.29h0.04V63
					c0,13.47-0.01,26.12,0.01,39.58c0,0.99,0.09,2,0.32,2.95c0.54,2.22,2.19,3.32,4.52,3.14c2.22-0.17,3.67-1.55,3.91-3.78
					c0.09-0.8,0.09-1.62,0.09-2.43c0-10.79,0-20.77,0-31.56l9.89-9.33c0,0.45,0,0.66,0,0.98C283.52,76.6,283.57,89.84,283.51,103.9
					 M254.47,163.97c0.04,0.42,0.34,0.81,0.52,1.22c0.26-0.41,0.7-0.8,0.74-1.24c0.61-6.6,1.2-13.2,1.74-19.81
					c0.49-6,0.93-12.01,1.39-18.02c0.02-0.27,0.1-0.53,0.17-0.89h18.14c-2.8,18.52-5.59,36.94-8.4,55.46
					c-0.56,0.03-1.05,0.07-1.54,0.07c-8.33,0-16.65-0.02-24.98,0.03c-1.28,0.01-1.65-0.36-1.83-1.63
					c-1.19-8.2-2.49-16.37-3.75-24.56c-1.5-9.76-2.99-19.52-4.5-29.4h18.39c0.3,2.93,0.59,5.84,0.88,8.74
					C252.46,143.97,253.45,153.97,254.47,163.97 M201.09,93.06V109h51c-2.16,3.61-1.79,3.09-4.77,8.45h-56.07V61.7h60.65
					c-1.89,3.57-1.97,3.57-4.77,8.45h-46.06v14.62h49.66c-1.92,3.66-2.22,4.03-4.77,8.3H201.09z M189.8,125.03
					c2.96,15.74,5.85,31.4,8.8,47.19l-8.63,8.46c-0.11-0.34-0.15-1-0.32-1.96c-0.42-3.11-0.9-6.22-1.37-9.46
					c-0.38-0.02-0.73-0.06-1.08-0.06c-3.2-0.02-6.39-0.01-9.59-0.07c-0.82-0.02-1.12,0.2-1.23,1.05c-0.46,3.48-1.03,6.95-1.57,10.5
					h-10.11c3.54-18.55,7.08-37.08,10.63-55.66H189.8z M184.68,117.43h-9.87V70.97l9.87-9.33V117.43z M166.58,117.44h-66.54v-1.98
					c0-17.22,0.02-34.44-0.04-51.66c0-1.67,0.43-2.16,2.12-2.13c5.46,0.11,30.55,0.11,36.01,0c1.75-0.04,2.12,0.56,2.11,2.17
					c-0.06,11.9-0.03,15.39-0.03,27.29v2.38h26.37V117.44z M100,179.04c0.05-17.43,0.04-34.85,0.01-52.28
					c0-1.27,0.42-1.66,1.67-1.65c15.14,0.04,43.05,0.03,58.19,0c1.19,0,1.75,0.25,1.72,1.59c-0.07,4.21-0.08,8.41,0,12.62
					c0.02,1.34-0.53,1.59-1.72,1.58c-8.21-0.03-29.17-0.02-37.38-0.02h-1.92v5.4h39.22v14.82h-39.26v19.41
					c-0.69,0.06-1.21,0.15-1.72,0.15c-5.67,0.01-11.35-0.02-17.02,0.03C100.56,180.71,100,180.48,100,179.04 M200.62,140.04
					c0-1.97,0-3.93,0-5.89l9.78-9.29h0.04v1.43c0,13.47-0.01,26.94,0.01,40.41c0,0.99,0.09,1.99,0.32,2.95
					c0.54,2.22,2.19,3.32,4.53,3.14c2.22-0.17,3.67-1.55,3.91-3.78c0.09-0.8,0.09-1.62,0.09-2.43c0-10.79,0-21.59,0-32.39l9.82-9.33
					c0.03,0.35,0.06,0.67,0.06,0.98c0,14.06,0.03,28.12-0.03,42.18c-0.01,1.77-0.26,3.61-0.77,5.31c-1.2,4-4.1,6.38-8.06,7.44
					c-3.62,0.98-7.3,0.94-10.94,0.01c-5.28-1.36-8.68-5.7-8.73-11.36C200.59,159.62,200.63,149.83,200.62,140.04 M280.16,127.34
					c-0.01-1.71,0.41-2.26,2.2-2.25c14.85,0.07,18.23,0.08,33.08,0.02c1.66-0.01,2.18,0.44,2.13,2.12
					c-0.12,3.97-0.1,7.96-0.01,11.93c0.04,1.48-0.48,1.82-1.87,1.81c-8.09-0.06-6.94-0.04-15.03-0.04c-0.65,0-1.3,0-2.07,0
					c0,1.58,0,3,0,4.6c8.74,0,8.22,0.01,17.12,0.01c0,5.02,0,9.86,0,14.89c-8.71,0-8.19-0.01-17.08-0.01c0,1.65,0,3.11,0,4.8
					c0.62,0,1.26,0,1.91,0c8.09,0,6.94,0.05,15.03-0.03c1.64-0.02,2.03,0.48,1.99,2.04c-0.1,4.44-0.04,8.89-0.04,13.52
					c-16.39,0-21-0.01-37.33-0.01c0-0.75,0-1.4,0-2.04C280.18,161.59,280.21,144.47,280.16,127.34 M321.22,136.22
					c0.4-5.65,3.62-9.29,9.12-10.76c4.89-1.31,9.81-1.29,14.57,0.61c4.2,1.67,6.48,4.84,6.6,9.41c0.07,2.97,0.01,5.93,0.01,9h-14.16
					c0-1.28,0-2.56,0-3.84c0-1.3,0.04-2.6-0.04-3.9c-0.03-0.38-0.43-0.74-0.66-1.11c-0.27,0.38-0.54,0.74-0.79,1.12
					c-0.05,0.08-0.01,0.21-0.01,0.33c0,2.23-0.01,4.45,0.01,6.68c0.01,1.46,0.48,2,1.9,2.28c2.08,0.4,4.16,0.79,6.23,1.22
					c5.13,1.07,7.9,3.98,8.26,9.48c0.29,4.5,0.24,9.06-0.12,13.56c-0.46,5.67-3.75,9.33-9.28,10.76c-5,1.29-10.02,1.17-14.91-0.64
					c-3.82-1.42-6.03-4.29-6.29-8.29c-0.26-3.87-0.05-7.77-0.05-11.78h14.24c0.02,0.39,0.06,0.75,0.06,1.1c0,2.45,0,4.9,0,7.34
					c0,0.34-0.08,0.72,0.06,0.99c0.17,0.35,0.53,0.6,0.81,0.9c0.23-0.33,0.49-0.64,0.68-0.99c0.08-0.14,0.02-0.36,0.02-0.55
					c0-2.56,0.01-5.12,0-7.68c-0.01-1.79-0.59-2.41-2.4-2.7c-1.8-0.29-3.6-0.57-5.37-0.97c-5.04-1.12-7.85-3.99-8.31-9.13
					C321.01,144.54,320.93,140.35,321.22,136.22 M731.6,0H0v890h731.6V0z"/>
			</g>
		</g>
	</g>
</g>
</svg>
