<?xml version="1.0" encoding="utf-8"?>
<!-- Generator: Adobe Illustrator 26.0.2, SVG Export Plug-In . SVG Version: 6.00 Build 0)  -->
<svg version="1.1" id="Calque_1" xmlns="http://www.w3.org/2000/svg" xmlns:xlink="http://www.w3.org/1999/xlink" x="0px" y="0px"
	 viewBox="0 0 42.09 17.17" style="enable-background:new 0 0 42.09 17.17;" xml:space="preserve">
<style type="text/css">
	.st0{fill:#828787;}
</style>
<g>
	<polygon class="st0" points="0,17.17 5.4,17.17 5.4,14.62 3.38,14.62 3.38,2.57 5.4,2.57 5.4,0 0,0 	"/>
	<polygon class="st0" points="37.32,0.07 37.32,2.2 39.39,2.2 39.39,14.98 37.32,14.98 37.32,17.1 42.09,17.1 42.09,0.07 	"/>
	<path class="st0" d="M13.05,3.77h-2.64c-0.31,0-0.57,0.43-0.57,0.96v7.72c0,0.53,0.25,0.96,0.57,0.96h2.64
		c0.31,0,0.57-0.43,0.57-0.96V4.72C13.61,4.2,13.36,3.77,13.05,3.77z"/>
	<path class="st0" d="M20.82,3.77h-2.64c-0.31,0-0.57,0.43-0.57,0.96v7.72c0,0.53,0.25,0.96,0.57,0.96h2.64
		c0.31,0,0.57-0.43,0.57-0.96V4.72C21.39,4.2,21.14,3.77,20.82,3.77z"/>
	<path class="st0" d="M31.52,3.77h-5.04c-0.6,0-1.08,0.43-1.08,0.96v7.72c0,0.53,0.48,0.96,1.08,0.96h5.04
		c0.6,0,1.08-0.43,1.08-0.96V4.72C32.6,4.2,32.12,3.77,31.52,3.77z"/>
</g>
</svg>
